<mxfile host="app.diagrams.net" agent="Mozilla/5.0 (Windows NT 10.0; Win64; x64) AppleWebKit/537.36 (KHTML, like Gecko) Chrome/131.0.0.0 Safari/537.36" version="25.0.3">
  <diagram id="wlWKxnLGkiCilWef56x3" name="Página-1">
    <mxGraphModel dx="2660" dy="1397" grid="1" gridSize="10" guides="1" tooltips="1" connect="1" arrows="1" fold="1" page="1" pageScale="1" pageWidth="827" pageHeight="1169" math="0" shadow="0">
      <root>
        <mxCell id="0" />
        <mxCell id="1" parent="0" />
        <mxCell id="rWxFMnYgCEta-akT6iay-1" value="" style="rounded=1;whiteSpace=wrap;html=1;arcSize=5;" vertex="1" parent="1">
          <mxGeometry x="60" y="100" width="590" height="700" as="geometry" />
        </mxCell>
        <mxCell id="rWxFMnYgCEta-akT6iay-91" value="" style="rounded=1;whiteSpace=wrap;html=1;fillColor=#f5f5f5;fontColor=#333333;strokeColor=#666666;" vertex="1" parent="1">
          <mxGeometry x="90" y="145" width="230" height="60" as="geometry" />
        </mxCell>
        <mxCell id="rWxFMnYgCEta-akT6iay-4" value="M10GnssDriverReadData()" style="text;html=1;align=center;verticalAlign=middle;whiteSpace=wrap;rounded=0;" vertex="1" parent="1">
          <mxGeometry x="62.489999999999995" y="100" width="170" height="30" as="geometry" />
        </mxCell>
        <mxCell id="rWxFMnYgCEta-akT6iay-7" value="" style="edgeStyle=orthogonalEdgeStyle;rounded=0;orthogonalLoop=1;jettySize=auto;html=1;" edge="1" parent="1" source="rWxFMnYgCEta-akT6iay-5" target="rWxFMnYgCEta-akT6iay-6">
          <mxGeometry relative="1" as="geometry" />
        </mxCell>
        <mxCell id="rWxFMnYgCEta-akT6iay-5" value="M10GnssDriverReadStreamBuffer()" style="rounded=1;whiteSpace=wrap;html=1;fillColor=#f5f5f5;fontColor=#333333;strokeColor=#666666;" vertex="1" parent="1">
          <mxGeometry x="100" y="150" width="210" height="50" as="geometry" />
        </mxCell>
        <mxCell id="rWxFMnYgCEta-akT6iay-9" value="" style="edgeStyle=orthogonalEdgeStyle;rounded=0;orthogonalLoop=1;jettySize=auto;html=1;" edge="1" parent="1" source="rWxFMnYgCEta-akT6iay-6" target="rWxFMnYgCEta-akT6iay-8">
          <mxGeometry relative="1" as="geometry" />
        </mxCell>
        <mxCell id="rWxFMnYgCEta-akT6iay-10" value="yes" style="edgeLabel;html=1;align=center;verticalAlign=middle;resizable=0;points=[];fontColor=#4D4D4D;" vertex="1" connectable="0" parent="rWxFMnYgCEta-akT6iay-9">
          <mxGeometry x="-0.686" y="1" relative="1" as="geometry">
            <mxPoint x="4" y="-7" as="offset" />
          </mxGeometry>
        </mxCell>
        <mxCell id="rWxFMnYgCEta-akT6iay-12" value="" style="edgeStyle=orthogonalEdgeStyle;rounded=0;orthogonalLoop=1;jettySize=auto;html=1;" edge="1" parent="1" source="rWxFMnYgCEta-akT6iay-6" target="rWxFMnYgCEta-akT6iay-11">
          <mxGeometry relative="1" as="geometry" />
        </mxCell>
        <mxCell id="rWxFMnYgCEta-akT6iay-13" value="no" style="edgeLabel;html=1;align=center;verticalAlign=middle;resizable=0;points=[];fontColor=#4D4D4D;" vertex="1" connectable="0" parent="rWxFMnYgCEta-akT6iay-12">
          <mxGeometry x="-0.4008" y="-1" relative="1" as="geometry">
            <mxPoint x="-14" as="offset" />
          </mxGeometry>
        </mxCell>
        <mxCell id="rWxFMnYgCEta-akT6iay-6" value="&lt;font style=&quot;font-size: 9px;&quot;&gt;is buffer empty&lt;/font&gt;" style="html=1;whiteSpace=wrap;aspect=fixed;shape=isoRectangle;" vertex="1" parent="1">
          <mxGeometry x="163.34" y="230" width="83.33" height="50" as="geometry" />
        </mxCell>
        <mxCell id="rWxFMnYgCEta-akT6iay-8" value="return;" style="text;html=1;align=center;verticalAlign=middle;whiteSpace=wrap;rounded=0;" vertex="1" parent="1">
          <mxGeometry x="280" y="240" width="60" height="30" as="geometry" />
        </mxCell>
        <mxCell id="rWxFMnYgCEta-akT6iay-15" value="" style="edgeStyle=orthogonalEdgeStyle;rounded=0;orthogonalLoop=1;jettySize=auto;html=1;entryX=0;entryY=0.25;entryDx=0;entryDy=0;" edge="1" parent="1" source="rWxFMnYgCEta-akT6iay-11" target="rWxFMnYgCEta-akT6iay-14">
          <mxGeometry relative="1" as="geometry" />
        </mxCell>
        <mxCell id="rWxFMnYgCEta-akT6iay-19" value="" style="edgeStyle=orthogonalEdgeStyle;rounded=0;orthogonalLoop=1;jettySize=auto;html=1;" edge="1" parent="1" source="rWxFMnYgCEta-akT6iay-11" target="rWxFMnYgCEta-akT6iay-18">
          <mxGeometry relative="1" as="geometry" />
        </mxCell>
        <mxCell id="rWxFMnYgCEta-akT6iay-11" value="&lt;font style=&quot;line-height: 40%; font-size: 6px;&quot;&gt;is beginning of&amp;nbsp;&lt;/font&gt;&lt;div style=&quot;line-height: 40%;&quot;&gt;&lt;font style=&quot;line-height: 40%; font-size: 6px;&quot;&gt;NMEA message&lt;/font&gt;&lt;/div&gt;" style="html=1;whiteSpace=wrap;aspect=fixed;shape=isoRectangle;" vertex="1" parent="1">
          <mxGeometry x="163.34" y="310" width="83.33" height="50" as="geometry" />
        </mxCell>
        <mxCell id="rWxFMnYgCEta-akT6iay-14" value="&lt;font style=&quot;font-size: 11px;&quot;&gt;&lt;i&gt;parser_state ← IDLE&lt;/i&gt;&lt;/font&gt;" style="rounded=1;whiteSpace=wrap;html=1;dashed=1;fillColor=#dae8fc;strokeColor=#6c8ebf;" vertex="1" parent="1">
          <mxGeometry x="289" y="328" width="120" height="30" as="geometry" />
        </mxCell>
        <mxCell id="rWxFMnYgCEta-akT6iay-16" value="yes" style="edgeLabel;html=1;align=center;verticalAlign=middle;resizable=0;points=[];fontColor=#4D4D4D;" vertex="1" connectable="0" parent="1">
          <mxGeometry x="250.00272727272733" y="297" as="geometry">
            <mxPoint x="8" y="28" as="offset" />
          </mxGeometry>
        </mxCell>
        <mxCell id="rWxFMnYgCEta-akT6iay-23" value="" style="edgeStyle=orthogonalEdgeStyle;rounded=0;orthogonalLoop=1;jettySize=auto;html=1;entryX=0.189;entryY=0;entryDx=0;entryDy=0;entryPerimeter=0;" edge="1" parent="1" source="rWxFMnYgCEta-akT6iay-18" target="rWxFMnYgCEta-akT6iay-22">
          <mxGeometry relative="1" as="geometry" />
        </mxCell>
        <mxCell id="rWxFMnYgCEta-akT6iay-18" value="" style="shape=waypoint;sketch=0;size=6;pointerEvents=1;points=[];fillColor=default;resizable=0;rotatable=0;perimeter=centerPerimeter;snapToPoint=1;" vertex="1" parent="1">
          <mxGeometry x="194.995" y="377" width="20" height="20" as="geometry" />
        </mxCell>
        <mxCell id="rWxFMnYgCEta-akT6iay-21" style="edgeStyle=orthogonalEdgeStyle;rounded=0;orthogonalLoop=1;jettySize=auto;html=1;exitX=0;exitY=0.75;exitDx=0;exitDy=0;entryX=0.614;entryY=0.606;entryDx=0;entryDy=0;entryPerimeter=0;" edge="1" parent="1" source="rWxFMnYgCEta-akT6iay-14" target="rWxFMnYgCEta-akT6iay-18">
          <mxGeometry relative="1" as="geometry">
            <Array as="points">
              <mxPoint x="230" y="350" />
              <mxPoint x="230" y="387" />
            </Array>
          </mxGeometry>
        </mxCell>
        <mxCell id="rWxFMnYgCEta-akT6iay-22" value="" style="rounded=1;whiteSpace=wrap;html=1;fillColor=#f5f5f5;fontColor=#333333;strokeColor=#666666;arcSize=5;" vertex="1" parent="1">
          <mxGeometry x="110" y="425" width="500" height="320" as="geometry" />
        </mxCell>
        <mxCell id="rWxFMnYgCEta-akT6iay-24" value="M10GnssDriverParseBuffer()" style="text;html=1;align=center;verticalAlign=middle;whiteSpace=wrap;rounded=0;" vertex="1" parent="1">
          <mxGeometry x="110" y="427" width="170" height="30" as="geometry" />
        </mxCell>
        <mxCell id="rWxFMnYgCEta-akT6iay-29" value="" style="edgeStyle=orthogonalEdgeStyle;rounded=0;orthogonalLoop=1;jettySize=auto;html=1;" edge="1" parent="1" source="rWxFMnYgCEta-akT6iay-26" target="rWxFMnYgCEta-akT6iay-28">
          <mxGeometry relative="1" as="geometry" />
        </mxCell>
        <mxCell id="rWxFMnYgCEta-akT6iay-34" value="" style="edgeStyle=orthogonalEdgeStyle;rounded=0;orthogonalLoop=1;jettySize=auto;html=1;" edge="1" parent="1" source="rWxFMnYgCEta-akT6iay-26" target="rWxFMnYgCEta-akT6iay-30">
          <mxGeometry relative="1" as="geometry" />
        </mxCell>
        <mxCell id="rWxFMnYgCEta-akT6iay-28" value="return;" style="text;html=1;align=center;verticalAlign=middle;whiteSpace=wrap;rounded=0;" vertex="1" parent="1">
          <mxGeometry x="246.67000000000002" y="480" width="60" height="30" as="geometry" />
        </mxCell>
        <mxCell id="rWxFMnYgCEta-akT6iay-43" value="" style="edgeStyle=orthogonalEdgeStyle;rounded=0;orthogonalLoop=1;jettySize=auto;html=1;" edge="1" parent="1" source="rWxFMnYgCEta-akT6iay-30" target="rWxFMnYgCEta-akT6iay-42">
          <mxGeometry relative="1" as="geometry" />
        </mxCell>
        <mxCell id="rWxFMnYgCEta-akT6iay-30" value="&lt;span style=&quot;font-size: 6px;&quot;&gt;parser_state is IDLE&lt;/span&gt;" style="html=1;whiteSpace=wrap;aspect=fixed;shape=isoRectangle;fillColor=#FFF8E3;strokeColor=#d6b656;" vertex="1" parent="1">
          <mxGeometry x="131.67" y="550" width="83.33" height="50" as="geometry" />
        </mxCell>
        <mxCell id="rWxFMnYgCEta-akT6iay-46" value="" style="edgeStyle=orthogonalEdgeStyle;rounded=0;orthogonalLoop=1;jettySize=auto;html=1;" edge="1" parent="1" source="rWxFMnYgCEta-akT6iay-31" target="rWxFMnYgCEta-akT6iay-45">
          <mxGeometry relative="1" as="geometry" />
        </mxCell>
        <mxCell id="rWxFMnYgCEta-akT6iay-31" value="&lt;span style=&quot;font-size: 6px;&quot;&gt;parser_state is PARSING&lt;/span&gt;" style="html=1;whiteSpace=wrap;aspect=fixed;shape=isoRectangle;fillColor=#FFF8E3;strokeColor=#d6b656;" vertex="1" parent="1">
          <mxGeometry x="131.67" y="620" width="83.33" height="50" as="geometry" />
        </mxCell>
        <mxCell id="rWxFMnYgCEta-akT6iay-50" value="" style="edgeStyle=orthogonalEdgeStyle;rounded=0;orthogonalLoop=1;jettySize=auto;html=1;" edge="1" parent="1" source="rWxFMnYgCEta-akT6iay-32" target="rWxFMnYgCEta-akT6iay-49">
          <mxGeometry relative="1" as="geometry" />
        </mxCell>
        <mxCell id="rWxFMnYgCEta-akT6iay-32" value="" style="html=1;whiteSpace=wrap;aspect=fixed;shape=isoRectangle;fillColor=#FFF8E3;strokeColor=#d6b656;" vertex="1" parent="1">
          <mxGeometry x="131.67" y="689" width="83.33" height="50" as="geometry" />
        </mxCell>
        <mxCell id="rWxFMnYgCEta-akT6iay-33" value="&lt;span style=&quot;font-size: 6px; line-height: 50%;&quot;&gt;parser_state&amp;nbsp;&lt;/span&gt;&lt;div style=&quot;line-height: 50%;&quot;&gt;&lt;span style=&quot;font-size: 6px; line-height: 50%;&quot;&gt;is&amp;nbsp;&lt;/span&gt;&lt;/div&gt;&lt;div style=&quot;line-height: 50%;&quot;&gt;&lt;span style=&quot;font-size: 6px; line-height: 50%;&quot;&gt;DISCARDING_MESSAGE&lt;/span&gt;&lt;/div&gt;" style="text;html=1;align=center;verticalAlign=middle;whiteSpace=wrap;rounded=0;" vertex="1" parent="1">
          <mxGeometry x="143.32999999999998" y="697" width="60" height="20" as="geometry" />
        </mxCell>
        <mxCell id="rWxFMnYgCEta-akT6iay-39" style="edgeStyle=orthogonalEdgeStyle;rounded=0;orthogonalLoop=1;jettySize=auto;html=1;entryX=0.499;entryY=0.012;entryDx=0;entryDy=0;entryPerimeter=0;" edge="1" parent="1" source="rWxFMnYgCEta-akT6iay-30" target="rWxFMnYgCEta-akT6iay-31">
          <mxGeometry relative="1" as="geometry" />
        </mxCell>
        <mxCell id="rWxFMnYgCEta-akT6iay-40" style="edgeStyle=orthogonalEdgeStyle;rounded=0;orthogonalLoop=1;jettySize=auto;html=1;entryX=0.502;entryY=0.021;entryDx=0;entryDy=0;entryPerimeter=0;" edge="1" parent="1" source="rWxFMnYgCEta-akT6iay-31" target="rWxFMnYgCEta-akT6iay-32">
          <mxGeometry relative="1" as="geometry">
            <Array as="points" />
          </mxGeometry>
        </mxCell>
        <mxCell id="rWxFMnYgCEta-akT6iay-42" value="&lt;span style=&quot;font-size: 11px;&quot;&gt;&lt;i&gt;M10GnssDriverParseNewMessage()&lt;/i&gt;&lt;/span&gt;" style="rounded=1;whiteSpace=wrap;html=1;fillColor=#ffe6cc;strokeColor=#d79b00;" vertex="1" parent="1">
          <mxGeometry x="251" y="560" width="186" height="30" as="geometry" />
        </mxCell>
        <mxCell id="rWxFMnYgCEta-akT6iay-44" value="&lt;font color=&quot;#4d4d4d&quot;&gt;yes&lt;/font&gt;" style="text;html=1;align=center;verticalAlign=middle;whiteSpace=wrap;rounded=0;" vertex="1" parent="1">
          <mxGeometry x="203.32999999999998" y="557" width="50" height="20" as="geometry" />
        </mxCell>
        <mxCell id="rWxFMnYgCEta-akT6iay-45" value="&lt;i style=&quot;&quot;&gt;&lt;span style=&quot;font-size: 11px;&quot;&gt;M10GnssDriverNmeaMessageDelegator(message_origin)&lt;/span&gt;&lt;/i&gt;" style="rounded=1;whiteSpace=wrap;html=1;fillColor=#ffe6cc;strokeColor=#d79b00;" vertex="1" parent="1">
          <mxGeometry x="251" y="630" width="299" height="30" as="geometry" />
        </mxCell>
        <mxCell id="rWxFMnYgCEta-akT6iay-47" value="&lt;font color=&quot;#4d4d4d&quot;&gt;yes&lt;/font&gt;" style="text;html=1;align=center;verticalAlign=middle;whiteSpace=wrap;rounded=0;" vertex="1" parent="1">
          <mxGeometry x="203.32999999999998" y="627" width="50" height="20" as="geometry" />
        </mxCell>
        <mxCell id="rWxFMnYgCEta-akT6iay-48" value="&lt;font color=&quot;#4d4d4d&quot;&gt;yes&lt;/font&gt;" style="text;html=1;align=center;verticalAlign=middle;whiteSpace=wrap;rounded=0;" vertex="1" parent="1">
          <mxGeometry x="203.99999999999997" y="475" width="50" height="20" as="geometry" />
        </mxCell>
        <mxCell id="rWxFMnYgCEta-akT6iay-49" value="&lt;span style=&quot;font-size: 11px;&quot;&gt;&lt;i&gt;M10GnssDriverNmeaDiscardMessage()&lt;/i&gt;&lt;/span&gt;" style="rounded=1;whiteSpace=wrap;html=1;fillColor=#ffe6cc;strokeColor=#d79b00;" vertex="1" parent="1">
          <mxGeometry x="251" y="699" width="209" height="30" as="geometry" />
        </mxCell>
        <mxCell id="rWxFMnYgCEta-akT6iay-51" value="&lt;font color=&quot;#4d4d4d&quot;&gt;yes&lt;/font&gt;" style="text;html=1;align=center;verticalAlign=middle;whiteSpace=wrap;rounded=0;" vertex="1" parent="1">
          <mxGeometry x="203.99999999999997" y="696" width="50" height="20" as="geometry" />
        </mxCell>
        <mxCell id="rWxFMnYgCEta-akT6iay-52" style="edgeStyle=orthogonalEdgeStyle;rounded=0;orthogonalLoop=1;jettySize=auto;html=1;entryX=0.499;entryY=0.009;entryDx=0;entryDy=0;entryPerimeter=0;" edge="1" parent="1" source="rWxFMnYgCEta-akT6iay-42" target="rWxFMnYgCEta-akT6iay-92">
          <mxGeometry relative="1" as="geometry">
            <Array as="points">
              <mxPoint x="570" y="575" />
              <mxPoint x="570" y="450" />
              <mxPoint x="174" y="450" />
            </Array>
          </mxGeometry>
        </mxCell>
        <mxCell id="rWxFMnYgCEta-akT6iay-55" value="" style="endArrow=none;html=1;rounded=0;exitX=1;exitY=0.5;exitDx=0;exitDy=0;" edge="1" parent="1" source="rWxFMnYgCEta-akT6iay-45">
          <mxGeometry width="50" height="50" relative="1" as="geometry">
            <mxPoint x="500" y="660" as="sourcePoint" />
            <mxPoint x="570" y="570" as="targetPoint" />
            <Array as="points">
              <mxPoint x="570" y="645" />
            </Array>
          </mxGeometry>
        </mxCell>
        <mxCell id="rWxFMnYgCEta-akT6iay-56" value="" style="endArrow=none;html=1;rounded=0;exitX=1;exitY=0.5;exitDx=0;exitDy=0;" edge="1" parent="1">
          <mxGeometry width="50" height="50" relative="1" as="geometry">
            <mxPoint x="460" y="717" as="sourcePoint" />
            <mxPoint x="570" y="630" as="targetPoint" />
            <Array as="points">
              <mxPoint x="570" y="717" />
            </Array>
          </mxGeometry>
        </mxCell>
        <mxCell id="rWxFMnYgCEta-akT6iay-57" value="" style="rounded=0;whiteSpace=wrap;html=1;" vertex="1" parent="1">
          <mxGeometry x="74.99" y="980" width="615.01" height="60" as="geometry" />
        </mxCell>
        <mxCell id="rWxFMnYgCEta-akT6iay-58" value="" style="rounded=0;whiteSpace=wrap;html=1;fillColor=#f5f5f5;fontColor=#333333;strokeColor=#666666;" vertex="1" parent="1">
          <mxGeometry x="74.99" y="980" width="335.01" height="60" as="geometry" />
        </mxCell>
        <mxCell id="rWxFMnYgCEta-akT6iay-59" value="" style="rounded=0;whiteSpace=wrap;html=1;fillColor=#e1d5e7;strokeColor=#9673a6;" vertex="1" parent="1">
          <mxGeometry x="74.99" y="980" width="165.01" height="60" as="geometry" />
        </mxCell>
        <mxCell id="rWxFMnYgCEta-akT6iay-60" value="" style="shape=curlyBracket;whiteSpace=wrap;html=1;rounded=1;labelPosition=left;verticalLabelPosition=middle;align=right;verticalAlign=middle;rotation=90;" vertex="1" parent="1">
          <mxGeometry x="373.33" y="650" width="20" height="620" as="geometry" />
        </mxCell>
        <mxCell id="rWxFMnYgCEta-akT6iay-61" value="M10 I2C Stream Buffer - 4 kBytes" style="text;html=1;align=center;verticalAlign=middle;whiteSpace=wrap;rounded=0;" vertex="1" parent="1">
          <mxGeometry x="289" y="910" width="190" height="30" as="geometry" />
        </mxCell>
        <mxCell id="rWxFMnYgCEta-akT6iay-63" value="" style="endArrow=none;html=1;rounded=0;" edge="1" parent="1">
          <mxGeometry width="50" height="50" relative="1" as="geometry">
            <mxPoint x="75" y="1130" as="sourcePoint" />
            <mxPoint x="74.99000000000001" y="1060" as="targetPoint" />
          </mxGeometry>
        </mxCell>
        <mxCell id="rWxFMnYgCEta-akT6iay-64" value="" style="endArrow=none;html=1;rounded=0;" edge="1" parent="1">
          <mxGeometry width="50" height="50" relative="1" as="geometry">
            <mxPoint x="240" y="1090" as="sourcePoint" />
            <mxPoint x="240" y="1060" as="targetPoint" />
          </mxGeometry>
        </mxCell>
        <mxCell id="rWxFMnYgCEta-akT6iay-65" value="" style="endArrow=none;html=1;rounded=0;" edge="1" parent="1">
          <mxGeometry width="50" height="50" relative="1" as="geometry">
            <mxPoint x="409.01" y="1130" as="sourcePoint" />
            <mxPoint x="409" y="1060" as="targetPoint" />
          </mxGeometry>
        </mxCell>
        <mxCell id="rWxFMnYgCEta-akT6iay-66" value="" style="endArrow=classic;html=1;rounded=0;" edge="1" parent="1">
          <mxGeometry width="50" height="50" relative="1" as="geometry">
            <mxPoint x="74.99000000000001" y="1080" as="sourcePoint" />
            <mxPoint x="240" y="1080" as="targetPoint" />
          </mxGeometry>
        </mxCell>
        <mxCell id="rWxFMnYgCEta-akT6iay-67" value="" style="endArrow=classic;html=1;rounded=0;" edge="1" parent="1">
          <mxGeometry width="50" height="50" relative="1" as="geometry">
            <mxPoint x="74.99000000000001" y="1120" as="sourcePoint" />
            <mxPoint x="410" y="1120" as="targetPoint" />
          </mxGeometry>
        </mxCell>
        <mxCell id="rWxFMnYgCEta-akT6iay-68" value="mCu Buffer - 400 Bytes" style="text;html=1;align=center;verticalAlign=middle;whiteSpace=wrap;rounded=0;" vertex="1" parent="1">
          <mxGeometry x="74.99" y="1060" width="145.01" height="30" as="geometry" />
        </mxCell>
        <mxCell id="rWxFMnYgCEta-akT6iay-69" value="Data to be Read - 800 Bytes" style="text;html=1;align=center;verticalAlign=middle;whiteSpace=wrap;rounded=0;" vertex="1" parent="1">
          <mxGeometry x="74.99" y="1100" width="165.01" height="30" as="geometry" />
        </mxCell>
        <mxCell id="rWxFMnYgCEta-akT6iay-70" value="" style="rounded=0;whiteSpace=wrap;html=1;" vertex="1" parent="1">
          <mxGeometry x="74.99" y="1260" width="615.01" height="60" as="geometry" />
        </mxCell>
        <mxCell id="rWxFMnYgCEta-akT6iay-71" value="" style="rounded=0;whiteSpace=wrap;html=1;fillColor=#f5f5f5;fontColor=#333333;strokeColor=#666666;" vertex="1" parent="1">
          <mxGeometry x="74.99" y="1260" width="335.01" height="60" as="geometry" />
        </mxCell>
        <mxCell id="rWxFMnYgCEta-akT6iay-72" value="" style="rounded=0;whiteSpace=wrap;html=1;fillColor=#e1d5e7;strokeColor=#9673a6;" vertex="1" parent="1">
          <mxGeometry x="74.99" y="1260" width="165.01" height="60" as="geometry" />
        </mxCell>
        <mxCell id="rWxFMnYgCEta-akT6iay-73" value="" style="shape=curlyBracket;whiteSpace=wrap;html=1;rounded=1;labelPosition=left;verticalLabelPosition=middle;align=right;verticalAlign=middle;rotation=90;" vertex="1" parent="1">
          <mxGeometry x="373.33" y="930" width="20" height="620" as="geometry" />
        </mxCell>
        <mxCell id="rWxFMnYgCEta-akT6iay-74" value="M10 I2C Stream Buffer - 4 kBytes" style="text;html=1;align=center;verticalAlign=middle;whiteSpace=wrap;rounded=0;" vertex="1" parent="1">
          <mxGeometry x="289" y="1190" width="190" height="30" as="geometry" />
        </mxCell>
        <mxCell id="rWxFMnYgCEta-akT6iay-75" value="" style="endArrow=none;html=1;rounded=0;" edge="1" parent="1">
          <mxGeometry width="50" height="50" relative="1" as="geometry">
            <mxPoint x="75" y="1410" as="sourcePoint" />
            <mxPoint x="74.99000000000001" y="1340" as="targetPoint" />
          </mxGeometry>
        </mxCell>
        <mxCell id="rWxFMnYgCEta-akT6iay-76" value="" style="endArrow=none;html=1;rounded=0;" edge="1" parent="1">
          <mxGeometry width="50" height="50" relative="1" as="geometry">
            <mxPoint x="240" y="1370" as="sourcePoint" />
            <mxPoint x="240" y="1340" as="targetPoint" />
          </mxGeometry>
        </mxCell>
        <mxCell id="rWxFMnYgCEta-akT6iay-77" value="" style="endArrow=none;html=1;rounded=0;" edge="1" parent="1">
          <mxGeometry width="50" height="50" relative="1" as="geometry">
            <mxPoint x="409.01" y="1410" as="sourcePoint" />
            <mxPoint x="409" y="1340" as="targetPoint" />
          </mxGeometry>
        </mxCell>
        <mxCell id="rWxFMnYgCEta-akT6iay-78" value="" style="endArrow=classic;html=1;rounded=0;" edge="1" parent="1">
          <mxGeometry width="50" height="50" relative="1" as="geometry">
            <mxPoint x="74.99000000000001" y="1360" as="sourcePoint" />
            <mxPoint x="240" y="1360" as="targetPoint" />
          </mxGeometry>
        </mxCell>
        <mxCell id="rWxFMnYgCEta-akT6iay-79" value="" style="endArrow=classic;html=1;rounded=0;" edge="1" parent="1">
          <mxGeometry width="50" height="50" relative="1" as="geometry">
            <mxPoint x="74.99000000000001" y="1400" as="sourcePoint" />
            <mxPoint x="410" y="1400" as="targetPoint" />
          </mxGeometry>
        </mxCell>
        <mxCell id="rWxFMnYgCEta-akT6iay-80" value="mCu Buffer - 400 Bytes" style="text;html=1;align=center;verticalAlign=middle;whiteSpace=wrap;rounded=0;" vertex="1" parent="1">
          <mxGeometry x="74.99" y="1340" width="145.01" height="30" as="geometry" />
        </mxCell>
        <mxCell id="rWxFMnYgCEta-akT6iay-81" value="Data to be Read - 800 Bytes" style="text;html=1;align=center;verticalAlign=middle;whiteSpace=wrap;rounded=0;" vertex="1" parent="1">
          <mxGeometry x="74.99" y="1380" width="165.01" height="30" as="geometry" />
        </mxCell>
        <mxCell id="rWxFMnYgCEta-akT6iay-85" value="RMC NMEA Message" style="rounded=1;whiteSpace=wrap;html=1;" vertex="1" parent="1">
          <mxGeometry x="126.67" y="1275" width="193.33" height="30" as="geometry" />
        </mxCell>
        <mxCell id="rWxFMnYgCEta-akT6iay-86" value="" style="group" vertex="1" connectable="0" parent="1">
          <mxGeometry x="80" y="1280" width="40" height="20" as="geometry" />
        </mxCell>
        <mxCell id="rWxFMnYgCEta-akT6iay-82" value="" style="shape=waypoint;sketch=0;fillStyle=solid;size=6;pointerEvents=1;points=[];fillColor=none;resizable=0;rotatable=0;perimeter=centerPerimeter;snapToPoint=1;" vertex="1" parent="rWxFMnYgCEta-akT6iay-86">
          <mxGeometry width="20" height="20" as="geometry" />
        </mxCell>
        <mxCell id="rWxFMnYgCEta-akT6iay-83" value="" style="shape=waypoint;sketch=0;fillStyle=solid;size=6;pointerEvents=1;points=[];fillColor=none;resizable=0;rotatable=0;perimeter=centerPerimeter;snapToPoint=1;" vertex="1" parent="rWxFMnYgCEta-akT6iay-86">
          <mxGeometry x="10" width="20" height="20" as="geometry" />
        </mxCell>
        <mxCell id="rWxFMnYgCEta-akT6iay-84" value="" style="shape=waypoint;sketch=0;fillStyle=solid;size=6;pointerEvents=1;points=[];fillColor=none;resizable=0;rotatable=0;perimeter=centerPerimeter;snapToPoint=1;" vertex="1" parent="rWxFMnYgCEta-akT6iay-86">
          <mxGeometry x="20" width="20" height="20" as="geometry" />
        </mxCell>
        <mxCell id="rWxFMnYgCEta-akT6iay-87" value="" style="group" vertex="1" connectable="0" parent="1">
          <mxGeometry x="330" y="1280" width="40" height="20" as="geometry" />
        </mxCell>
        <mxCell id="rWxFMnYgCEta-akT6iay-88" value="" style="shape=waypoint;sketch=0;fillStyle=solid;size=6;pointerEvents=1;points=[];fillColor=none;resizable=0;rotatable=0;perimeter=centerPerimeter;snapToPoint=1;" vertex="1" parent="rWxFMnYgCEta-akT6iay-87">
          <mxGeometry width="20" height="20" as="geometry" />
        </mxCell>
        <mxCell id="rWxFMnYgCEta-akT6iay-89" value="" style="shape=waypoint;sketch=0;fillStyle=solid;size=6;pointerEvents=1;points=[];fillColor=none;resizable=0;rotatable=0;perimeter=centerPerimeter;snapToPoint=1;" vertex="1" parent="rWxFMnYgCEta-akT6iay-87">
          <mxGeometry x="10" width="20" height="20" as="geometry" />
        </mxCell>
        <mxCell id="rWxFMnYgCEta-akT6iay-90" value="" style="shape=waypoint;sketch=0;fillStyle=solid;size=6;pointerEvents=1;points=[];fillColor=none;resizable=0;rotatable=0;perimeter=centerPerimeter;snapToPoint=1;" vertex="1" parent="rWxFMnYgCEta-akT6iay-87">
          <mxGeometry x="20" width="20" height="20" as="geometry" />
        </mxCell>
        <mxCell id="rWxFMnYgCEta-akT6iay-92" value="" style="html=1;whiteSpace=wrap;aspect=fixed;shape=isoRectangle;" vertex="1" parent="1">
          <mxGeometry x="123.66999999999999" y="465" width="100" height="60" as="geometry" />
        </mxCell>
        <mxCell id="rWxFMnYgCEta-akT6iay-26" value="&lt;span style=&quot;font-size: 6px;&quot;&gt;finished parsing&lt;/span&gt;&lt;div&gt;&lt;span style=&quot;font-size: 6px;&quot;&gt;streamed data&lt;/span&gt;&lt;/div&gt;" style="html=1;whiteSpace=wrap;aspect=fixed;shape=isoRectangle;" vertex="1" parent="1">
          <mxGeometry x="131.67" y="470" width="83.33" height="50" as="geometry" />
        </mxCell>
        <mxCell id="rWxFMnYgCEta-akT6iay-93" value="" style="shape=image;verticalLabelPosition=bottom;labelBackgroundColor=default;verticalAlign=top;aspect=fixed;imageAspect=0;image=data:image/png,iVBORw0KGgoAAAANSUhEUgAAA+UAAAHnCAYAAADelPyoAAAAAXNSR0IArs4c6QAAAARnQU1BAACxjwv8YQUAAAAJcEhZcwAADsMAAA7DAcdvqGQAAP+lSURBVHhe7J0JvFdDG8cntNhCq6VIKKlkS7IlSlmKSsousi8viZC1xZqlFCJERbQRUpFoRQtKCyJLRaVSUVKc93yfe+Z27ul/txa3e/t9P59z7//M2WbmzDlnfjPPPFMoCHFCCCGEEEIIIYT4z9ku+i+EEEIIIYQQQoj/GIlyIYQQQgghhBAij5AoF0IIIYQQQggh8giJciGEEEIIIYQQIo+QKBdCCCGEEEIIIfIIiXIhhBBCCCGEECKPkCgXQgghhBBCCCHyCIlyIYQQQgghhBAij5AoF0IIIYQQQggh8giJciGEEEIIIYQQIo+QKBdCCCGEEEIIIfIIiXIhhBBCCCGEECKPkCgXQgghhBBCCCHyCIlyIYQQQgghhBAij5AoF0IIIYQQQggh8ohCQUj0O98wb9489+OPPzqivs8++7j9998/2lKw+fLLL9348eNd48aNXbly5aJQIYQQQgghhBD5lXzTU44A79mzp6tcubIrX768O/74490JJ5zgKlasaMujjz7q/v3332jvgsno0aPddddd577++usoRAghhBBCCCFEfibfiPLHHnvMXX311W7RokXupptusvWuXbta2B9//OFuu+02d/fdd0d7r+fOO+90pUqVcj/99FMUsmV58cUX7XoffvhhFCJywrXXXmv5tmLFiihECCGEEEIIIQo++UKUr1mzxj388MNut912czNnznRPPPGEa9OmjbvxxhvdM88846ZNm+ZKly5t4YsXL46OSuPPP/90S5Ys+c960f/66y+73tq1a6MQkRNoWCHf8uFoCiGEEEIIIYTYaLa/LyT6vdWycOFC16lTJ3faaae51q1bR6Hr2WWXXayXdd26de6oo45ye+65p/v444/dF1984UaNGuW+/fZbd8ghh7iff/7ZzZ49285XoUKF6GhnvbPDhw93r732mhsxYoT76quv3I477mjnicNxH3zwgW3bfffdTUiOHTvWtn3//ffus88+c+PGjXNTpkwxk/rly5fb9b777jtXqVIl2y8zsAB4+eWX3ZtvvmnnRJxipr/dduvbTT755BOL38UXX+z22GMP98ILL7ghQ4ZYOsuWLetKlCgR7ZkRzN3feOMNN3jwYPfRRx9Zw8Vee+3ldtppp2iPNDj/559/bkME4JtvvrE0HXDAAa5QoUIWRl6999577tVXX03PK87D9VNBvrz00kvu7bffdp9++qnlHdf25yM/aVThXPgJqFatmh1Dvi1dutTywMP9HTZsmOvTp49ZIpC/xG377beP9kiDbeQ59wA4P/H060IIIYQQQgix1RCKv62e33//ne7ToEqVKsHff/8dhWZNrVq17JhUyzHHHBPtFQShUAxKly5t4cWKFQtCsR2EgtHWr7jiimivNEIxauE9e/YMOnfuHJQsWdLWn3jiiSAUyvY71RIK6OgMqXn66aeDUKxucNyRRx4ZLFy4MNorsOsQftVVVwU777zzBvs/8MAD0Z7rufXWW9O377bbbunXKV68eBAK9GivNM4880zbPmvWrKBJkybpx61Zs8a2h6I9Q15xPp9XxCnOv//+G9x2223Bdtttl34evzRq1ChYtWqV7VepUqUNtvulYcOGtg9MnTo1CAW6he+0007p6Q8FvsUrzqGHHhpUrlzZ7u3JJ59s+5UtWzbaKoQQQgghhBBbD/lClEPjxo1NXNWuXdtE8dixY008Ll26NNojI7NnzzYh17JlSzvunXfesXUWtnmOPvroYNdddzXBjZCExYsXB82aNbPjPvvsMwsDL8oRfIhXzt21a9fgq6++Cn744Qc79+233277dO/ePf16X375ZXSGDRk3bpztv//++wdDhgwJli1bFvz888/pIv/yyy+P9lwvyosUKWK/2Y/9Bw0aZMKfbd999120dxBMmjTJwhC38+fPj0IDE+M0KNSsWTMKSQNRXrhwYYsLYvmWW24Jnn/++WDdunW2/aijjjIxP3z48PS8WrRoUbqAnzJlioXBSy+9ZGFc48MPP7SGla+//jpdJD/yyCO234wZMyyPzjjjDAv/+OOP0/Pt22+/tX1WrFgRlClTxhpMuI/E559//glGjRoV7LnnnkGpUqXs/B5EOY0H5Mlhhx0W3HnnnUG/fv2irUIIIYQQQgix9ZBvRDni75xzzknZ84qAvOGGG4IFCxZEe6/nxhtvtH3mzp0bhWSkR48eJmqTfPDBB3bcU089FYWsF+W77LKLiclUcD72QbjmBIQw+yeFO6L3uOOOM/G/du1aC/OiHJGZ5Nlnn7VtXbp0iULSBC/xRwwnadq0qe3vBTf4uCCykxYJxIeGhsGDB0ch6xk5cqQdR48/sC/3hB7tJUuWWJiH69FrXa1atSgkjYsuusjOERfXHgQ122iMSeK39enTJwpJE+WEXXfddSbehRBCCCGEEGJrJd94X8eR24ABA9yvv/7qBg4c6EKx6e666y53ySWXmDM31o8++mj7nRvw+h0KVBtnPXXqVBvb3Lt3b9exY0fbzjjmJM2bN7cx6psDxnEfdNBBLhSSUUgajLlmfPqqVavcDjvsEIWmUadOnejXeo499lj7z7h3D3G8/vrrbSw1Y6wnTJhgY9YfeeQRG8sNoYC2/3HwWF+4cOFoLQ3iw3RsoWDPNq+WLVtm49FPOeWUDca5M/6bezh9+vQoJHu4DjAnPePS44sfy45PgDiMxW/fvn2GMflCCCGEEEIIsbWR7xQL4rxZs2YmNhGDiMIffvjBnJ/NmzfP9evXL9ozZ+D4rGbNmq5MmTLuyCOPdA0bNnStWrUyp3CZUaNGjejXpoOzOByf5YakYzPwIjqIeS9HJCOwcVh34IEHuuOOO85EdYcOHVyxYsWivTYks/ThQA1Hesm8mj9/frRHGqQJcpuuzFi5cqX9P/PMM90xxxyTYalXr55t+/333+2/hzhurusLIYQQQgghxJYiX4jyOXPmuOeee848aKeCnuTLLrvMftNDm1MQcgg9BDjzi0+cONF6lBGVr7zySrTXhiR7rjcFPJfTs7wl6NGjh3vwwQfdCSecYF7Lv/zyS7dgwQLzWk4vdmakSh9xJK8Q4HhTj+cV63G8V/fNlS6868Po0aPNs32q5cknn7R9PJvzHgkhhBBCCCHEliJfiPJffvnFXXXVVWaOnBlesCen5vJTbzHXeZLx48ebufttt91mPb70vGLqvfPOO9t86BtDVtdLRfXq1c2Um+nAkhCnKlWquL///jsKyR3e7Jup3phODhN5eo8x6c5t+pimbfXq1a5du3bu0ksvzTKvmK5t7733NhN55m1PctJJJ7n69etHa2lklW/0zgPTxh1xxBEZFtIzd+5c2y6EEEIIIYQQ+Y18IcqPP/54E2BDhw5111xzjc2lvXbtWtvG+Gbm90awFy1a1MaYx9l3333t/+uvv57BtBv8eGfEeVz4IvAfeOCBaC13+OsNGjQo5Xj0JG3atLH/5557bnrDAuO86eGmt545w4sUKWLhuaVkyZL2nznbPeQbvcr0mucGfy7GpcfzigaFhx56KFpLA/P6m266yXrKzzvvvPQGBwQ6Y/iJD/czTvw+JeEcxYsXd23bts1gLYGlAxYS55xzzhazNhBCCCGEEEKILYq5e8sH4EH84IMPNq/afol7Yscjeiov6qEgtGm82CcU4UG5cuWCevXq2Ta8hNetW9e24RE8FIrBgQceaOuhSLb/999/v+0L3vs6XsgzY/Xq1cF+++1n+3Fd5tZmirGsuPnmm21/FqYq83OJ77XXXhmmb/Pe1/EMn4Tp4dgWCtcoJAgmT56cfq5DDjnEpjRjbnGmCiMPCGf6N4/3vk6+JCGsTp06tp28Yg71ZF517Ngx2jsw7+1nnXWWhRcqVMimLStatKitV69ePfjtt9+iPdOYOXNmelzJA+4T09J53n///fS5ySkHhx9+uE1lx3r8HgHe1zleCCGEEEIIIbZ2tr8vJBQ2Wz301F5xxRXmeTwUXLZUqlTJnJfR24z3dZyPJQlFqHlLp1ecscn0yIZC3NWuXdtMpumFxfs5jtIwxcbJWSh+3Y033mjHhuLPnKQBPcChyHYnnnhipk7EGMvMOXE0xthqPIYTx6S5dpwGDRq4Ro0a2f44sqtWrZp5Og/Fv13PQxxJM5YDu+++exSaBibpXBPT8AoVKlgYJuQtWrSw8PBe27npVWYMOCbh9MJXrVrVheLW9g9FsTm983kTx+cVeeHz6rDDDrNed5zukVesx/OKaxNX0uWdw9Hb/dhjj9n+cYgbTuhIF/EhDYx796brmMrTKx6Ke7s++3EfyaOWLVvaPh7iRp6nKg9CCCGEEEIIsTVRCGUe/RZCCCGEEEIIIcR/iCZxFkIIIYQQQggh8giJciGEEEIIIYQQIo+QKBdCCCGEEEIIIfIIiXIhhBBCCCGEECKPkCgXQgghhBBCCCHyCIlyIYQQQgghhBAij5AoF0IIIYQQQggh8giJ8jxi5MiR7n//+1+0JoQQQgghhBBiW6RAiPJChQrZsjXy66+/umbNmkVrzq1bt84NGTLEPf/8827ChAlu0KBBbu3atdFW5y6//HI3e/bsaE0IIYQQQgghREGmUBAS/c63eEG+NSZl7ty57sADD3T//POPrSPQZ8yY4apXr+6+/vpr9/fff7uDDjrIvfXWW2677bZz++yzjxs4cKCrXbu27S+EEEIIIYQQouCSr3rKEd1bSnhvynmzOrZo0aJup512st/ff/+9e/vtt62H/IorrnAnnXSSmzhxohs7dqybOnWq7RPfXwghhBBCCCFEwSZfiPIffvjB1a9f3+24446ucOHCrlKlSu6DDz6Itq4HU/EqVaq4ZcuWRSHOtWzZ0rVu3Tpac27x4sWuWrVq7o8//nC//fab9Vwjgrfffnu37777ujfeeMP2e+WVV9ypp56aQXAvWbLEHXLIIdb7ze8mTZpYnHbYYQd3wAEHuGHDhkV7rme33XZzbdu2td+rVq2yfXfZZRdbhz322MN98cUX7uCDD7b1a6+91u211172WwghhBBCCCFEwSZfiHJEbenSpd38+fPdypUr3XXXXecuvfTSDXqo99xzT7fzzju7d955x9YRzjhUQ2gjiAEz8XLlypkw7tixo1u+fLn77rvvbHuXLl1cq1atTLCffvrpbsyYMdaT7UGolypVyu2///7u8ccfd3/++af76aef7H/79u1d06ZN3Zo1a6K90yA+9957r/1G0FesWNGddtppbvDgwe7nn392c+bMcfvtt1+6UCetZcqUsd9CCCGEEEIIIQo2+UKU9+3b1wQxvcoIYIQxAj0pgOHcc88152nw3nvvmbiuWbOmGzVqlIWxjX3gkUcesd5txDyivGTJkvZ/4cKFdo0WLVq4nj172r40ADz33HPu+uuvt3WuzXhwhD/O27yYL1KkiG1PBWPGEfqNGjVy33zzjRs3bpw74ogjLI6+0UAIIYQQQgghxLZDvhDlo0ePdocffrj1JuMgrVu3btGWDWnevLkbMWKECeShQ4e6s88+28zM+f3777/b+G3W4fPPP3fHH3+8nRezd9+j7aFHnl52zOER0CtWrEg/9pZbbrFGgqOOOsrtuuuurmzZshscn4oSJUq4m266yd1+++3uvPPOs95yzPPpORdCCCGEEEIIsW2x1YtyeqgvvvhiE8iYrv/yyy+ud+/e0dYNwbQc4Y6Z+kcffeQaNGjgzjrrLPfuu++aMK9Tp46Jabj66qtdw4YNTazTO07Pepyjjz7axp/TS08vOfszph0wp6fXnThhAo/H9K5du7rPPvvMtqeCxgXSEocx5zVq1LDrCyGEEEIIIYTYtsgXPeWYimMWjjM2zNcfeuihaEtqME+/8847TVTTi12+fHm39957uw4dOphJuofzIrJxvoYpOmPMk9AY8NRTT5mgx2O65/zzz3fnnHOO9aIXL17cnLMRv2LFikV7bAiNBYj3p59+2nrymZ/8ww8/tMYAHNkJIYQQQgghhNi22OpFOXOQd+/e3bVp08YEb4UKFUzcMp83PdSpwISdcd5+7DggohHejRs3jkKce+yxx1yPHj3svDhXw4wdL+j0fnsQ8QjvM88808aeeziWceAchwd2xoa3a9fOer0zg3HqQ4YMcS+++KJ5fX/22WdN6CP6Dz300GgvIYQQQgghhBDbCoWCpAvzrRSiiQhGAOMwbXPBeVevXm3zg9PTneSff/4xj+mvv/66O+aYY6LQ9bCdHnfiRQNCTqF3HJN6GhyEEEIIIYQQQmyb5AvzdUDwMr3Y5hTkwHn9POVx/v33XxPbDzzwgPXK16pVK9qSEY7j+NwIcqhcuXKGXnshhBBCCCGEENse+aan/L8Gz+yYpB9wwAE2npw5xoUQQgghhBBCiM2JRHkmkC2MLWec+ebunRdCCCGEEEIIIUCiXAghhBBCCCGEyCPUBSyEEEIIIYQQQuQRBU6UT5s2zZ166qluxowZUYgQQgghhBBCCLF1UuBEOXOKv//+++7333+PQoQQQgghhBBCiK0Tma8LIYQQQgghhBB5hES5EEIIIYQQQgiRR0iUCyGEEEIIIYQQeYREuRBCCCGEEEIIkUdIlAshhBBCCCGEEHmERLkQQgghhBCiwLBy5Uq3ePFit3bt2ihEiK0biXIhhBBCCCFywbx589xTTz3lLr74YteoUSN3/vnnu+eee84tXLgw2mM9L7/8sjvggAPc5MmTo5D/nk8++cTi0K9fvyikYDJx4kRXq1YtV7x4cVemTBlXrFgxN3fuXDdmzBh30UUXuVdffTXaM3cUKlTIlpxy1VVXuSpVqkRrQmSPRLkQQgghhBA5pEuXLiZwb7zxRtenTx/3wQcfuNdee82E2H777WdhcVasWOG+//5799dff0Uh/z1cmzgQl4LK33//bQ0ks2bNcg888IDr27eve/rpp93uu+9uaWd96tSp0d5bll9//dUaA4TIKRLlQgghhBBC5IAnn3zS3Xrrra5kyZLWA/7HH3+41atXu99//93E+K677uouueQS99lnn0VHiP+KcePGuSVLlrh77rnH3XHHHe6CCy6whpI99tjDNWjQwH344Yfu6quvjvYWYutColwIIYQQQohsoPcTsVeiRAk3ZcoUM13feeedbdtuu+3mLrzwQjd48GAXBIH11GbGmjVr3G+//WY9u9nx559/2r7ZjY3mmjQQIEr//fffKHTT4fqMzd4SvfzEedmyZTb+m99x1q1bZ2lZtWpVFJI93gqgXLly9j/OXnvt5erWresOPPDAKCQjpI985t7kFp8Orp9MhxA5RaJcCCGEEEKIbHjrrbdMvLVr185EXipOOOEEd+qpp7rp06dvINB++eUXd+WVV9p459KlS5u4R9gjBpO8//77rl69etbzzr4s11577QZj1rnGCy+8YGKTfUuVKmWilN58evCzY86cOe7oo4+2hd+e/v37u8MPP9zOydhs/pM2xmbHadOmjV0bEZ2EnmrOG6d+/fquefPmbsCAAXYceUB+1KlTx0zLyd9HH33Urkla2Na4ceMsTcF/+OEHO5fvBf/f//5n6yxcCz799FNbx4Q9DuP8zz777PR8xtSdsefxvMgM8h4/AgcffLClg4aZVHkkRE6QKBdCCCGEECIbvEl6ixYt7H9mjBgxwn333XcbOAZDkHMOBPP999/vDjnkEDN5P+ecc6I90kD8N2zY0P3000/ukUcesX0wiX/ppZfcSSedlGFcOKbarVu3tt5xGgs47z777GPj3gnPCuJSu3ZtE/qY4iNaATPw8847z2233Xaue/fudv3OnTvbuGxE9Y8//mj7AceS1lQsWLDABHMc0kT+kJ7jjz/ePfjggyaCcURH2rA2eOihh8xxHtfE7Pztt992Z5xxRqYWADvuuKMdW61aNVuvWrWqrbMcccQRFobYJ57xvCP9J554ov0nH0nnTTfd5N5991133HHHuZ9//jnaMzWPP/64mccvX77cGgKwjqAxgXtHo4wQuSIoYHz00Uc0SwbhCyUKEUIIIYQQYtMIBanVMUOBF4XkjG7dutlxjRo1CtatWxeFBsHatWuDUDjatm+++cbCQuEZVKlSJdh7772DJUuWWJhn0KBBtm+PHj1sfd68ecEOO+wQ1KxZM/jzzz8tDNasWROcddZZQaFChYI5c+ZY2OjRo+3Yp59+2tZDoRuEYjaoUaNGMH/+fAvztGnTxvZdtGhRFJLGlClTglDEB3379o1CgiAUz7YvaUlC2kqXLh2tpVGpUiXb//33349C0njqqacsfKeddgpCIR+FpnHppZfatokTJ0YhqRkyZIjt179//yhkPV4f+LyD008/3fJg7ty5UUgan376qeVr27ZtoxAzebDFQxnYddddg/333z/47bffotA0/H0qWrRoFCJE9qinXAghhBBCiGwI6832nx7kjYFe1e233z5acy4UftYzDF9++aX9x3M4SyhEzSQ6TtOmTd2ee+7pQtFn66EINbPxG264wYVi1sKgSJEiZgL+yiuv2JRgSTC5DkW7/R41apTbe++97bcHE27Aozxjyj30Ok+YMMHM0jeFChUquFNOOSVaSwMTcqBnHA/2cUg3fPHFF/Z/c0Dv9siRI12TJk0sPnEwua9Zs2Z6PqciFPk2Fh7rB5z+xeGc3upAiJwiUS6EEEIIIUQ2MMYZcOq1MTDmOIkX3t6RG+bdgHD246Ljy9KlS9PNx/1Y9Bo1atj/OAcddJAJfkzZ4zz77LPWOFC5cmUbc96zZ89oy3oQmvvvv7+ZZDPWmjgy5/a5557rhg8fHu218ZAPSdN+nw+MIU/iGwmyc3aXGxjfT4PGsGHDUubztGnTLJ99Q0wSfw8OO+ww+x+HtB155JHRmhA5Q6JcCCGEEEKIbKD3FBhznBX33nuvjYHOiYhMilPfC8+1WrZsucHCeHRENfhe93/++cf+5wTE5i233GI98wjKDh06uK+//jramkbZsmWtt37gwIGubdu25mgNx3YI2NNOO829+uqr0Z7rSSVec+MFPpkPcbLatrH4fGZcf6p8Zmw5nvYzw8cps7xP5fhOiKyQKBdCCCGEECIbENqIMRx64TgsFfPnzzfnbDhFK1y4cBSac3BSBgcccIDr1KlThqVjx46uffv21oMNvhcck/IkEydONPGNuI7DsTiBI270xjMtGz3jcQFN2hDZzZo1s7T07t3b5vimd5hebsziPZjKA/O0x+H4rDym5zVYAmDaTw99Mp9ZyOe777470wYBf5/Gjx9v/+OQl6nChcgKiXIhhBBCCCGyAZNvpt1iuiy8kM+YMSPakgbheFJH1N5+++1RaO5AaDOmGeH71VdfRaFp4IWcseN+DnSuhbk3IjvuEZ15xenhxnO6N/32kAYPvfHXX3+9TeHVq1evKNS5Ro0a2fRgSc/pCHB6570QB0y94emnn87QW4439+y8l+clNEowrp7ef8aHx2HsOvPP01iRGcccc4yN72c4QPw+IcjxKM+c9kLkBolyIYQQQgghckDXrl1tujCmDWMKLnpMmVasUqVKNo6bqb2Yioz5xzcWerARd7Vq1TJTagQ247lxeMY1MK0GBHm3bt1MkBPOVFz0bh966KHWe84c4pnNp+6hVxhHb7fddptNYQb0ENOwgIBnujKuj3ivXr26jae/8cYbbT+gkQJz9/vuu8/iSzxxCIeJPfOlb80wpRlTmDGvPAKddDJV27HHHmv+A5heLjMwf3/mmWfMYRz5XbduXZsqj/uAdYEf6iBETtk+fIjui34XCHgxYWZz2WWXuX333TcKFUIIIYQQYtOgpxhxzDzWeE9HyNIzzVzZJ598solkTMTjZs9Llixxa9asMfN3eqDjMG82Qhev477eSg8sYhhHbIj8zz//3LygX3755dajHffKzrhwxnlzjdmzZ5ujOMQz49pvvvnm9HhwPHOK16tXL713G4oWLWrjqhGXgKDG+/mZZ55p46InT55sC73epJlGCdLpoeee/Fi1apWNTacezvmpi2Pqjuj1nt7h22+/NeGKEI5DIwSm9ghiLAXiEHd6nvHYzrGZkSovPT79nMOnHyd26AXyiLnKp0yZYs7zmjdvbvGPe4H3Aj0umw4++GBLB+emt5zzc+3+/fvbOWk0Sc5BL0RmFApSeWbIx3z88cfupJNOshZMXh5CCCGEEEIIIcTWiszXhRBCCCGEEEKIPEKiXAghhBBCCCGEyCMkyoUQQgghhBBCiDxColwIIYQQQgghhMgjJMqFEEIIIYQQQog8QqJcCCGEEEIIIYTIIyTKhRBCCCGEEEKIPEKiXAghhBBCCCGEyCMkyoUQQgghhNgG+fvvv92PP/7o1q5dG4WkZtKkSe7nn3+O1jYfH3zwgfvzzz+jNefWrVvngiCI1pwbN26cW7JkSbSWORwzfPhw1717d/f6669HoZlTqFAhWzzJ9bziww8/dL///nu0tp7vvvvOffnll9GaKIhIlAshhBBCCLGJIFqnTp0arW0aCxcudBMnTozWthzffPONq1ChgpszZ46t//PPPyaUV69ebeueW2+91b377rvR2uajUaNGbsGCBdGac7Vq1cogwi+//PIcidF77rnHtWrVys2aNctNnjw5Cs1/nHPOOW727NnR2npeffVV16lTp2ht05g7d64E/laIRLkQQgghhBCbyNChQ91tt90WrW0aY8aMcVdeeWW0tuU44IAD3JQpU0yYAz3m9evXt0aB/4LChQu7okWLugEDBrizzjrLrVy50rVv397dcMMNGbZnxxtvvOG6devmevTo4R599NEoVKTitddec/fff3+0JrYWJMqFEEIIIYTIBnqRX3jhBXfZZZe5Sy+91D3xxBPur7/+sm1dunRxw4YNc99//73r0KGDLfPnz7dt3377rWvTpo278MIL3TXXXGMm2Z6vvvrK9erVy8zI+/bt60aNGuWeeeYZE6kIY38uerRh5syZ7n//+5+d68Ybb7Tjk3z88cd2vAdzaM6BmbqH3nDi+++//7p33nnHwrh2586d7XfXrl3tGL8NSOvTTz9t17799tutxzUz3n//fXfVVVfZvvSy//TTT9GWjFSuXNntsssurmnTpu68886zNG+33XbuoYcesu00Guy+++72OxX0qhNPjnv77bft96BBg2zbihUrzJydOCDyc2N58Omnn1r+cixif/ny5RZOvpK/Hu4t1/TlABC9NHQAvd7t2rVzF1xwgZWRpUuXWjhwz7n3F110keVRToYHkIYrrrjCtW7d2u4hLFu2zOLA/zh9+vRx48ePj9bS4P5iIo9FAcewcB/5v2bNmmivtGPfeuutaC0tnx988EEbJkCZGTx4sFkxYJ3AcAGeDbFpSJQLIYQQQgiRDQ888IAJtBNOOMGddNJJ1juLMAFEGeOhESz8ZuH34sWLXc2aNW2f008/3e27777utNNOc9OnT7cwRPXDDz/sqlev7nr37u1+/fVXE2v0WCOA4udCeNauXdvtsccedi7E7HHHHWfjjeMwNhpByTHw3nvvufvuu8/179/f1uHuu+92q1atsuXee+81c3Xi74UZ/7lufKx5x44drVHgiCOOMGFKXJJm7oCZe4sWLVylSpUsrQja448/PuW4dcaqlyhRwm2//fauX79+bsSIERbm90UYVq1a1X6nwucR/znGx5l4cZ8QjIcddpjbeeedXb169UxsZgem4ieffLIrVqyYHYvIJ5/Jq0WLFmUwI3/ppZcsbxG6wLWvu+46uzeY0ZNX3IeGDRu6zz//3M7jx9DTsMO5qlSpYg0PmPJzjcxAYNMYQkMGecb+lBmOHThwoHvllVeiPZ2JfywtSpYsGYWk4fMnXk7JG46lUQYof5SfuNXHkCFD3NixY61s0cDB9ooVK9o9vuOOO6yhSmwiYSEuUHz00Ud4hwjGjRsXhQghhBBCCLFpNG7cOLj//vujtSD45ZdfglCARmtB0L179+CUU06J1tJYsGBBEAqmaC2NUNAHobi336+99prVW0ePHm3rnlDwB9WqVYvW0qCOW7p06SAUUlFIEAwfPjyYN29etJZGKK6DvfbaK70uHArkIBSKQSgIbf3nn38OQtEYhOIwCEWmXX/JkiW2LRSztj537lxb99SpUycIRVq0FgSh0A5CwReEgj8KWc/UqVMz1MOJ73bbbReEgj4KSQ3xjv/PDfvtt18wcuTIaC0I+vfvHxx00EEZ8urll18OQkEbhILU0sjiia8fcsghQa9evew3rFmzJjj44IODfv362T0vUqRI8Ntvv9m2qlWrWt5effXVtj5ixIigRo0a9vvCCy8MbrrpJvsN//zzTxCKfIvb/Pnzg8KFCwfffvtttDUIZs2aZXGYOHFiFLKeDh06bJCenj17ppeRZ599NgjFvaUNnnzyyaB+/fr2O0nnzp2DJk2aRGtphMI6CIW1/SYfTzvttGD//fcPZs+ebWENGzYMevfuHSxcuNDiTVw9lJWiRYsGP/74YxQiNgb1lAshhBBCCJEN9AbSqx2KNheKb+s59mOxM2PPPfc0096LL77Yel/p5cR8nZ5Kz4EHHmg979lx9NFH2/X23ntvd+yxx7pmzZqZiXwowKM90qDXuXnz5mZiTK9nKPitRxYTeHru6fU888wz3U477RQdkTPiaS1evLjFI5Wn8FDAWq8ucaCHnPSR3niaU0G84/83hS+++MIdeeSRGcajk2dff/11yt59D73IWAOwrycU4WbtgBM/7ie93ZjKY6HAvaVHGTP/UFdZr/q5555rx02bNs1MzOklZ8G6AUsIeszZVqpUKcsbD/lGD3hm0OseTw/xwNKCOGMeT1mgbBGP5557zl1//fXRntmDZQNWCVhL4Bvh7LPPtoV0co85L2P+sfDg3hNXD+WCMkiei41HolwIIYQQQohsQJT88ssvNq4as3XEXd26dU3IeBBEcRA6iCNEGebvjLU+9dRTo61pYD6ciuS5dtxxRxvrjMjGjBnBi1M0xqInQRgiyjEzR8xj4owpOePIEY6IsKxIXhuSU4Yx9jsVjI9+8803zTybsemINRy2/ZeQV/Ex0oCpNoI/q7j47amO9Y0YPm+9eGVIQpkyZcxcnXT7vEVAI8QZKuAXzMwZa+/jF89nfnOdzEgVJ+JKnDGXJ78R4xMmTDAz+DPOOCPac0OS9/fQQw81U3ccDCLEGzdunC7KWSjnlKFU8YZ4/oiNQ6JcCCGEEEKIbKCnHFFLr/b5559vHqx/++23dCGFYKEnNO70il5XxkTjxOyYY46xXtecTJvGuTh3XIgxDzeOx+hdRTTdfPPNJsxTOQhjvDc9qDjwojEBEFkvvviiTYdFI0EqdthhB1vi05TlFtKMIGShtxpRTlw2FRyl5dRZGw0Q5JfvveWe4JWdBpGsRDkNDQ0aNLB9fWMLvcPcdwQ24JSOMeSMPSdPgf84dCtfvrw5pwOu9dFHH7lq1apZrzbCFwd23FemfsOKgTHpHhp7shpTznh774uAuD322GPmKd83jlx77bUm+rkGvzOzOKBs0bgUF9Y0uNDYgH8BLCC8RQDWFTij8w0NWAzQ2EBcPYxHZ5w8+4tNILwhBQqNKRdCCCGEEJuboUOHBsWLFw+OPvrooF69ekGZMmWC22+/Pdoa2DhhxnwzFjcUo0EofoNQ1Nh+jCU++eSTbdxvKGyCTp062TGMKfdjkOMwZptx0uXKlbNzMeacMeChCA9CwWTjhQ8//PAgFIA2RjwVoWgPQrEV/Prrr7bO8aEgs7HOnuSYcrj44ouDXXfd1a7rx9AzpvyZZ56x3x7iTfyTMGaa63AM8eV/iRIlgk8++STaY+MIRWZ6viVJjimHUGBaOhh3TT4ynpz7AaQ5LoPi63PmzLH7tM8++9ixnKN9+/bp47WB+8+4fcaJw7Rp0+z4hx9+2NZh5cqVQd26dYN9993X9ue+tWzZMv0YxqiTTwceeGBQqVKloHnz5kGpUqUyHVN+4oknWnyqV68ehMLZzhsf2w2Ui2LFiqWPeU8F49h33313u+4RRxwRfP/99xYeCv4N0sA4c8aLUx49w4YNs/tJnBlrz7kGDRoUbRUbSyH+hDegwICZDi2YjH1Qi40QQgghhNhcML52xowZ1oPNWFo8UMdhWirGCwO9ipj0MjUXvdNUuTElx+yd8dWYC9PDiHdyeieT/PHHH9arTi8vPc6M5eUc9JYyNhyT5VCYW+97Kjie+NB766EHnOM4F3DuefPmuVC0pvescg2m9OJYvGuHgtcsADCzDwWq7QOca7fddktpfs856WXF5Jk4cjz7boqJM2b6jJumRzoJ1yM/6QWOw1RejOHGYz1jspMm+JlBHnAcXszxwM747zjkDT3dZcuWtXX2Z9o3zNjjcSCc8kL6MXMnP+NQnjB7p2eaHnWsHjhHfOw4sB+946QDawHOizUEVg1xMJHnvjB1X1bQW894dHrZ6bXneqnSQNmlHCXLJ+X/s88+s3LM8XiqF5uGRLkQQgghhBBiqwXxR4MGYrNGjRpRqIiD0CZvMLVXHuU/NKZcCCGEEEIIsdVCjy49yhKbqWnSpIlZbeC7QHmUP5EoF0IIIYQQQoh8Ck4HMSfHGZ7In0iUCyGEEEIIIUQ+Bc/u8bnDRf5DolwIIYQQQgghhMgjJMqFEEIIIYTYBPCMzZzUfs5ykTl4GMcb/ZZi/Pjx5h19awRv9wsXLsww/3xuwJE1nthFwUOiXAghhBBCiE2Aqc3q1q1rgmtrYu3atW7ChAk2fdfWwuuvv+5uvfXWaG3zg9MzpnTbGlm0aJFNfzZmzJgoJHeceeaZ6VPuiYKFRLkQQgghhBAFEHpVmSJ4a+053tYoUaKEWVQcddRRUYgQaWx/X0j0u0Dw448/ut69e7vLLrvMJukXIqcsXbrUWrgLFSrkihUrFoUKIYQQQqQxa9Ys1717dzd06FC3ZMkSc661/fbbmznyQw89ZPVPeoJfe+01t2DBAlelShW3ww47REc79+GHH7rnn3/evfvuu3auqlWruqJFi9q20aNHu19++cWVLl3aDRkyxBUpUsSVLFnS5p/u0aOHGzRokBs7dqzbZZdd3D777GPHAMK7Z8+ern///m7GjBlu//33d7vuuqtdi+t88MEHdh56WFeuXGnbgyAwU+inn37atu+0007p9WZ61zkfcf/hhx/c8OHDzZEYc4UPHjzYvfzyy27kyJHu119/tfgzXVkS9h04cKB78cUX7Tq77bab23vvvW0bPfffffedTd315JNPuvfff9/iW65cOdsO5OeAAQPseHq9y5cv7/bYY49oq3Pz5s2z+0CeUPevVKlSej4++uijrlmzZjZFGEyfPt3izb1iH9LUrVs39+abb5rH8v3228/tvvvuti892GyvUKGCrQPzfi9fvtziTz2RfEZcE/e3337bFS9e3OJH/j7++ON2H7mHZcuWjc6wHsoK5yPfyPOJEye6b775xi1evNjihGDnXtGbngrKGJYA7PfKK6+4OXPmuMqVK2eot3I+ygvpw4LjoIMOsuuSj9xL8p26LnAfv/76a9tH5C3qKS9A8OK64447XL9+/aKQ3PHtt9/aC4SXTE544YUXbP+t1UQop/CyrlWrlr0E+VDxYv7kk0/cpEmTXNOmTd2zzz4b7Zk7eOH5l15O4NqXXnpptCaEEEKIrQkE2GGHHWaCEqHdrl07d+6550Zb0zj77LPdzJkzTQS1bdvWtWjRItqSVm9q3ry5idi99trLvfXWW65+/fomkIH6W8eOHU1gdurUycQhIhoRhXhDFDJm/eSTTzZxDphDV69e3QQsIp5zsj/hc+fOdVOnTrX9+P/pp5+677//3tbpk2vUqJHbeeedbTnnnHPcgw8+aNsQxNddd5278cYb3QknnGDiDzp06OBuv/12E9iI0gceeMBdfvnlti0O6SGdbdq0MXHOGHLqWeSf5/PPP3eXXHKJjcUnnrVr17aGDuD69erVcw8//LCJU9JCvjNWHL744gtrMKCuRpqfeuopiyfnSoLoZFgB8UX4z58/3/KHxg8aAbj24YcfbvcUaFBBdMehgeK9996z39yTa6+91p1++uluxYoVJtZPPPFES8v5559vY8YRufSEpxo3T96Qt1wfuF8XXHCB5TVwDMfSkJEZ5Dn3v3DhwtYAcdJJJ1k+A40wlAcajKijexHPdWlouPfee90TTzxh+1ImaLzIrAFA/MeEN6lA8dFHH/FmC8LCHIVsG4QPX1C0aFFLe/iyDP74449oS86ZNWuWHd+5c+coJGvCl6DtH74Uo5D8R/gSC6pWrRoUK1Ys6NKlSxB+MII33ngj+PXXX4Pw42Dpu+qqq6K9cwfHsuSU8KMYhB/zaE0IIYQQWxOVK1cOQqEYrQXBvHnzglDoBD/++GPw+++/2zf/zTffjLYGwZgxYyyMOgVQv/j444/tN1B3Y3soFG09FFtBKByDULDaOoQi0OoncUIBGISC1363a9cuCAVpEApSW+f/mWeeGfTq1cvWQ0GbIQ5AXEMxG4RCPwoJgkmTJlk9ZNWqVcHKlSvtmHPPPdfWPccdd1zw7LPPRmtBEAra4Omnn47W1kO6d9llF8sXD2kIRav9DoVksO+++wZ//vmnrVMXu/jii4OzzjrL1snD/fbbL1i2bJmtQ8eOHS1dwP/WrVvbb+A8odBOz9vSpUsH77//ftC7d+8gFOPBqFGjLBwGDhwYVKpUya7peemll4KZM2fa71BwB1dffbX99jRu3Djo0KGD/abOS96EwtvW4ZZbbglKlixp+eo59dRTg9tuuy1aW08o2u346dOn2zr379BDDw3+/vtvW2f7GWecYWUhFdTxu3btGq0FwZw5c4IddtjB7h8ceeSRlr+e5cuXW374unoo5oMdd9wxGD16tOVDt27dLFzkPeopLyBgSkTL4j333GOtdrT0ieyh9RZTryuuuMKFL1VzoEHrLq2LderUsRbLu+66K9pbCCGEENsi1LHoAT3ttNOiEGcm5PS0xodLYubtOfroo+0/vZZALzqm1qFYc6EIdaeccoqFx3t4QwFovcIeTKvZr3Pnzu6aa66xc1DH88fQa0xvOz3zwH96pFP1YHvopaZHt2/fvu6GG26whaGfoQA360EPPf2hgIvW0pyMERaKZ4sL5tH0sCeh7oR5djxfqGPFLTkxl8Z8G7AqrFmzpvWIA1YBWBPcfffd6fGbPHlyek8554/fB85DPtBj7cHq8+abb7Z8is/fTY88wwG4Hr3bWJhi5p6bOb7pnceawcOx9EJjQeAhLKdO/+j1p9cbSHc8L1IRL2MHHHCAWXpi/s6wA6xXsfT0+da+fXs7t8+7448/3uq1lCmue/3111u4yHskygsAQRCYaQ0vfx40BCXr2cEDjIkV/7ODa/AhYfzTH3/8EYVuPJyDc2FGxbkzg23sg3DOLp6ck/TMnj07x15GfVrKlClj/+MwRogXX3yMUxzGinE9/7HNDZijkX4aBYQQQgiRP/BmwpkRH1/thbLnwgsvNLGI6XrDhg3N7DpJfNw0MP762GOPNVNpxFrr1q3N5NiDoM0uTkmIF/GsVq1a+oLJ8zPPPGNjoz2YfMfBdB2zaUzL2ca4d+qeiME4OYlTPJ8gnldsYyhhPH6IcEy1ISfnp+6IUKeDJS48GQKAqTqNBIzFpg6HKTrm/57kuZN1ylRxzyo92ZHbYzPb34fT4BHPOzrsMOH30FjAGHR8EdA4I7YOMt5VkS/5+OOPrfWW3l5awxiXjOMKP44oCa26tHIyhoSWTP7TYovITAXjcRjfQivgIYccYi3DjEVKvoSB8UOMTVq9erWNyTnyyCMzOMug5Y9rIYI5Fy18vBQZZxWHFyJjlWhgYB9eKhxD63FyGgnG9zRo0MA+ZKSHlj8+Fq1atcqyAYF9iB/cf//96eOqOAfQEMA6TjvijBgxwh1zzDGWD+xLvM444wwT6NmBGL/qqqssXaSfVmRaK2m1FkIIIcTWCQ7C/NhtD/UPxCOdFjkBh2aMGacHl/HHqcRX0hcNztro3WV8NU7kEKfU4zzUzxiL7YUjdTOEKA7cwF8jXh+i/kE49SvqJCwIbeoxOCjzJOPCGHrG0tMDS88945fJg2SPMHGiDurHaQPj0al75gTfU4zVgI8fYhprBeD8OJHznTpYiOKXBwdrHho/qGPR8EG9jQYEwNFZnz593HnnnefuvPNO99xzz9lvxqcDvd10mvhz0xiSX6Yg454eccQR9t/nG3VhNAIdTYDDu1dffdUaLMhj6r9i60CivACAIzLEo3cmQisqpOot58XFixfTJvZ/6aWXzHslL1VacJMg7jFX8q2KvMhoKcXph2+xjMNHAfOniy66yF5yiHNaeIFwBKifn5IPDV4zeZES57hDNcIxucF5BS99XrQ4sqNVj/j43mlemlwL5yWPPfaYnZOXL2ZbmGLxAckMGhD4wAEOQogTy5VXXmlhnJs4xxsfOD8CHHHN+fF+yYsfUc1HEG+gmcH5cAjDBwBRT4s0acLsiEYF/7ERQgghxNYH9Qwa6qkHUM9AHPIbE/OccOqpp5pDL+pR9N7i8Avhm5V1n3fqRn2F46gX4fXcH0NdhjoJcSFOOFRDtPs6IR0WWP3huBYHZdT7qHcgqhHJCGxM0qnDILjjnuKTIPYwf+YYzL6pu1B/inuCB+JAnZL/mIhzHRojcmoqzf40gHAtTP3pdKJO6Tt5OBcNHJirk2YctdHBFDdf973G3BsaBMhr6pA0RGAWT9wR5QhX6qXeDJ/4Yv5NfpDnWAIke6a3Ziij1M/JL8oLdXDq8jRQUC7IL8oAvemkm/JM55vYCgiFQoFiW3P0tnDhwqBw4cIZHF5A3bp1zcnGihUropA0nn/+ecufpNMQHEvgZIxtcUdv4Us9CD8YwZQpU6KQNJYuXRqUK1fO9o87egtfehaGMxQcx8Xp16+fbfPORzyh6A3CF3dQvnz5dMcb4UvS9mVbHJyShC+adOckf/31l+0XvuhtPc69994bXHPNNdFaambMmGHHd+rUKQpZD0442PbQQw9FIUFQr169YPfddzfnLHGmTp0ahB8ru6aHY1k8OG5hvWXLlhkcjADXZ5scvQkhhBBbLz/99FMQCpng/vvvD9555510B2tr1qwJXn311QyOdqlbEeYdgLHPyy+/bE7DcJhG+JAhQ6wuB9SnJk+ebL/jUMfAwRx1BRx6Ub+KO4zDGRvnJU4vvPCC1dHi/Pbbb8ETTzwR3HfffcGIESOi0LTzPvjgg+ZEDcdfvm4SCn6LNw7f4rCdejZx4ZhXXnnF0pQK9g3Fnu0XCsVg9uzZ0ZbAnKp9+OGH0Voa33zzje3vIe/eeustyyvqrN9++220JQ3ShJM50hyKywwO6QYNGhT88ssv0VpaPfO1114zp2iwaNGioEePHnYscYs7bYNQvNo1ye8vvvjCHNd5x2yLFy+268X57rvvguHDh0draVBvjjvS85Av5K13YkfdcPz48fbbw7Xi9zfOgAED0suLhzLknQXCzz//HDz55JPpecP9BMrWe++9Z789EyZMyJDvIu+QKM/nIBhJ76effhqFpMEDT/gzzzwThaRx1llnmYj3H4g4vKg5xotyXoh4AT322GNtPcmtt95q+6cS5XgYTdK8eXPzEJ/qBc7HguO8+OdFwvrdd99tL2/imxSyQBgeL/F+iud0XkqZfSBSkRtRzgt0u+22y9QjZvXq1c2DpodjWTx8mFjn5Z6EDwSNHxLlQgghhBBCbFvIfD0fEwpSM4Vm/AtjQ55//vn0Bc+SmERhEh7e5+gIZyZPmPjEPUR6kp4nMd3GJIox36nIylMlZj9JGHMUCmYbl0Xc4gvjq4D4AeZdjKHCRImxT4zZwrsmZjiYznt8GkPBbPNtYkLF+RmzjQkSc69vLjCZJ88Z/56MPwseS338U+G3pcpPxnCVKlUqWhNCCCGEEEJsK0iU52M++OAD8y7JOHHGxDAW2i+IWsQ400YwlsSDIzjEdlyoe/7888/oVxrsC+yfiszCAWGchCkkGPvOFByZLX6aB0Q40zfQ2NCrVy9z+oazil9++cXENtNweBgHNH/+fHN0gkMPPNAj3l977TXzbhofE74p+DThpTNV3Fl69Ohh+6Qiq/xE7DP+XgghhBBCCLFtIVGej6GHmCkN6A1GrCYXPydh3IEaHi3p8U3lSRKRHwcRiqMNnJnF59D04GQjN+A5HeFPHC644IIMC73iBx54oE0TAohxvIDWqFHDnFLgUARPonjzxOEG3jOBHnKcvCFo6SnHiQi963jZZAoIGi3mzJlj+24q9MLjHAVHIcn440WV+BPfzCDdMGrUKPsfhzRk5SleCCGEEEIIUTCRKM+nMH0ZPcP0EiMGMUlPLvQWI3bxroh4Bbx/A0LXT1VBrznTquGdMgn7Y3aOx07EKODxE4HM9XMDXtLx3Mm5MIv34Pkdb6J46vQeLuntxkM58YpDnOlVxjwdmLucNJIe75EdmHeRxgqul5xnc2PBRJ3eeuYMxbO9tzbgP17UiW98qpQkeGjFBB+v8pzDH//NN9+4a665xn4LIYQQQgghti0kyvMpjGtGeDJNRFYw1Ri9yH369LF1hCNTQUyZMsXEPFNDlCtXztWtW9d6fJMwTQaCmXHqCP1KlSqZIGaaBYRwbsA0vUuXLtbzzjk4L9NdMMZ66dKl7uWXXzbhCw899JD11LMPU10wlRpxZ3oN4utFLPFh2jMaCCpWrGjTYZAW0sXY85tuuildwG8O7r//fovz1VdfbVO5ES/mUCefCfdj41PBOH7ixHj/4447zpUvX97iTPrJG40pF0IIIYQQYtujUOC76woI9Kwi5MaNG2fCp6CCyEbcITq9kE0FJtGMc2ZuRz9nJUyePNnm2cbMHbGN2Tfm2cydjbCl99mD6TpzhTN3OOOhq1at6v73v//ZnNzvvfee9YDvvffeti8m7ZiYE69U48ph9uzZNkci8yXSM46oReB703UP6Rs4cKCbOHGiW7FihYlaev+bN29u827GoeeZuMyaNct6oBG7jCdnfs+s8odr0MDBPJucOw698PSA47SOBgEPPfVvvfWWe+edd8x6oHjx4jbfJVYL8fk9/XWTjxjpZpz8119/7XbZZRcbI09DAuPhuQfMJSqEEEIIIYTYNpAoF0IIIYQQYgvw4IMPWp2Uzg0hhMgMma8LIYQQQgixBfjpp59SOtcVQog4EuVCCCGEEEIIIUQeIVEuhBBCCCGEEELkERLlQgghhBBCCCFEHiFRLoQQQgghhBBC5BES5UIIIYQQQgghRB4hUS6EEEIIIYQQQuQREuVCCCGEEEIIIUQeIVFegPj000/drbfeGq0599BDD7nPP/88WsuaFStWuE6dOrkffvghCtk6eeWVV1yvXr2iNZFTChUqZIvYOrj//vvdqFGjorW8J14+VFaEEEIIIf5bJMoLED/99JN75513ojXn+vXr57755ptoLWtWr15tgvfXX3+NQpy75ZZb3LRp06K1rYMpU6a4zz77LFoTW4revXu7vn37RmvrefXVV91LL70UrYlU8Mxdd9110VpqRo4c6ebMmROtCSGEEEKIbRmJ8gLM9OnTXYsWLaK1rClbtqyJiWOOOSYKce6NN95w8+fPj9bEtsTEiRPN8iIJDSLjx4+P1kQqFi5caI0XQgghhBBC5ASJ8nxKEATuqaeecvvvv7/baaed3FlnneXmzp0bbU3j9NNPdx999JH9XrdunbvrrrvcXnvt5XbZZRd38cUXu8cff9zdcMMNtv3ff/91NWrUcN99952JcX7Ta37ttdfa75YtW9p+P//8szvjjDPc7rvv7nbddVdXu3btTE3kJ0yY4I4++mi7HvvXr18/QxyPP/54161bN3fUUUe5YsWK2XWGDRsWbXXur7/+cjfeeKMrWbKk22233Syuq1atirZmBPN7jkcQeWbPnu2OOOKIaM25q6++2vLsggsucDvvvLPbZ599zIyYtMOIESMsnd27d3fly5e3fZL5Om7cOHfSSSe5HXfc0fbp2LGj++eff2zb8OHD3XnnnecmT57szj33XNe5c2cLp3efYzjfnnvuaWlas2aNbfv999/dRRddZGnkPlaqVMkNHDjQtsG3337r6tWrZ+kvXry4q1OnjqXLQ5y5B+TfAQccYPeUspEdX375pTvttNPsmsTptttuszj98ssvlo8DBgxwr732mv1moVeX//SeDx48OD18wYIFdj56z6tWrZp+HylDHvLh0UcfdYMGDbK0cI+JI3m39957Wxz23Xdf9+STT+Yo7p988omVHfKT47HoWLt2rW1bsmSJ3cMSJUrY9oMPPtgNHTrUtsG9997r7rjjDrs/bOd5uOeee9KvS35TZp9++mlXoUIFu8/EOW5xMm/ePLvP/hlo1qxZeq/3pZdeaosvjyxYoKSCBi8fD8oSw018PHheKZvkC3Gg/PA8paJNmzaWrrPPPtvyknM9/PDD6ecaM2aMa9iwof329O/f31122WXRmhBCCCGEyFPCiluBIhSh1ESDUDxFIQWTUBgFoQAK+vXrF4SCIXjrrbeCsmXLBqEIifYIglCwWzg88MADtv29996z/V988cUgFANBKLBteygsLd9mzJgRhGI8mDhxYlC6dOngscces9/Tpk2z/UIxH4SiNli8eHGwbNmy4M477wwOPPBA2xYnFLpBuXLlglB42X6hWLbjQhES7REEoagJQtEShGLD4hSKGYvTH3/8YdtvvvlmS8Po0aODr7/+OujatWtQpEiR4IorrrDtcbgG8f/555+jkCD4/PPPg+233z5aC4L69esHobgNQmGZnmeheAtCoW7bX3/9dTs/aSQfQuEahGImOOywwyw9oQC1+JGXXI99yO9QcNrxoYgNSpUqFRx00EFBly5dLN+WLl0ahILb0jJr1qzg448/DipWrBh06tTJjgnFcHDccccFP/zwQxAKOYtDKMKC5cuX2/ZGjRoF11xzTRCKTVuuv/76oGbNmraN8xUtWjQIBWQQivsgFP9BKOKCUCDb9jjkjX/cV65caXEKxazF77vvvgtCIRrceuutwV9//WXxPuuss4JzzjnHfrNwT/jP/SNOPpz933777SAUg8E777xj8RgxYkQQilXbDsQ/FL+WTuL6/fff23NapkwZK1fEhzKwyy67BKGAtGMyg3JUvHjxIBTWwezZs4NRo0ZZmimnQP6cfPLJwU8//WT52bt3b4vLqlWrbHurVq0srtyrUEjbdsrIm2++aduJD/lEOr/66qtg+vTpweGHHx7UqVPHtlMOqlWrFjRu3NjKB/tQronD33//bevPPPOMpcXnUSi+7dg4xx57bLDHHnsEb7zxRvDtt98GAwcOtHTxXALPTSiug6lTp1pZ69mzp23nuUvStGlTK9e8E0hTjx49LA08N8B9IX5xunfvHpx44onRWsbyEf8thBBi07j66qutPiSEEFkhUZ5PQTC1bds2Wkvj8ccfz1SUV61aNejVq5f99lx11VUpRbmHj8iwYcOitTSaNWsWnH/++SZ6ECEc9+eff0Zb14N4QUysW7fO9kFMtGvXLjjiiCOiPdJEOYLBw740NCDMOJ5GBC+WPAiQTRHlyTx74okngtq1a9tvBDHXJF0ezrvddtsFM2fONPF+wgknRFvS4JhDDz3UfiP02Je88SCyKlSoYOnxfPLJJybGALHrBaMXvqQDwQkITO4Twm7t2rWWRz6/77vvvqBJkyb224PorVu3brS2Hs7JAly7cuXKGeLEc0PaPVdeeaUJ3CT/+9//gssvvzxaS6N58+ZB+/bto7U0ONYfjyjnesTd8+6775oonzRpkqWbuJAPpDErEJxVqlSJ1tLgWUeQAgJ/9erVdj5+f/jhh5buH3/80bYjypPxR4DTaAJelCPoPdyTQoUKWTmePHmyNZpwbg8NEzTGjBw50tYpv5TtrECU33vvvdFaGjTU1KtXz37TsDNgwAD77aFRI/kMA89EmzZtorU0GjRoYOUDJMqFECLvkCgXQuQEma/nUzChDSva0Voa++23X/RrQzAzzs3+mdGhQwczu8VsvkiRIu7AAw90L7/8crR1PXhvZlwt5sOY54bCNYMTOg8m2Z5QQJupO6bIoQAyU/RNiXNYvqNf60l1PkzyPZhyFy5cOFpzZqKM6Tj7kG7GU2NO7BeGAcSd44ViysyHPYsWLTKT9Lg361q1arlQyNpvzKVDAWX5wHGh6LVwzyOPPGLO9thGfh9yyCFmPg7E56233soQn1BcZohPKjgOc2xMnf1xxGHZsmXpZuC5gfNhLh2Px/PPP59u2g6hALT76zn11FPN3wH//fCGUCy7P//8M9ojNeRnKPCjtTRCseqaNGliv2fNmuVOOeUUy0/u9e23327hceJlDri/yXRjlu5hO2UpFPpWDhhqQJw9RYsWNTP4eDnKCVmVRfKUYRbxPJ00aZKFpyInaYqT6tkQQgghhBB5g0R5PqVMmTImUOLEx1MnKVu27AYV+swq+HEQInEQhYxT//vvv038MQ4WT9PJuHz//ffu+uuvN8GO0EKgMfY3O7x4RcDtscceOU7jdtulFWU/VhsY15sk1fnIG89vv/2WIc2MYec87MM45bp165qner8w7j0epx122CH6lQZp+PHHH6O1NGbMmGHet4Ex+4xhJl5Lly51H3/8sYV7jjzySBtLTH5zv5jyjrHAxItzI+6T8Zk5c2Z0dGo4rlq1ahscR97FGySS996TDCdf7r777g3OxxhyTzJfWMefAGPAyV/SjaDu2bNntEdqEO/J/KTRwk8vdsUVV9g94j6Sn4y5z47spv+Kb6cc4AeA++GhAWnx4sUZylFmeRcnq7LIPcK3QDxPuT+Mf88J8TjzbMSfC0j1bAghhBBCiLxBojyfgnMpnJYhZhC9OBN78MEHo60bgvMrhBOCmso/Tryym9qqVKlS1jOMAEFkAQLSOypDQNBjjoD2otiDiABEFNsQ8AiunPbQISpIIw7I6E3+448/TOTFnaDFoecSx204OkNwIGDp1U/So0cPywOfZ8zNfs4550Rb0xoqcASG8ELYXXXVVZZGevoRwAjk5557ztKxcuVK17hxY9eqVavo6A3BURxWDTg6I16k5cILL0wXkYhreqzpbUXc+Xvo84medxz0sY3eWHpTEc7kDz2pb775pjlVY396unEEF5+rPhWNGjWyHlkcsHEc9xbnZDjw85QuXdpNnTrVLV++3O61F5mUiS+++MIEL+WCeGEt8MQTT6R7a0c043Quq/L17LPPuipVqpiDNHql2Z/eYN8oQGMP5SwJZQJHd5R98pPfOF3DAR+Qn1hmYFVAT/EDDzxg4Tktd9mBlQN5QEMUDQrkOWUUx2z00APbKRuUL8LjAj4Oju0oT5RFnNdhFeHLInnatm3b9J5zvN6TLu5JbsGygEYD7gfXwslfdo0fHt4VlOHRo0dHIUIIIYQQYnMjUZ5PwWM3wgCBhSDFszjrmNZ6+I3YA4QmFX4q2IhXBC6CMw6973ETY8Qg4odz4O0aevXqZdNlYR7LdTE/xls5QiQOnrhvuukm8z7NfpgYs2+8Bw/hF++ZhXhYly5dTFAg3hBumMOTzrhpsQfhz9za7777rsWN6+PVnTTFOf/8883rN3EiTeQf3qs9mNuTB3j1Ji6YeZNXxBtv3HitxlQbIc12rvvYY4/ZseRTPP+BhoshQ4a4F154IT1emPy3b9/etiM+EUgILo5FSBIH35PZp08f8x5OfFkQ4piGI2BpKOC8WCBwPPe1XLly7r777rNjM4OebeJEwwze0mk4oTEiLtTojUd4s419EHVwySWXmIj3ZYvjKFc0BODN3Q9VaNq0qe0L3K/kPeP8eBSnx55tnI9Gh9atW9t28j1pNQCY8dMI0bVrV8tP7+EcAQuUGe4HeUXeEx/uG40LgJk32+LE40cPfrLMUB58GPcb7/E0JnD/yUsENZ73ySfg/iGqKX+UZZ6PJPSEX3PNNSboic/JJ59sjQuEAc8ePf4MfWA75ZQGp/hsAh7ygXTGiYdVrFjRGk14HjkX94YGGOKQHdxrBHluTfOFEEIIIUTOKRRsri6krQQq8lT26TlDCBZ0EHH0SiMq4oI3M/ztZl96SumBY1xyZtBDikCkMh83Qab3lB5AwrO6Lj2F9F7mNH6pIH3EGyGcHexHLyX7Jk2maRRgaihEOPvQm+obLQCxh6DF/NtbByTH6gLXoOc+eXxWZHWMj3O8pzgJcSEvEVrJfPTHIwo5f07hOHpOEZ1cO4mPM/kY355ZOGWFeBDHZN5nRmbHUGYQjpn10Po4ZJWfqcrA5oQ4cq2kIPbwjPgylFnZ9+kgDanuHfece8Tzk7RGyS0bey4aOWjswQeAEEKI3EFjKz511LgphMgK9ZTncxBxWVX6Pc8884yZnjPWG5iPnJ5SHHBlBZV3ekuT4gYRkROhzXE5iV9WIPxyIsiB63C97MQYcc9KUCOQUgly4BrZHZ8kq2N8nDMT5IDgzqwBxB+fG0EOHMc5Uwly8HFObs8snLJCD21uhHBmxzBHd9LpXRwfh6zyMzfx2Bgok5kJciBupI34ZIZPR2b3jjRwjk0V5LAx52IoApYxWEEIIYQQQogtg0T5NkKrVq3MzBdTcHpG+X3ssceao7FtBcSPNzFOBcII0SLyHoYInH322dGayCvwYYAfh8waqIQQQgghxKYj8/VtDExYGV+bVe+cEEIIIYTYdGS+LoTICeop38bAhBWnWhLkQgghhBBCCJH3SJQLIYQQQgghhBB5hES5yFNwdOUdYf300082xdaWwHuBzwzm2/78888znVN6c4CnceLg5/wGPHS/99575vmdOcy9N/3NCd6zx4wZE61teZhKjSnDyEvyNAnpZx54PIHndvQM+cU82/DVV19leU8BT/p4N6ds/fLLL1HoevCOTnwpHxsD92ratGn2m/+b+95lx6+//mqmkZRfIYQQQgiRP5Eoz6fggIl5hjNbZs+e7Q466KCU2/zixcTGwPzYqc7pF+bTzi0dOnSw+ae3BMzLnZWnbMQZc0D7+bg3lWXLltk9iDNjxgyLA+IbEKfMlc5c1cRv/PjxrkePHjY39eYCL/vkK479/iuYKx6hiGCsWbNmFJqWJ8yVzdzelBE8v+N4kAYJz3PPPZehHDHUghkCGI8HjMnzc+Y3aNDARHdW4CyOhgHmpmd+d8+IESPcMcccYx7kuQZxYe7/hQsXRns4e36YU554x8Eb+QEHHGC/mc2AOcaB/zRGbAq//fZbrs6x5557uqlTp9pc+kIIIYQQIn8iUZ5PGTp0qPvwww9tueSSS9whhxySvs6CaB88eHD6+hVXXGECI74P6xtL48aNM5yLnsYuXbqkryOCtiYQdu+//360tuUZNWqUO++886K1NPbff3+LA3M+w/Tp062399NPP7Xp6S699FLXtGlT9+qrr9r2zUHfvn3dmWee+Z96lcdvAdOBMcWbn7IMCwDmiKfHfsCAAdY7vWDBAnfddde5Cy+80PIL6AlHDPtyNGzYMBPfiGsaMzi394fA+bPzjZAqLjQakCf16tUzUU2v/dixY603vVmzZum99zhEJD7Max+HXmm2gT8/xK+xseDp/Oqrr47WcgaNCb17947WhBBCCCFEfkOiPJ9Cz+fhhx9uyz777GNTFvl1FnoAq1evnr6OEMTjenyf5NzfiKS2bdtusLRv3z7aYz2lS5fOcC7ECT28fr1ixYq2H2L95ZdfNmFz8803uz59+mQw386KefPmuaeeeird7HjFihXu2Wefdddff7179NFHM/RqIuAmTJjgVq5caUI06eWUeDDnsgfTauLCuR5//HEzcY6DMPvggw8s3rfeeqv75JNPoi1p+fTiiy9aL/Rdd91l82ljgu5BYCMm6XUn/ixcm/mhZ82aZXn12WefWb4wPR1WB34feuw5vwcTb65FPB988EHLEw8966NHjzYTbq5JfJLQw5ycY5qZCbivpO2jjz6KQjeEPCAdpO+ee+6xoQU0GMydOzfaIzWUxVKlSln5oicXEOKI6pEjR7r69etbL/hee+3lbrjhBte5c+cMPd7xclqrVi0rf0cddZSlhXOWLVvW9itTpkyW1g9AOaUXnN555tun7JH2du3auU6dOllDCQ0W9Oj379/f9qG32vPII4+YFQPxTkU8PvzPLj5Az/0dd9xh+UoDgW8E4D5zPym7vtwsWrTIthEnpomjHDzxxBNuyZIlFg7cX8pqdqb8QgghhBBi60SiXKSDOGBMbKplY0F40INevnx5t++++5oAw5w6O+hBZko7eiURb4jt2rVrm5nuwQcfbD2cNEx4of3666+bcMQcGhPouGgBBKtvXCCd5557ru2PgEQE0Rsb5+6773bnn3++NXggMOmp5byAKEUc0asNxPGMM85wvXr1snW2I2AR2JiwsyCuEf433nij5Scii7hzbHyfKVOmWIMDcDzT+7300kuucuXK1ghx2GGHpZvFYy1x3333WX5g9p4cM811MG0+9NBDoxBngo64Ilb33ntvs7JA7Kfi3nvvtTygB5ie7lNPPdXMz7k3WcH56blF7PqGAszFyS/yMgmNHojzzEBIc/9paEKIewFPw4Y3I88MpkjEigQBftVVV1mjBvmH5UgSyhnCn7zxcP8Zk3/llVdu0HADlGvyGL744gvbPyto1KBcM18+DQIMXSBPAbN1TP4pB75MUAa4r9WqVbMGFEzt6U3H9J5efKABjB56yo4QQgghhMiHhAKlQBFWXOl2CsaNGxeFFHweeeSRoGHDhtFaarp27RrUrVs3Wtv87L777sGYMWOitfX07ds3CIVZtBYEffr0CWrWrBmtWRehLXD55ZcHoUALPvzww6BEiRJBKLQtHF588cXgqKOOCkIhEoUEwUUXXRTceeed9jsUTUEopoJQENt6klCcBWXLlrXfM2bMCHbaaafgp59+snUIxZjFIxRtwYoVK4JQNAVffvlltDUI3n///SAUYEEooq1sbbfddkEokqOtQRAK2ODEE0+M1oJgwIABQSigo7U02J9rLFu2zNYnTJhgcY4TirbgyCOPtN+DBg0KQsEdrFq1ytYhFK/Btddea79DQRfsuuuuQSjebD1JKPDser/99put//3330Eo6oJRo0bZOoSCMgjFcxCKvygkDa6588472/PkCUVjEAr0YOjQoVFIzjn77LODO+64I1oLgnfffTdo1KhR+kL+Qbdu3YLKlSsHzz33nC3du3cPmjVrZnGM5/fGMn36dMuTeJ5efPHFGeJC+QDuDeXm33//DerVqxdcf/31Fj527FjLx9zCebifPBMeyluRIkWCRYsW2fozzzwTnHLKKfbb07ZtW3u+OR7Wrl0bnH766RmeN/Js8ODB0ZoQQoithauvvjooV65ctCaEEKlRT7lIh3G+9HAmF8zBN5Y6deqYWW7Lli1d3bp1raeY3uHMwAy3RYsWZm5Ob6KHXkB6v3Eg17x5c1vwwj158uRoD+fOOussV6FChWgtc+jZpIeVXk4PcfNgYo55O+Pi/bVCsWg96t4RHObX9Np6GCpA/m1OSDO9s6FoTI8HJvrxNDNOm170VHhP8pjLA2OmyUPMov35sFxgfHTS9P2bb74xc+gTTjghCnGWZ1g7bAyYecd7mrlPoQC2hXHhjKv3YLKN8zcWrAG4Jtvj+b2xEA+IxwVzeh8XzNQZYx6H2QFwEsdwA0z/NxYsF+j95nny+U8vOef3HuVTQXnEYsLPUsD9xOw9fm8YBuHvtxBCCCGEyF9IlIt08DKNqXRy2VhRjrDGUzZCEGdejIll/HZWYKKN0y/2vfbaa20cOSDccEx3+eWXpy/sE3cohyl6TsDUl7jF8abAgLk2AqhVq1bp1yIujBv3DtO8QPIwXjxJEI0V3lhIM4I0nmbMsDFB9zD+OjO8AMUcGrxTNO6FP1/r1q0tXfEGCqBBhPhjth4Hc+qN4cgjjzTTcC8cMSnHhJwFs/G44GYsOQ7xWDB7p8xk1vCQWzAv51pvvvlmFJKWH8SjSZMmlt5U4p9GBMz8ya+NzQOf/5jxx+8pcYl7x0+WG0R4UnDTkBKPB/c4J+PZhRBCCCHE1odEuUiHnlDG4CaX4cOHR3vkDgQ146YZM4y3a5xpxXtEU0FPOL3OjOFFKOIQC+jJZiwznrnpHWZ8M72aqZybZQe99zgdi6eL3mMPgpGxz4w/5losjGvGWVm89z4rEP6MG0+K/9zAFFv0rJIPxIFx7zh3y24aMI+fVsxPwYYgJf/oBffpQsjhaA5naDQ0+MYGnPbhwZ+GDy8SaZyJzyMf3z87EJ80fHBfvUUB56V8vfLKKzZ2fWNBsDKmHm/22cF9oUyxcP992ug5x/EdjQeZzUrANG8I9ux8ItAjTnyS9wlxTSMV5Zh7Sf7T6MI0gL5BifKFpUBcmFMOyHvvJwGLB8aRMzUbcD2sOPz4ehzJcX3KrBBCCCGE2PqRKBdbDDxeM8UUZraIcnpAcdCWEy/R9DzjWA3naQhRjse8GGdvp59+uvUs0qOOOM8tCCucqdFjydzkVatWzeBRHOGGUMVDN40BTJ1FYwHm8TmFNCOscDzHby+gcgPHXXbZZTadGx62iSsm3Ulv6plBHmL27D3Hs05+0tPOuRGG5CnT2yXFNetYSWC2T6MAYh4nZTkZHpAKLAzoKWeudnrGOR+NBDiFQyAnHe3lBsQ+jveY1iwn4FQOywfKJnHBUR4O1DATx4t9ZpB/lItJkyZFIamh15r4pLrniGV6xvEqTznG6Rvm85Q54Dfe9ymT3CPixBRpNBTQUHL00UdboxVlgMYlID6UadIBzETA9SXKhRBCCCHyB4VC4bBpNrZbGfS8IUQY+0mFd1sAs3OEblaenxknS2+gnyN7c0OPNd688ZAdh+KFaKB3FBNk4khPX6reSEzXGRsb99DNvvQeepNirkPPL4KfXk32B45FNMU9Z8ehNxEv1n6qNsDTNb2K9AgjnvF+jUdsPwYbj994+Ebc0MvPdFmQ6lzkLT2ZnMuDiTHjvxlDjwijVxrxz3HEO9V5uCb3Mz52G2sDxBm9qYgyHz964jm3n5IrFQjpJ5980tLh4boIdUy1EfqpPKJ7MJFmDD6iGqGIMMScnEaSjYHyQA8yPbvcV/IlXmY2ppxyf7p3727CFg/rOYW8Jm08O/Qyk7Y4NCAh2pNl2nvW9z3TSbgnNHxQFvFun4SefSxGuC4Cm+cmDuWIckleHXvsselm6VgCYL1BeYmb8zMunTygAQUoPzS04K3dPx9CCCHyBqysaJTmuyeEEJkhUS5EAQbxiNh86623zFIhNzBdFz3afvowzK5pFEAcZiZI8wIaP7CYYN75pLDOC2gsodGCXncaebYk9MpzL7AS4F4Bpu4M7WBYgBBCiLxFolwIkRMkyoUo4NA7j5OxrCwpUoHQYz53eooZc07PMf4BmL9cbB3gt+GHH37IMBe9EEKIrQeJciFETtCYciEKOPTW5laQA2OaEXw4uGMsNKbTEuRbFwxpkCAXQgghhMjfSJQLITKFcdqM3Ueg+zH1QgghhBBCiM2HRLkQQgghhBBCCJFHSJQL8R+Ch/fRo0eb07RtHabuwjv8fwlO2PC6jof3xYsXR6H/PVyf+cjx1M44w+xce+Dxnanf8MyOY7u8glkOcC7HWHY/b/p/CX4NHnzwwWhNCCGEEKJgIFGej2HaJOZ5ZlwpUx/hffnOO++0KZc8VOCZk5kpptiH+Zhx3hWflxtB8PTTT5t37sKFC9tUVZgrv/3229Eemwbnf/75580MmvNjEo0TviFDhkR7bB6YCgqxs7XywAMPuMMOO8zGZXfs2DEK3TpgmjQEa5LMwjcVxCjzb1Me/0tat27tevfu7fr165dhujLEJvOXMwUaZZRnimnFeMbifPPNN+7CCy+0eDM1Hf85D9PWJWHKuWOOOcamfeN3HOabP//8861hgOnv1q1bF21JDVPXTZs2zbVt29Z17drVwvCOz9zkqRaecc/JJ5+cYRse9O+55x6bbjAVI0aMsP06deoUhaznnHPOMU/+TEH3v//9LwrdeHL7zDLl4HPPPWcOPYUQQgghCgoS5fkUeqvq16/v9txzT6ugMvfzI488YoKjQ4cO0V7OBPmECRPcyy+/bPvgAZS5oBs1amRzG8PgwYOtgo8ooeLP3Np169Z1Z599th2zqXBNKvDMIc35p0yZ4ho0aGAV/C+++CLaa9O59NJL3VNPPRWtbX0wvzc9w2PGjHGvv/56FLp1QAMJ5SnJwIED7V5tbvDsThmuV69eFPLfQMMUohtB7ed7p8cX0Uu5fPbZZ61MDhs2zMbQn3jiiebsDngWatSoYSKyf//+7ssvv7T/CxYssBkfSE8cGrVoFGM+/KFDh0ahaXBtHw/Ibj5xv7+PP5x33nmuS5cuGZY77rjDGgjic58zt3+LFi1s+6OPPuouv/xyN2rUKGuES/V8I7hxDoj4p3c+js83H59Nhbgwj35OIf0XXXSR69WrVxQihBBCCJH/0ZRo+RSEHcKZXvF4hZ7KPz1deMuGUqVKWc9S06ZNbR3onaMyzD7ly5d3V155pfWIMs9znDZt2lhPX7zXDehVRKylgt7PpMBA7HMMvYNx2rVrZyKHHkNA1CBkMNVFMHAft9surd1o4sSJ1ouJgOIe85uGBabqopGB/KBnr3Llyq558+Z2HHNFA6a25AvmwvQSUi4KFSpk2zgXFgZYDnz66afWa4n1AdOAebgmvYNcp2bNmu74449PP54ezvfff9/EDUKGY7EEiEN+E/8mTZqYMGc/evxIOw0jlFUaQkqUKGG9s/wHrotQZA5uzN5JB+Lxo48+snQiHmfNmuWqV69u4paygKd0rlenTh3b18NjztzVs2fPNkHFfcVyAT744AP33nvvmTD3Aol0zpgxw7377ruWd0888YSFk380BBFvzM8RplhhEG+fZ99++62JUc5P/ElPxYoVbZvnpptucqtWrbKy6UHsci1ELMciiH0+J6G8vvnmm7YvaUWEcg/oFc4KerlpZKCMUtaYS5xp3kj/1KlTbeo4D3lGwxH5T4MS5Ym8I5/i8SIuXJfGsHjDBtdhIV3cY/Lfw32iYYbGsjJlymwg6JMceOCBFsdu3bpZeb3xxhujLethTnquzzNB2ogrUNawhKFserh/NLohrAcNGhSFOus9p2zxPBx77LGuc+fOJv49p59+urvuuuvMjPzrr782AZ8V5OGkSZPc+PHj3R577GHXpLGD8sGzhyk6ZYNGA/KUZxrYzjOHlQbe5XnX+fcKz9Jpp51mz0fyXSOEEFsbmhJNCJEjEOUFiVCw0MgQhJXgKKRgEgofS2cojoOwgh2FbkhYoQ1CAR6Elf4oZEPuvffeIKz0B2GFPArJmlDYBWHlP+USCsNor/U88MADQYUKFYKwoh+FbEhYyQ9CcReE4iYIBYfFu2HDhsHatWttO+cOxUJw1FFHBaGID0KhYeukKxQHtr1UqVLBAQccYL9D8WDHffXVVxbO+g033BBUqlQpaNmyZXqehcLVzhMKkCAUH0Eo9oNQEAah2LbtoVgOQjERhALRtu+2227B1VdfbdtCsRXUqlXL4kqcQ+Fg5wpFsW33hMLU4sT9CsWw/Q7Fr+UV8SLdxIm077rrrsGYMWPsOP4Tn9atWwfFixdPv24owu1+cb1QzFicWrVqFVStWjUIRU9w1llnBaFYCfr06WP7w6WXXhrsv//+lgf+fH379rVtl1xySVCtWrUgFHMWN5ZQRAUXXXSRnTMeHgqiYM2aNcEpp5xiaSXdoUAK9t133yCscNj5QqFl+x533HFBKMiDXr16WXicww8/PHjmmWeitSD45ptvglDsB6EAtjgecsghlg5/H+IsXLjQ7nOVKlXsnlAmuNbBBx8c7ZE5K1euDELxamngN3CueFxSwTGhaAxGjx4dhWTNnDlzgqJFi1pZIF+4HzyzHn99yuHSpUuj0MxZtmyZ5QXlffXq1VHoev755x/Lixo1agQrVqyIQtPg3oQVwmhtPSNHjgyKFSsWrFq1KgoJgrvvvjs455xz7HenTp2s3Mfh3JRb4kD5zwrSdtlll1kZvv7664Nzzz3XygPPA/lDGSldunT6M9ugQQM7jue5bNmy9mzxrLOPjxMQX+7Fl19+GYUIIcTWC99uvvNCCJEVEuX5mM6dOwc77bSTiUbEE5Xajh07BsuXL4/2CIKPP/7YBDECASF3wgknBFdeeWUwa9asaI/ARAEii4pu+fLlTeQ0a9YsePPNN7MU/DmF+BA3zs+HCdHbtGnTDA0K11xzjVW8vQij4l2xYsV0MUGlnTj5/efPn2+V9cGDB9s6NG7c2BoA4iAErrjiivTjEDdU+CdMmGDriPL4dsQCIpR8g5NOOskEhd9OgwTbuf5zzz1ngtyLIPY544wz7B6kYocddgi++OKLaC2wuO+9997BokWLopAguOuuu6yBABDllOWbb77ZRKEHUU6cPKNGjbL9Xn311SgksDjUrl3bfiPY/ve//wU//vijrcPjjz+eLoKgX79+wWGHHRatreeVV16xPIrzxhtvmJD67bffopAguPDCC4M2bdrYb0S5j4/PtySke9iwYdFaWqMB5yCugGClLH7wwQe2Hue+++4zwebzhGNojMiJKE9FyZIlg7fffjtaC4JBgwYFt956a/pCehHXpIny4UHIx/fzZQbatWtnZc9Dubjtttuitc1P+/btLU99w0iczEQ5ZZg0+cY4xDYCevjw4bbOdhoTZs6caeu5ZerUqdb4E88z7h3PqadJkyYbPC+8B2hg8GWHeOy+++7WwObhGfbxFEKIrRmJciFETtCY8nwMTt0wVcasFTNTTJgxh8V824MJMGNKMSPG1PTiiy928+bNc6HwNnNuwKwUE2ZMq0IR5m655RYza8dsHYdYSTC15XyplrAiHe21HpxmhRVou27fvn3NWRUm3BdccIF78cUXbR9MWXGGhQO0sOLuHn74YbfTTjtZuCcUmelmw5grV6lSxc6ZFZi14237/vvvt/Nino15L+EezHT9eUOxaea+/ryffPKJa9myZfr2ypUr2/m4PnHDZPuxxx6zc3MNTMjjcc4KvLBjGl26dOkoJG2cMD4AMEUGzIvJk6RJPHnhwXkckA4P5v/eVA5TfuJGvPiP+TFm0MR1YyDvdt55Z8f4fdLNgrlxPE9xbkZafL4lYaxy3FScYzEDxwSc8zH+mWvEz+nBFJrhGD5PSF+8zOcW4hHPC8ohcWFhbDnDQXxc4/uRBr8fzwlm2sA+lGtM35cuXWoL8SOMYzY3nJfx3ww1CCt+UWj2eJN5PzYc80pg6ABxxuHjKaec4nr27GnhuYV7x7Pfp0+f9HKCWXx2zwfPnDdnB541HMJVrVrV1oG4ke9CCCGEEAUBifJ8yvz5800EIFwRQGeddZaJXSrAjF1lvC4CAOHHfyq0jG/F+zTjTXfbbTcbCw2IaQTcPvvsY+O4EaGMIWZfxu0mYVwy+6VaGGOdBA/W3vkU4385P6ILJ3Tx81PRji+I9vqxMbrJ8aN+zGxWBEFgwjl+XtIV9zeQ1Xk5Prk9DmItfm7GFse9emcF506KVr/ONqABAXGaJB4nH99UYYD4Ytw545iJL2PNET2bQjLdNAjgT8DDOOmsQFDHBSrpjZ+PhXykTCXxeRMnM/GfE2iIiYt/8oYGB5ZDDjnEhCX3gcaT+H44L/T7MW6e/YAx5zSWUc45huWyyy6z8dGbe8YBGtNoZHnjjTfSG2dyCo0NjFUvW7asrSO+GaPPuo837wga+jZWACP44/cUr+7t27ePtqYmu2cOiA/vPiGEEEKIgoBEeT6Fea5xfpSciokpm3Du5nsR6VFM9nZT8cZpGCIcEOBU7OOCmimr5syZY0I6CT1p9BanWnyPYhx66HGUFZ8Wih51HIL5OCAoqLTj/O3222+3/1TovWDICfSY0hgRh/PiWIpzsuBlnrTl9Lz0OPseRKAxxPekc26EJeLMnx9HceR/TqBhAKdtOALz0NtJ/nqnaZsiNj00imAVgeMsvHPj5C/ZY5sq7yBVOA7qCKNRxacbC4L49GbZxZty5b2aA3mJ8I3ff86R6j7RAEBafK81ZYkZBDYWLEOeeeaZDXpwcXRHTznOyciHm2++2Xp7cXAWBysQHO55x4KIWyxXKGfxhbzPqteZcoCzQRwK5gTiR288zy+Oz3IKohfHc6SlVatWls84bsMjO47e4nEmj2kUokEnM+j9xkleEsoJ7xm8pftygoWHd2QIqcpX8pkjP3BuN336dFunkYny7N8dQgghhBD5nrCCVqDYVsaUM96ScaphhdnGWoeVa1tn3DJjnT2hCLBxoTgFYx8cJ+FsKRQQ6WM2GV9eunRpc4KGcy8cfzFumfGlOGDbVHBwhRMvxiH784cizMaF4uAL+M/YeMaaM8aUcac4JluyZIltZ0x5KD7stwfHaN26dYvWgqBLly7m9Izx04zxBRy1kUcXXHCBnZfz4NQMh1nAeGnGTcfBWRZjrIHyFApkG+fKeUMxme50auXKlTaOORSJQYcOHcyhHtefNm2abU/CvYmPKQ/FiDl+Y6w/DtNw9lasWLH08b9jxoyxe5WEe9O/f/9oLW3MPmU+Pp6Y8bZ+DBvj6BmTS7zJA+4B44xxjubhPlNOcBzXtm3bdCdajAcmnDG+hJM2xnLjF4C8u//++80fAOPs/Th9xpTHxw2ngnNRHj2h4LLxx4zDJo44j6M8ev8IpM+/rn755ReLP+P5KUuMnccPQnxMeXz/nBAKRkvn8ccfH1x88cV2fe4FafPPSShQLX+4j4zH59p16tQJChcunF428TnA9gULFth6HJ6DUABn8OcQZ9KkSRbn+Fj7rKhXr575isBPRHJhjL2HvMJxHuGkj+eQOF977bXpPhxIf6NGjex3EvwceP8EqSCPeL6TkG+MGec5xpnkLbfcYs/H66+/Hu0RmMND7jvln+3AWHQcHhIfnjl8S/D+8vfBPxf/RP4HhBBia0ZjyoUQOUFTouVjwkqqmdMyxpZeanoV6THDRDQOveeYtNO7Sw8sU3qRR3ETUcZssg/ziHPeUPDYuehl3hww5pjzM40X5w+FsU2vxHh2Dya/zONNTz49zkyVhpk9YGrLeNn4uFJ6KNkPE2OgZ4/j6bWk15Ux98A80kx9hfkwpsqMdfYm4UzBxfGY8XrohSV+7Av06DJ9FT12mH7Tc+rH4dLLxzbymB5ATJYZj58K5pBn6rB4TyE91vQK+inR6PlkvD2QD0w75qeM82DyTy+k34/eTKwh8AHg00WPPs+AN1PHooJ96I2lJ56pzRi7Gx+LTS8tPcNYTNCD6vOE/fBbQDi97ExhxTVJN3mN2Tbn8flFGaInM6s5yBk3Tz5yb7ypPenlPnFshQoVLN2hOLNtvufdv65IB1N5hQLdyjLnwSya+EBy/5xAbzF5Szmk3DGFGOXAn8tDGSY/KNN77bWXDR0hvsC0bFiAEJYKphKkvPkyG4fyydQ55HHDhg2j0MzhXjHVYCp4zimLgGm7Hz8O3C+sbOLlkOeA3mj8NCThvpBehpOksoRhirLrr7/ehsEk4VlnuMxnn31m1juUf6wiPGznmSXfMEe/6667LNw/s9wLhl40a9bMLGkAKwry6oUXXrB1IYTYmuG9znfe+3kRQohUSJQLIf5zEGM0LDC3fGYCNjMw26YxijHsXjA/8sgjJhzxoZBfoeGExo3+/ftvMK/71gzxpcEH8b2lYQgMjVE0yOBLQwghtnYkyoUQOUFjyoUQ/zmMJX7uuefMuiG3YBHCmG16e/ERgEM4xkfj6DA/g1UKvdr5SZADMzkgzP8LsADBAkaCXAghhBAFCYlyIUSegNMvHBHmFhzpYe6MeTsm0Zg3Y1KOuXl+BpN5bwafn2CYgx82saUhf3AwKIQQQghRkJAoF0LkOxgXfeWVV9oc7vSQV6pUKdoihBBCCCFE/kKiXAghhBBCCCGEyCMkyoUQQgghhBBCiDxColwIIYQQQgghhMgjJMq3IZgDmDmQhRBCCCGEEEJsHUiUb0PMmjXLvFQLIYQQQgghhNg6kCgXQghRYHj11Vfd4MGDozWRU/7++2/XvXt3N378+ChECCGEEP8VEuVCCJHgr7/+cn369Nlg6d+/vxsxYoRbvXp1tGf+Ydy4ce60005zu+yyiytSpIjbe++93a+//uqmTZtmQ1sGDBgQ7Zl7ChUqZEtOYTq7s846K1rbfEyaNMldcMEF7pdffolCti5ym09bkjvvvNPVqVPHrVu3ztYpE8OGDXPnn3++W7NmjYUJIYQQ4r9BolwIIRKsXLnSXXzxxRss5513nmvYsKErW7asu/TSS913330XHbHx/PHHH+6DDz5w3377bRSy+VmwYIGrV6+e++ijjywdCDLSghCbMWOG69y5sxs6dGi095Zn6tSpbuLEidHa5qNDhw5u5513dpdcckkUIjKD+z5mzBgXBEEU4tz111/vfvrpJ/fyyy9HIUIIITKDBno1YorNhUS5EEJkwgknnOCGDBmSvrz++uvu/vvvd/vss48Jl2OOOcbNnj072nvjmDt3rqtfv7574YUXopDND+bcVByefvppW+677z732GOPuRIlSrgjjzzSdevWzV100UXR3vmTxYsXu/fee881a9bMrAFE7jn11FNdmTJlXN++faMQIYTYemnVqpVZ92S1vPjii9Hemx/el2eccUa0JsSmIVEuhBCZUL58eXf22WenL+eee66755573MyZM13Hjh3db7/9Zh/9rZ2FCxfa/6pVq9r/OJUqVXI33HCDCbL8DI0m//zzj4lysXHssMMOrlGjRm7s2LFu/vz5UagQQmydvPHGG+61115zgwYNynSRg2ORX5AoF0KIXMK44Pbt21sP9+eff26mwHFGjx5t0w8eeuih7qCDDrIe9dtvv939/PPP0R5p+2BmzXngnXfesXW/fP/99xYOixYtcnfffbf13HM+xDU924wBzgp/jbfeesvWMe/253/44YctbM6cObb+5ptv2rpn7dq1rl+/fmauX7lyZVejRg3Xrl27HJvsYxbNdelF4PgjjjjCeudXrVoV7ZGRf//918btN23a1B188MHWWHD66ae7Hj16WFyygyEAcOKJJ9p/z+TJky19EyZMcF9//bWNOa9SpYqrVq2au+WWWzLks4frYVGAQCXuLKQjGRfuHcMY/vzzzygkIw888IC77LLLzEdBVuBcrXXr1nZfSTvj7als+vHecch/4l2rVi0rC9wXxuhnNhzgww8/dOecc46dl33vvfde9/vvv0dbN4QyBgx1EEKIrZ26deuaJVhmC5ZgQuQHJMqFEGIjQJgzLhsQUB68f5988slu4MCBJixr165t5tSI4Jo1a7ply5bZfozzHjVqlPv0009t/ccff7R1vyxfvtzC+Y+g7dSpk12T8yEoMdVGKGY1/pfeTs6FiTx89tln6ednXDfQ2//KK6+4L7/80tYB4YllwIUXXmiiFQGI1cCTTz5pwo6e1Oy47bbb7BzEc7fddrM8oGHhqKOOsnH0Se644w4b704DB/scffTRNr6Zcc7ZWSPQAPDxxx+7ChUquN133z0KTYNzkD4qZocccogJ4D333NOtWLHCPf744+6www6zhpU4LVq0cNddd501WBAXFvKBuNDY4tlxxx0t/3EAmIT7i1UFArhYsWJR6IY88sgj7vjjjzcTS8bDYw75/vvvWxyaNGmSoRHgm2++sfh27drV7bHHHu7YY491BxxwgDWeIKYZIx6H+3XKKadYbxFx4BjCyAec/KWC80PyXEIIUdDgO0BPOlMG0zCcFQyR4luRqiE3JzDDxVdffWXfXhras4IGWb6FxM3XBTKDRmG+31jwpWrI3VQYN49DWK6REye3Pp3sn12DNHUBn85U9YI4WPyRd/jfiftCKVCECStQfPTRR9ypYNy4cVGI8DRt2jQIK/fRmhAiM8IPpr1HQjEYhaQmFEm2XyjOo5AgOPjgg4NQ/AThByQKSSMUTrbvU089FYWkEX7sLLxdu3ZRSEZC4Wjbe/ToEYWksWTJkiAUykH16tWjkMxp3769nWPy5MlRyHomTpxo2+67774oJLBrEdamTZsgrKhEoUEQitSgVKlSwf77758hnH1ZPFOmTLF18uK7776LQoMgFKhBKNRtW+nSpaPQIAg/4kHRokWDOnXqBGGlIgoNgn/++Sdo2bKl7U8+ZcaaNWtsn/r160ch6wkFqW3bbrvtgldffdXOCfwPhbBtO/rooy0M/P3gfen3BX6HItnOM3/+fAsLhW1QuHDhoGbNmrYep1OnTnaeUaNGRSEb5lNYcbH1VPnUvHlz29atW7coNAiuueYaCxs5cmQUkkZYSbT8I36eefPmBdtvv32w1157BWGFJwoNgrACF1x55ZXpcSHv44QVIwtv2LBhFCKE2BSuvvrqoFy5ctGa2JzstNNOQd26daO17AkFnb2z77jjjuCmm24Kdt555/R3Id/TPn36RHuuh3cp3wPep37fU045JQgFerDLLrvY76xYuXJlcNlll1lc/fEshx12WDB+/PhorzT4/t1///323vb7FStWLLjgggs2qFPw3bvllluC4sWLp+970EEHBQMHDrT9ixQpEu2ZBt+5ihUrRmsZSbWNb8ENN9wQ7Lbbbunn5zdhfEfiUL4bNGhg9Zt99tknfX/idvvtt2f4lgLHt23bNkP+8w1r0aKF1W3ihELcvu2FChVK3/eQQw6xOlVBQ6J8G0KiXIickVNR/tNPP9l+CE3PDz/8YB/xJAgj9kXoxslOlPOBQnT99ddfUUgaiGI+pLvuumsUkjm5FeXHH3+8NSysWrUqClnPvffea/t/9tlnUciGYvPOO++09XfffTcKWc/ixYtN2MZFOWljfz68cbEPfLypjCTTH2fp0qV2PEI2iRfliPtUnHnmmbb9xx9/tHXSTH4vW7bM1uP4dH3yySdRSGANMoRRcfBQAdlvv/2CKlWqZNl4cdddd9n6sGHDopD1IMypPNauXTsKSWsEIG7JCs7atWstPw8//PAoZH3DynPPPReFrIfKnK9oJUU5cF3KgBBi05Eo33JsjCjnvYfQPeCAA4KOHTsGvXv3Dm699VYTiAi/Tz/9NNo7TZjyHueY0047LXj22WeDnj17Bo0aNbJ3Lu/K7EQ533yOv/7664P33nsveP/994Pu3btbAzffWd71HsoK+zZu3DgYPHiw7UsDAgK7WrVqGcTwpZdeavsS/uijjwYvvfRScNVVV1k6+P6QljjU/2l4SEVyG9+YevXq2fkvv/xy+5YTd87v8yL+bStbtqzlKd8V0kuePvDAAxYP9n/iiSeiPdPqLjQgE873jbx4/vnnTdQTFm9cnzVrltVxSpYsGXTp0sUauWk4oe7DvgVNmEuUb0NIlAuRM3IqymfMmJFyv99++816Zfko3XzzzSbcfMs363GyE+VA6/no0aODJ5980oRh69atg2OPPdaOo6U+O3IryqkA8IEmLLl4ERrvuWedxcNHlfXVq1dHIRnhPRQX5UAlh2PoNaayQSUJKwHEf1KoJ/nll1/s2FTC24tyPvqpIE/ZPmDAgCgkDXqxqYDRCHHttdeaeKcCxr7kmYdvDWFUpjzDhw+3sKR1A2EsHt/6n1mDA8KYBox4+tmXChIVFMpMq1atgkMPPdTOS8+Lx1fY4j3wcXx+pxLlVHSPOuqoaE0IsSlIlG85eFex0HOaakl+E7wo33PPPTOIYaCHmW2IZ0/fvn0tjB7pJL5RNTtRjmhOZdFGYyzi2zfyLliwwL4Hp59++gYNrzSucq3+/fvbOg3/rNeqVWuD78eHH35o2zZFlNODzzluvPHGKGQ9fJvZhkWcB1GeDAMau/luxr9Nvs5B2uPp5Dc9/Gz78ssvLcw3UkyaNMnWPVgfHHjggXaPCxIaUy6EEBuJdy7mx+ECY3YZs8w4aBx94ezshx9+MKdlGwNj3RibjjObtm3but69e9vYcKZlwwHZ5ib8LtiYMMYcd+/efYOF8c6lSpWK9k4NznW23377TMdSp5qyDCdvOCHjOLzpPvroo65NmzY2tpxx0Zk5iAN/nazG04UVt+hXRnxcSDNwndNOO83G7YcVAnPuhrM0xnafdNJJtk8cxnVz/xnX7cfEhRUot+uuu2Y7zRzXxON50aJFo5CMELdQkJtXeWDcfFi5N18CzDWP/wLG7R1++OEb3BPuATBOPRWp7oGHeGWWX0IIsTURij57/6Vakj5GPPg7wddJnFAkuiJFitg31zN06FD7H4pT+x8HHyOh8I3WMgc/IYyDxs8M48P5xgLfGeoH+GwBfrPtmmuucdttl1Ge8S3h24h/EMAxLLBv8vtBXYHv16bgr3Pttdfa/zhMQwdMtRqHa4biPlpLY9999zVHt/E89U5lyb94OvlNnYm0kWdAPPDFg1+XOHy/mjdvbuPoceBaUJAoF0KIjQChhJAEpkoDhOytt95qXrTxko0TGf7j+RsRlRX+Q53krrvuMlHPHOk4WcF5G0IM53II880NlYy99trLPMfj2CazJdXH2lO6dGnLn7i3eQ/pTOUohwrSfffdZw5iSOfSpUvdpEmTzNkcXuR9XqfCC88lS5bY/1SQh6nwcaECBzhuGz58uFXCENmklQoFYTjwS0J+4RRu5cqV1pjwyy+/WEWOigvCPCtKlixpYj/V9GPkE2WHfEG4A1PXIbbxjE4e4cRuypQp1lCTFNHcA/BO/pKkugdAmaVxIzMxL4QQWxMIQRosUy3PPPNMtFdGUjVKIu55j8ada/JuLl68uInLJGXLlrUlO3DSSsMxIpJGAn7vt99+tk4cPXw7gG8e7+/4Ur58efum+m+F/1+9enX7n4Tv96bg43LcccdtEBcck8K8efPsvyezhl7yL95g7p3dpmo4IJ9pdKZjg/Ty/cUJXDIOLN6rfjIe+RmJciGEyCUIIqawYrqt+vXr2wcWaLHl48OUVhUrVszQik5vayq84PK9rEmmT59urcYIf78vsD895lsCPrqIvXjrtgdP5gjyrLzH0gMAqYQ0lZDkRxTvq5xz5MiRtk6+4Smc1nE8mAMCNDOoTNGDjHfyzMBDuu8N9/z111/WuIEA9VOp0SgATDOWFKZ4rU8FVhFUtnr27GkCmTKQVaOFh54ZIE+T4JWf3hW/DyKduNErX6dOnQw9DOyXzJ+s7gHlNLOy4/MQr+5CCLEtkez55j2LSE/VaE5Y8puSCmZM4f3MtwZrMKbRZIrKd99913q1x40bZ/v57zuiHCux5EIv8hVXXGH7+Pd/ZtfPLDxVOsBbY3nolQd6s5PxwGKPuDRt2tT2yY5knvp0Zpd3HMdy4IEHbhAHFqYkJR77779/dEQBILxBBQqNKc8cjSkXImf4MeU1atQIHnroofSlQ4cOwUUXXWTjuNnOeKa4R1TGeeGhFQ+ojIVevny5Oed64YUXzKELx+DxNQ7jwXBkwva3337bxrwxnpkxU+DH/uKFm7HqhI8dO9ac2xAeCkfbLytyO6ac8Vvhh9O8rDN+mXRwbcZY77jjjjY+LPyIR3vbV94WD87pypQpY+OhGX9GXjB2nvHbOGwhzqVjY8rZv0SJEjYujbHfXGvFihU2HtqPMXvnnXeivVMTVmRsv8WLF0chafgx5TihOfnkk+08+AJ46623bMw22+JjCMlnwrjPOPLD0c/MmTNtbB3hLBMmTIj2Xg++AtgWivPg1FNPjUIz4o/3MKYRT7XJfOratavlD2Up7p0Xh0Pkf1i5M0d03Bec7zBmkfNSXj2UK8oh4Tjn4TyUK8Ym7rvvvullOKwYRUekQf4TnhxjL4TYODSmfMvBePKNcfSG5+9U8B0+8cQTo7XA/Imwf3JMM0yfPt22ZTWmnO8k7+lU/lW8Txq8mYP/VvXq1cvW46xbty7Defz494cfftjW43BNvqWhoI1C0sCpGu99HIPGWRM5/oyPKae+w/k//vjjKGQ9fDOIC8d5uN4xxxwTrWUEfyx8yzydO3e2czNePwnXY5YRP6a8atWqQYUKFTLUNzw4vSMe2fmcyU9IlG9DSJQLkTO8KM9swWkLH61UHroffPBB+xjG96fi8PTTT5v4ik+f5vEfwPjiPcDy4Y9PMeIXnKSce+659hsBmxW5FeUwdOhQ8w7rr+cXPHzPnTs32isNvy0OApOPafxYxDhppdITF+WAczQ+7PH9/UKlJbsP78svv2z7vv7661FIGr6iQ4MKojx+Xu4T9yNeYaLRg/jF92OpVKlScPfdd9vvIUOGRHuvx0+Px0LepcJvjzN79mzLU7/NLzgiSl4HT7zx6W/8QsWRChHHxPOJOFGpie+LEz+cFvmp5pKinEYQKlA8A0KITUeifMuxpUX5Bx98YPszXWf8O0tjrfcWnpUoZzYPGoTxFp50LDdr1iw7/rbbbrN16hM06tKYmpz+7LHHHrN9/WwaXJ8GWr6ZfEM8iFe+5eybFOWXXHKJhcdFP98LPLcTHhflxI36CnkR9/jO/t75GnrLkxtRTmM3jf6VK1c253YeOjDIJ75R86NpR++55x67Fg3VcWi4J74sBUmU2x0LE1xgwDQSZzyYgzAWQqynWbNmNq4Ss1QhROZgrsa47SSYSWNWnWp8WRzMsxkHzdgpxiqHH28bP8w5cSRTpUqVaM/1MH6YscKYpXMNzJa9kxrM5ceOHWtmxxyPYxjMmMMPmi2HHHJIlo65GH/GGDGumzTJ5nrhR93tvffetsTBvHvEiBF2fPhRtTFgmOJ507nsCCsI5gwP82ri16hRIxsLxvU4d9xBHjBemvfTtGnTzLQt/NCbWTlj3LNj+fLltj/XGDBgQBSa5oyGdx+m5ZikM76fMWqkh6EHDDNIEn7k3eeff24m3vwOK0k2npw4E3dM5RnzlgRfAtwr0sv5cwNlg7iRZzjw43qpzsGYb8rWjz/+aHnK9w7zPsaIMw6f8ZXx+8MnfsyYMWb6Ttlp2LChjU9MtT/pI12UL+67EGLTwRkXzqtS+dgQmwbfM95bmY1nBr6PEydOtN9z5syx9zkm2DgTTVKiRAkbp+3HevP+xJwcp5pcg/cy70uGo+GAle8271Dv9DUVmFhjak0dgG8R56FuMGTIEPvO8e7nHQ44NmvRooV9+0Mxa3UBhpHxPsZhGvHiPQ6huDZzduLDd4Dz880Kxb8NqWPoG98vD+chruQXztMw++a7gC7wvkviw6C6dOliPnK8c1HGwjOs6pNPPrE44kMF83Lgu8H5fD7H4Zv83nvvZRhX/tRTT5nfFtKCI1ec1fH9Y1hcu3bt3EMPPWT7/fnnn/ad5rwMqyPehOEsLhTmlod+iFeBAFFekFBPeeaop1wIUZCh1zv8yJs5vMf3lDO37JbEmzLS65BfwSyeNBS0uV+FyEvUU77lCMVhcPbZZ2e5xKf1omeWMOb0TgXDoLAsi4O5N8N66AmmRxirKd7z9CDT+0xvblbQk8twoFCQ27zdWIkx9SdTmzKkKAlTpGEFx/AxrJ8YlhQK+/QhbXGwnmKIG1OuMiwJ0296orGkS/aUA1OWEQ96mPfee2/rxZ46dar11hOfJEzbxpzkxJtrkAfPPPPMBhZWTMHpe/yTdOrUyfRHkpEjR9q5iTfpZF507kuy5xurAMz0sShjP/YnDamGkeV31FO+DUELnXrKhRAFFXqx6a3u3Lmzu/322y0s2VO+JaDngdZ6eil4x3oLh/wGPRF4sKf3JLc9/UKI1KinXPzX4Gz27bffztBTLrZ+cmaDKIQQQmzl4NEWM0JM7P8LmLMd77kVKlSw3zQG5FdBjhklJp00YkiQCyGEEP8tEuVCCCEKDIhkpgzzIJiZvg7BvrlhLB/j2hgPyDzyzFeeX2Fs39lnn53S34EQQgghtiwS5UIIIQosOLZ5/vnn0+ch35zgoAZnOgyXYh55IYQQQoiNQaJcCCGEEEIIIQoADENiFhmRv5AoF0IIIYQQQogCAH5B5Bsk/yFRLoQQQgghhBBC5BES5UIIkQUFbNZIITbg008/dT/++GO0ljXLly93I0eOjNbEtozejUIIsfmQKBdCiBQ8+OCDNr0VJmC33HKLGz16tM13nRMKFSpkS1YcffTRbsqUKdGayAn169d3o0aNitbW8+6777pGjRpFayI3LFq0yDVs2NDKOWMQK1eubGFJmMN82rRpbuedd7b53idMmBBt+W/BsV6TJk3c0qVLo5CsOeOMM9zw4cOjtQ3JybO6NcG9yutGkaeeesqVLFnSyswVV1wRhQohhNgUJMqFECLBTz/95O666y73zjvvmFBh/ukddtjBBMnmYs6cOW716tXRWsGmTZs2rkePHtHaxjN37lz3559/RmvrWblyZY57ekVGevfu7Y477jhXrlw5m+Ltm2++SdkDSt4zlznPwSWXXOK6d+8ebflvQQjyHOZUSP/www/ujz/+iNbyP3mdniVLlribb77Z9evXz96N3bp1i7YIsXWxNTe4jR071v3+++9uxowZ1tBMozLv16xgXxok//nnnygkZ/B9/Oijj+w3/1lPxcCBA90jjzwSreWcNWvW2Pfh22+/3SBufEsIiy8icyTKhRAiBhVNPi677rqrO/LII9OFyLHHHut69uwZ7ZUG+9JzR0U5O/hw0dP466+/RiEZYfvXX39tH94VK1ZEoalZvHixXfe7775z//77bxS6np9//tmu9ddff0UhabDOR5H/bF+4cGG0ZT1sp8GA83OdOOQFaQb/sfUsWLDAzkleeFFH3Gh4IIzt/GaJi75ffvnFffnllynFts/f+fPnRyHZQ4PKV199lR43rsU1k5WBdevWbZA/HtLJfSAf4nH1EB/ivGrVqigkDZ8/XC95rxEzhCXTyX0nLoSzPd5LTf6nug4QNmvWLFtSiTTmT/dlJJn2OFTEvAUIgjezxqdixYq5nXbayX4zn/lbb71lcc8K8oMlSfx+UEaII3FN9tDHj/fljfnmmeIOKxYP55s9e7abOXNmphVOX+Yze/7icA7yPZXFgId7RvqJFw0ZPLvxsuLLXTyM+BPmIU6ch+eduMV7/3kuCEuVf+DLWKpnGL7//nvLU84fh+P8OyOrcpGqjFO2qXxzHFMMErfChQtHW4UQOeXCCy+0d9Zjjz1mVkd8b957771oa2p493322WcprcWygme2efPm9pv/rCfhmb711lvdUUcdFYVkD+8WLAr33ntvV7FiRVepUiW31157uUcffTT9vUfHBt+U+MK7++KLL7ZGCZEgzLgCxUcffURJCMaNGxeFCE/Tpk2DI444IloTQqSiffv29g5hKVSokC2vv/56MHLkyCD8+ER7BcGgQYOCPffcM6hcubKFh6I9CCuyts0f7xkyZEhQqlSpoHjx4sEee+wR/O9//wvCD1MwduxY2/7pp5/aOQ488MCgSpUqtt+rr75q25K0a9cu2HXXXYNq1aoFZcuWDWrWrBmEFXjbFgqxoF69ekGZMmWC8ANu21966SXbBpyba1eoUMHiE1aog8suuywIP662PRRHtg9x4fyhCAvuu+8+2watWrUKbrjhBlt23HHHIBRmduy5555rca5evXpQsmTJ4KSTTgpCkRmE4tjyL5mfYQUgCIVPEIo7iwfXLF26dPDkk09GVwqCDz74wOKxyy67WF5xbeLNNZO89tprdh9atGhh+RuKymDfffcNxo8fH4QCJAgrGkHHjh2jvdO48cYbg/PPPz9aW8+7775r93W33Xazax9yyCGWLxAKoOCUU04JihQpYukkzQ888IBtA/KhQYMGQVgxsXSx3/3332/7lChRIj1uAwYMiI4IgjPOOMMW7hXHhOI3CCs1wd133237k3auE1ZuoiOC4O2337bzhZUgSzf7EObhnvkyQlwOO+yw4Oeff462riesFAXbbbddEAr7KCQIQpFu9yfJsGHDglA82m/uOfffl9/M6N69e3DQQQfZPfBMnjw5KFq0aLB48eLgp59+Cg499FCLoy9vt912W7RnEFx//fXBlVdeGbRp08byjWeCuFKWfBxHjBhhZYdnhzJPXvFserh/V1xxhZWHVGU+/qwSz3vvvdfuLcexf1h5DkLxbdvjkLYaNWoERx99dPp9Iw0+nykrnJd0esgv7qnnyCOPDJo0aWLXY6G89erVK7j22mvT7zvnphx7uN/kSTw9l19+eXp6fvjhB4sTzw7lY5999slQdigXvBN4T1A+k6Qq4507d7ZtDz/8cHp++Wf5ueees20ic66++uqgXLly0Zr4r4g/21sbBxxwQDB16lR7lnnf884+66yzoq2Zw/e/ZcuW0VrOmDlzpr0HgHft7Nmz7Xec0aNH2z6p3v2eb775xt5PnnvuucfeEXx///rrL1sGDx5s73HCYOjQoXZe3oMsvF9IN98k3sse3qcTJ06M1rZdJMq3ISTKhcgZycozxEX5kiVLTJT07dvX1qkQX3rppSYKIV4Z+OOPP0xQPPbYY1bpZ/HC34uac845xz62njfffDM49dRTo7X1/Prrr3bcjz/+aOtr164NLrroovQPZevWrYOTTz7ZrglU5omnbyxA/CKc+TDC119/bQK+d+/etk7lGyHkRRQCaPvtt7f0AsKYDy6Ccfr06Sa8uUbt2rVN4MHq1atNnPTr18/WoXnz5iZ24tx+++3WoLB06VJb53wIBv6TLuJ11113pedZly5dLO2ZiXK29ezZ09apWNx0003B/vvvb8ciQhAxXrisWrXKRE+yErB8+XIT475xgP2oKPn7iohHsNCgABxP/n744Ye2jihHCC1YsMDWKTMIl8aNG9u5gMYBHy9AkCNMFy1aZOs04HAM16SSw36UDfLUQ5xefvnlaC0Inn766fR3O2ngeC+0STPlgkpPks8//9z2/fvvv6OQnFO1atX0cpMZiHju6ahRo6KQwCpilCPgmSBuviKIoKSRwOcfZZH8RahPmzbN8j0pysnzuDDkXiOoPfwm75Jl3jdWcS4WeP/9962xY8qUKbZOmT788MODrl272noc8pO4jRkzxtapcPJ80YAAORXlJ554ot0zeOaZZ+x+XHfddXbfSCN5hYD2IMrj5YUKNo0SvjycdtppVmn395R3CcKaZxW4HxUrVgz69+9vlewkF1xwgb1DfBn/5JNPMpRx7gP3SOQcifItA+9GvsG8Qy6++GJrAPXfIfDP9pw5c4InnngiCk3j8ccfz9DYxXPk3yO8t2hIveSSS6wB74UXXrBnkevRMDVjxgzbz0MDsm9onTt3btC2bVtrzLvmmmuCzz77zMKT8EwTL76LPLscR0OYf08B34wOHTrYf7QN8eD9RwPgsmXLor3S4st+PM/+2j169EhvTKS+wHsGjjvuuPT6QJxbbrnF0poKOg2aNWtm9RjfCM31qQvQYZGEBgZ/PUQ5394kpJmGCc9TTz1l7ymOoxHRv9+3NSTKtyEkyoXIGdmJckRg+fLl7aPuF4QxHyk+3L4yAPQwcpwXYUCFm4quF+X0jNGbS08gLdapPprAx5feND68fLj44COCPYgNhE48Xoin559/3rYjGvr06WO/PTQQ8MH1IOi/+OKLYPjw4cFDDz1k6fA9xQgEKv1JENFUCKi4c35a4+O93qlEOWKJlvZ4XLE2ePDBB00IkJdeRAP5x3kzE+X0lMZB0BJ3KlBUahBb9ILDK6+8YoIofk+Ac5OH8QoB4gfxyr7EiXjGoeKG5QAgEOONK4BgQhh5qIgRL9/rjChP9uJTNqjoeb788ks7Jh4vrCLIJ+JMw4yv+JBuGhywBKD3nH18g0AS0pKqtzQnHHPMMSmFfhLiwf0HKsxU7Ogp8SAWSR/ljYoz6aRhBhDlvnLnSYpyoNGIiiMVQHqNyXMP5Yz7HYfGHr6HwLlYgPt4+umnZyiTxD8uij2kncaoOFTY69evb79zKsrjDQqUiXj6AUsAyqQHUe4bAz133nmn5TH3mUY00htPA8e/9957ti+inMp9Kijj3J9k/SlexiXKc49E+ZaBHmYaOHkWEXl8m2g09fhnm0YvrHP8d4z/NH5hqeWhMc03qHEOnnka7mgo49vCtYB3LYuHZ4ZvLI3QNGTx7rn55pvtO0gjAc+bb+TLjrp161pjgYcGa+LPN4KGRazcgHcv8fJQX2A/4tGpUydrXEfg0gufU3iXxRsuSBfvDKzesMjh++0bAoHvE+8Kvv1JCPPfnMxEOQ37pDcO3wfymZ510sI9jdcBtgU0plwIIXIJY3iZGir8UKUv/fv3t3Hn4Qcp2iuNsKJt49PDSkAUst5ZleeBBx5wYYXCxqxfddVVbr/99nOXXnopSiHaIw3Og+dlxpuGH3xzDhMK1XRvzGGlwOIRjxfbww+0bQfOEYdt4cfQfr/++uvm8Avv2k8//XTK8aqhsI9+pRFWcCyMuOAkJhTmbrfddou2Zg5xDT/YGeIail7z6kyekT/kk4f8S8Y9TnJbWAmzhbSFIte1bt063SdAKIRcKPg2cAIUViRcWAExh2eesJLlDjvsMBtzx/ZU+UdZ8HDNOIzFjoexDmGlx/5DKIyjX2kkj/G/fXlo27atCyuKNgYwFGAZxgaz7/vvv2/pDsW+OQbac889La+TMB6YeCTLWU4IK0sbpDUV1113nY0/Zyw3zsHIy8MPP9y2EU55C4W0OQLE9wBjDuMky1uS9u3b23hGZkjAaV2qMdhZlfk4lEn8EcTLJOPUDzrooGiPjCTTz32L31eI521yG8TP4ctGMix5XDI9rJOevyKfEZTveBoOPfTQDGUsszzlOn/++We2ZVyIrYEjjjjC3iG8YxijzPeH8dbJ54Xyy6wFQ4YMsfW3337bXXbZZeb0jGeGZ3Tw4MHu3HPPte18e/mO8v/qq6+2JRShto1rvfHGG+n+HyZOnGj+O8455xzzZ8JzwnuXMeP33HOPvXdz8j2EVq1auZdeemmD93EoyM1/xJNPPmnrfr8kffr0sffhnXfeae/C1157LdqSPbw/9t5772gtrY5DnYS8471833332bfQw7uSdCXf10AY31wP/lSuvfZaW8jLs846y75bTzzxRLRHGpyPbxt1iurVq5tD0az8ehREJMqFECKXlC9f3gQkH3cEEEvfvn3NS3tSYCGe5s+fn0EE4PQs7tSJiv+NN95olQQcRuGk6eWXX97AwRkfN+BaOHxBnPOR6x55wiZenMfHiYVKOVOJebhWHBzMVK5c2X536tTJHLcwbzWVndtvv93C4ySF7AsvvGAOXmbNmmWOal588UX7kCdBxMUhrnx043El//hgk2fkD+nzLFu2LEuHb3hfpyLh4cOOQONcQD4RP66Dg52WLVtaeBzihHO3uAAZM2aM69Chg1U0EH/kl4fKEyLO599/weLFi805EJVB4oajNvLMQz5R0aT8cB8pa1R0mMYqyR577GH3xZer3MB5OT47KBt169a1cvHss8+6G264IdqS1hhFJXLSpElWeeX+J8tJsrzFoWJIeWW6wrFjx7pBgwZZ5ThJVmU+DvcfAUsjly+TNBb873//i/bIOd4BWrwskWebg2R6WCc9iGkWyquPP9PBkce1atWK9s48T2kE2xrKuBA5oUaNGumOKplB4pRTTom2bAiCG+ENfNv49vBM0Ij8+eefWzlnmlLgvIjQM844wxyfIa690GcfBCMCGGgAoxGb7z7PCFNH0tDIf95FfGv23Xdf2zc7mjZtagKY+MRh2sH4M9uiRQsT6cn3AM+uB6dwvB+TAj8z6EyIN0ZTv3n88cfd1KlTLc00AsQde9Jozvc2J+fnvYKgZylTpoyJb75j/h3p4fzUJ2i0ZbpY8jbeELAtIFEuhBC5hI8/HxfE0Lhx46x1vnHjxukf6ji05iNM6EmmAoFwwANq/IPUtWtXOxdiALFNKz09xixx8JyMwEZoI7gQZePHj7cPMNBbeM0111gLOdupnBOveE8q13r00UfdsGHD3N1332370vIOpGnEiBHuk08+MaFDxQVS9fB5ypYta5UDBABC8Y477rBKRfwYhDEVIjyxIoz5kBPXdu3a2UeYuNJqTr7SU7f//vu7k046yfKMvHjzzTetwpKVQKNSQa8wvSEDBgyw/MRLOGkCztmgQQMT4/Sa+17JOFg6cL/IMypu9Oyed9556ZUVetdZsCJgbnR+U3mgV+S/gsrSLrvsYr01lBXSy330+Y2oPf300+0+kK+IVcpJKlF1wAEHWKWHCl4SGjmoPJH/SegZQmB6oce9ZV8aNFKBEH/ooYdM/HMfPZQdnh3Kzccff5ye11mVtzhUhHfffXd7rsgLhD3pTh5PoxW9aJR5Ktivvvqq9ZQloXJNPGjE4BngWa1Tp45VTHML8WL2BqwAaLzj3UDcNgc0sPhnmKkbfa8eDUc33XSTlXHygvvP9GU833Grk6ygTHO/8rKMC5ET+I7SgMRzS+MZ367M4FvyxRdfWOMxQpl3Pd8Hnk2ec0Q73xcag4855hh7N3lLJBr+POxDbzlWVzSA8u6jwRd4xuhR553LsSeeeKK9d/jm5gSELvFI9oLzvo/Du5b3KL3hceLfx7jAzgl8V/j2ekgL7w4at/lO0xCM6KdxFWi8pD7Cdz9Jr169rCHWw7sQyz4W6iTkKfnPe9hDWipUqGBCnM4B7hONEal64gs0YeWoQKEx5ZnDGDqNKRciexi3ytjUOIx7xXGLh/FVjPHCWRnjsRgXzHhe4B0Uf70yvpR9ef7CyoE5CLvqqqvSnXEtX77cHJ/hhIWx5Tyr8XG3ccKKtm1nP/YPK/rpTpxCMWLj0hkPx7Vw+ES8PYwpxxkaY9IZz3rmmWemO3CC77//3o5hW8OGDW2cL/HECQ4wji0UF/bbQ5qJeyjQbEx4WAmx/YiHh/HPjEvlvMTZjwcOha9dh7iSJvLFgyMZxmf7uBBPnNHgvTsJ42bJB+LLmF7yhnHDKyNnVR7GlIeVFXMolhmM4+M6eLA+4YQTLD1+3Bz5y3hePKwTZxwMzZw507YB4+hDsRytpYHTLsboexj/TB77e8Y45FBA2W8PZc+XDWDMIMf4fMPvAI4AiUMoZC1vGOfotzOGEeeBvoyEFcQN8sKDg0LKQxLKN3kQVqCikPUwhh9nY54JEyaY0x6cqKWCeJEmxgjGwVM5jsWIJ/eNfGDsMuOWgTGdcW+/MG/evAx5wbee8kE5wTkeeUOe+HtG2sKKo+VBqjKffFYZz41DP/ZlbGmq9ANjvXGuFIcxmIzp9OC8ifviyze+BeLvFcrsxx9/HK2ljcUkbQsiR3dA+Yp7KWbcK+nxzzDvE9LsWbdunT1/derUse2hIE8fSwusp3Lw5klVxkPhE21NcxpF/oqcE4o2jSnfApRO+OtgbDnPsn83JJ9tnkHe6d6hGe9V7kvlypWDSZMmWRjfXb4R+FYBnknGnntfEcB4aXyU8L7Bj4gH/x1cw/sLAfzFeH8MOYH3Gefmu8q3iPjj4DUJ7wBmCSF+pIP9qEd4+GYTxvOcE/Arg3+ZzCBP3377bRsL7qE+xJh+6iQe6hv40OG7BrzTU40p5xtLXnkYS49+y2l8CyoS5dsQPAB8ZIUQ2yaI8vh0XNsaeHiNO/cRgQlUKqaIuTg0GiAgEZpJELZxh0RUGqnsxh0BCSHSkCjfMuAodNdddzXBTKMwDVRxccpvFk///v1tHXHpwWlaxYoV08Ug70Eal/fbbz9r+MRRJP+TTh1p5ONcfvYFQCDjbA7HaP4YnJMyNWhOIR5MI8l3OitRTjzLly9vDl83hyjHWzuNkLmBhl6+Edtvv70JcRoJdthhB2v08I2imYlyHOPxTPgGFJFGIf6EN67AgOkZZo+YlDLGRKyHcTeMV8EUTQix7RFWMMx8LNW424IMJo6Y1Ldp08ZMcmvWrBltEVQBMG9m2EN83DFj/jDNxIQwbgqJCfr5559vZvOYPAJmofPmzXOhWLd1IcR6eLYYuvPzzz9HIWJzwdAp8nWfffYxh2hz586130nfLoCPEd5T+I7ww8d4z4XC1czVPaFQtKEfjJlm/Djm1+wXHxvOkCqGkfHui5uN8z7FBwP+UHg/4tgyaX6eHfjamDBhgg2hYhgR101lxs2wJUzxGYKGkznMv/272qeVYVtZDfvy4IgTB7PkpR/ylVNIqx/fjhPJuMM4TOL5ZiTH1ae6F8I5ifJtCIlyIbZtbrvtNnsPxMXXtgDj+qjg4LDLe9gVQoj/AonyggWCEt8u+FxJ5ZtiU6Gc4O8DQc7sKZmBDw8aInCAmvQ/szFcdNFFrmrVqikdvIr/Bjl6E0KIbQTE6bYmyIHGCBziSZALIYTYWOidpkeZnmtE7JaA3mMcTWY35SQOVOmAzKkTx+xgyjUc4om8Q6JcCCGEEEIIIbKA3nFM1/E6viXNro844ghXokSJaC1zjjrqKDOv3xzQ205Pucg7JMqFEEIIIYQQIgvoncbaLLdTjgmRE1SqhBAiBcyfjOMq5hp99tlnzVkYc2nnBByrZOdchbmAv//++2gtb3n44YdtLuutGcz5nn/++WgtNYz1Yz5V5lbd2sB9S7du3Wws4sknn2zpSUJ5YD5oytxVV13lVq5caenJ6VjU7Mqdn3s6L8nJs5GfYQ7eVHO75xXx/C7oeS+EEPkZiXIhhEiwbNkyd/rpp5uzSLyV8x8vpz169Ij22HRefvllt2jRomgtb3n77bctfVsLiFcaReJMnjzZ8swzffp0d9ddd0VraSDKn3rqKfPAu7WBGGY84uWXX27/GTeY5IILLnBr16519913n/3Gcy3pwZHP5gCTS7wFiy0HYzxTNbgIIf578KSOd/XMoLGUfVItWR23MfhrZXfeBQsWWCfAb7/9FoVsCOfhOzdr1iz7TmxuaAimTsA3NbeQThrGv/nmmxzlIY3RkyZNitZSs3Dhwk1KK57eSc+aNWuikJxBA2vnzp2jtS2PRLkQQiRgeg+crNxxxx02mwPTouC1HG+nYsuDp2JEd5zrr7/eBI+HKWD69esXraXB1DPMMFGvXr0oZOth6tSprm7duq5ly5b2n2l7kjBtW9u2ba0nnd7yPffc09JzzDHHRHsIIYTIKccff7w1bGbGl19+aU7bUi00yG9Ohg0bZudt3LhxFJIRZo9iSjE/vVvp0qXt3R9vMEfwvvjiizbVWcWKFW2aU/bDC3xcsG6shQwCmW8P5z/88MPNqR3WPznls88+s2ngDj74YKs3Va5c2Y0cOTLampoBAwZs0MDu+f33313Tpk0tTxg/z3RriGTyISfw/aQORzp8el566aVoa/bUqVPHpqjbXA3j2SFRLoQQMegN9x+4I4880hZ6GOn9atiwYbRXmnDn47rbbrtZrycCPrNWZVp46XkvXry4fUQHDhwYbUmDF/7ZZ5/tSpUq5fbYYw93wgkn2FynqeDDzTzb7Md8osw5zhyqsHr1aovvCy+84A499FC366672gcWQeih9R2vsRxPvDGPzuwDx/SJxJtKwaWXXuruvPNOCyc9Z511lqW9XLlyNoWKb4Emn9jWp08fd9BBB9k+pC1uqs8csAhn8oOpXx588EFrUacXl/hPnDjRdenSxX4Tf2BKM5zsAL3ITG9Gvvl7RG8/UAnzeffXX3+5du3a2RypXOvUU0+1+V891157rZnu43GW7ZUqVcpgIs88tczTzRy2pKNGjRrugw8+iLZmhJ4F4oWzHO4jeew/5MT7mWeecR999FF6fLHG8NBLQBh5ePHFF9tvKh7kCb99z/+KFSsszsQHJ0DMF04PQCowfccEnrgg7ul9p3fFQ4/8rbfeapUc0k4latCgQdHW1FC+qaRQBuPQ89+pUyf7zbOCkyKcDxFPGiGWLl1q25LcdNNNrnfv3tFaGpQV8gnWrVtncwFTkSKOlMV4Tz+VXMo594Y0Xn311XbPk1C+ea65vzwTRx99dAYzfqwyvMMknqkWLVrY3LpAPnIPqAhTUeZ4KnlU5jODd8eNN95oZYEpjXg3kN9AXBhGQOWbc1FeMytT99xzj9038pA0Mg8xMyj455UhJzxrcbAm4dkQYlvk66+/zvY9lgq+GfTsxheGmAHfQYSpf4Y3lp49e5ql1PDhw226szi8t3jvMLyJ9yXvfhqeec/z/fDPPO9L3nNMs0fvMe+nESNGuNGjR2/yc881mKGEazL3ON8/3uvUh3JiYbVq1Sp7f2NZyPeN7xXfROooxHVjoDGebyv3g/i88cYbJpIHDx4c7ZE15513njXWkx7eyw899JB903M6NTTvb+pj/9mQpPAmFCjCjzklNxg3blwUIjxNmzYNwspStCaESEUogIKwAh+EL/Jg7NixtixatCgYOXJkEAoY2yf8gAbhyzoIBVIQfmyCsCIQhBX9IBQ5tp13kH+9hh/yIBQVQSiggmnTpgWff/55cMYZZwSFChUKQvFp+4SCNwg/yEH44bDz3XLLLUHVqlVtW5xQFAWhyAoef/zxIBTXwQ8//BA0aNAgCD/Gtj38aNl169atG4RCL5gxY0YQit8gFFxB+JG3fU477bSgdu3awWeffRaEFZHguuuuC3bYYYcgrDDY9ji8T8mHUMwE4YcwCD/8lnbyIawYZEg7cQbyqXDhwkGzZs2CULgE4cc8aNy4cXDIIYdYHMjLUIwEodgIFi9ebNs5/xNPPBEsX77c8jsUSEFYIbLfoYi2877wwgtBrVq17PfUqVODUEwHoRBLv0e//vqrbdt5552DUPTb71CU2nX5HsycOdOuudNOOwXhR962kzehCAuGDh1q6QgrIJZ/s2bNsu1c45hjjrEyEYq0IBTWQbFixSwP4oRi164TT3NYOQmqV69uaWa9VatWQSjm0uPLvfSEFRgL4z6QTn5/++23dt54fJo3b255/d1331lZIX280/29jZe7UNzb9X3a27dvb+cnjdCnTx/L99mzZwdhJTAIK7LBdtttF8yfP9+2Z0ZYGQzCSla0Ftg9I88py2GlJwjFYxCKTiufxJM0h6I02jtjHM8888wgrCTZb8+BBx4YvPnmm/Y7FPv27HC/KTfcj9KlS1s5X716tZWjfv36WfxJx2GHHRZ07tzZjo1DWvfYY48grMgFYeXOrsl9XLBggZ2Hbd26dbM4f//998Epp5yS/ixzb4hvWFkOwoqcPVOkibxNRVjhC4oUKWLnI05hhTkoV65ccO+999p24kIehULcrvfaa69ZmZwzZ45tj3PRRRfZ88c+lE/KH++NDz/80LZTbitWrGi/PeQR7xdPPL/jv8V/B+9KyoDYcnzyySdBkyZNgh133DHo2rVrFBrY+/vJJ5+M1jaE7zHPxJo1a6KQDZk+fXpQoUKFoHz58vbtDYVwtCXnhALb3gu8X3m/3HXXXdGWNHi+iUfy/cs7NBSmQSh4rS5BOeK9mIRvM+933scQf9bjv+Hdd98NxowZE62th3cf+/FejEMd45577gnWrVtn7yDex57ff//d3nUcw7efd1v8+8i3iXf6K6+8EoUE9g698847g5tuusm+T7yPTz311GjrergnvBv9+85DfYf6EvD+HzVqlP0G8og4co0ff/zR0kPex+G7w/U9vHtJH/l8//33W70oDnUT3vn/BQXu7SxRnjkS5ULkDEQRFfU4cVH+9ttvm1jwYgh49yASIf4R/Pjjj4OSJUtm+FBR0Y+LcsTWeeedZ2IRscbHL9WHH5GGOOQ/+yCKL7/8chPa4EU5lQgPHyTC2BcRjPDiQ+/hXAcccECmopxjEZoePuhUTuJp5wOPuCWMfEKkIdA8pAURRAWI69AoEOfVV1/N8G5CAPEhjBMX5fDOO+9YRSmJF+V80BE0XtR7TjjhhKBLly72G1HesWNH++0hHj4v+FAfe+yxJpC5f6SPtJBncbiPxYsXt4qTh3tBBZHGEaBBIC5mU0GlLV7hiYtyKj9UuuLijbJCvlIBAfZlIa5UZnzjBBD3mjVrpovyZ5991hprONbHm7RRrrKCCguNLjQKAAKcRhTOn6p8XnjhhdZY4fFxhOxEOc8Yz1ocGqsGDhxo5Yv86Nu3rz1PXJ90I7KTnHjiiUGHDh2itTSINwI9VZwvueSS4KyzzrL9vCin0uzhHhBGY0ASRPm5554braXRv39/SxdQ5qjYx0FMPPjgg9HaehDlNPzFQXBTlkCiPH8gUb5l4Jnne8TzzfeahkffOOvZHKIcEHuvv/66veu4FqKad0VO4VtC4zTwPqBRP94wi5jmnd2uXTt7H6WCdy9xTYpM4N1FI70/Z/xZj/+GKlWqWKNxEr7Dqb6pCFW+yfDYY49ZPYi6BPnfsmVLSxe/ecfS4JCE9xjPACCg+X7wfr3tttvse1y5cuWUopxGUOor8boEkH/UQYB3IPnmv4HE9dBDD7Vv2htvvJHyuaPh1otsvu3UGahHkTbimWwkpcGD72x238bNgczXhRAil2CWjPlZKLpc+LK2BdPo8GO6gYkb5sWY8TJG3YOZLOaonvBDYuZVjONiP0yJU5lLMS4M82qmZcGcNxSQbuzYsdHW9WAW62E/CD/WLqywmFkc5twepnYJP1zR2oYQV0yEPaQdc7J42jFFD8VLetoxmQ4/bPYbMB/DlBdzPI7HxN0fy4JpPOnfnDAWDXO3eFoBU2ji74nnFZBf5BVgOoc5M+knnuQT5sPJ8XncY9JMnnjCD72N9Ytfa1NgiEJYKbDhDz7fiHsoJje4BmnHlJDhCR7iHM8LvLxjss2YRe4V6cTMOqwXRHukhnlsMefDnJt9McvHzJPzs3Tv3t2GJJCPnJ+hCrkhfn3KCuMJfXpZMGMknDg/99xzZuIdVpJtG8NLwspUdPR6cKjI2MY4mH8yvII4kwYfZ0zV40McPKmeqeSz7klV5ij7QNzDymiGNOFDgfBUZFU+U5Hd/ROioMDwlTPOOMMde+yx9nxhas23dmPgm8s7wC8MEYuzww47mGk3Y6bxZcI4dYb/5ATe27169TKzacDEm2fYD7kCnmtM0/nu862kfsAQF8yvGS4GmIMDQ3WSbL/99vaeycnc6dQhGBaUZOXKlXbtJHzbli9fbr9vvvlmq3dg0o5J/7hx4+xbwHs0s+P5DvrjMT1naA9zvT/88MNmdp8qPcD5+KbG6xIQPx9Dz0Ihbab/DENiON7rr79ux3F8qrne48eTp08++aTdnzZt2ti3gPS99957th347v/1118b7WQuN0iUCyFELkEEMD6VF3VySX4UETuM40Y8eRBM/gMLCIYPP/zQxhQvXLjQKheMB0boxsERGB/TIUOGmOBEDLZq1Sramho+lh4+RoBI8VCJ55qZQWUkDmlHzKRKe5EiRWwf4h0XDqSLMMZncTzjkpPHJsdG03iQHVntQyUHwZNMGw0TWVXc4vlFBYOxa3yMGefXt29fmxaPilkczsf2uEgj/YRtbCUxCY0jgFdbn2f4EOA/DUJxSDv3In6fIZ4XVFoYf0zlhGXo0KGW1nhFMTMQ4VTsqJBxTipEMH78ePfoo4/aeG3KJxVlKpWZQYMQ8fdQFuPPBWmm4u3T6xeuz76MtSQ/KF9UXBHDNCwkocwlx3Ay7hQnQDQaUFEk3cSZBg4aLLIiXkZSkcx3yhxlH4hL165dN0gTMw7khPi1k/kHVESF2BbAkRg+FRBVjKfGz8vGwvOHrwe/0PiahO84zt/w+0HjaHbfXg+Nbryr+W7yvuJbd9ppp9kY8zjNmzc3/yG8l0aOHGnX4t1MIyjfIL5nkHzmcwtjvnHGloRvfaoGP67n6zW8f2g8wE/NlVde6V599dV0IZ6T43nfxn3z0JjQoEGDaC0jnI9vavI7Hz8f4JOG7xnfQcoCDSyQk/ggwKnLkdfUufBbQqMsDSkeX6/Z1HzPCRLlQgiRS/igIrhwcIXYRmTzoW7SpEm0x3r4oCIgaIXlo04FnY9ZvEeLfa677jp76SOccb7FR4NKdxy281Gk5Zj/9AomHWVlBQKRa7Vu3doqBqSBBgB6H3MKH1R6Ytu3b29pp7JBT3fc4RTCAOFEWhEo9ErSOEEvJE5fcGyG4y0+tlQ6+BCSfg95gOBDoCGUUkHrPYIQh1tenMahAsP9IB44qqNRgJ5VnJRR+ckJ3Cfmque+IaboeaYSEbd6AHpqEMLxNOOQjXTQE705IL3kExVB8pe8o1LHNRClcaigEG/ylEoeaSe/4z3AOBDDyRjlgLj7XhafNu4ZPRmp4Nxcn94S8sgfQzwol1wfyHcaMjKDXncqdQhqyhTX804LAdFNZdv3IuNEjrJPpRXHgVwH0U68EeSkI3lvgGeTyhoVQspUnz59zAERxJ8p4Flg+6ZAT81rr71m9wkHUjhCpNwDcaECOG3aNHsH8J97S49RbqHyyTNATxXPEc8Vv4XYFuCZp8cVgcizhHdt3k08B7kFQYc49AszZHh4J2E1haNFHITRKM679KSTTor2yJpnn33W3o18C7AeYkGo8z5DpAPToNE7y7uId3GtWrXsO0XjIRZ4TAnK9RGIOHZLwvEnnniifX82Fhoavv766w2+J8yEgpNLD+816jx8C+ONqByfnDUFeMf540lfvO4DyXUP7zdE9bfffhuFpBE/HxBfvh9883kPeogPx1I/iBM/nnc9lgtQu3Zt+97wXYxDWgHrty2NRLkQQiTgw4cwjkNl3/d2YVJKzyIfUfbF1AzhhulTEo5jX0QmAoqPASIOk2jfAkuvI+LS93BSgScsbuIOfDQQwHxsECJM08aH2/dm88HD1IqPpScZxkeIVmAEJtOM8IHleqk+OMQ9mQ+YopMeWvKJK3FGGFDx8JBPmNjzUaUhANFFRcabyjMFCmbOHI9YJz/xiurBKzeVENLvTYGJH/t6MC+kIYCKGILKe7QnTT5fuR/0TtAajhkbPSBUcogbcD9IT5x4GB7QyWfygHNyHqYsS/YykLeUBSoA7Ev66SVGMPqGFfIplWlfHPKG68UhzN9fTOw4D2nh3iC0yVffgxKH+8H1SCv5hjhE0HtzaEwv2YapJudieh0aMXwvBvcMy4xUEB8amagMYTrooZJKWSLPyS+EL73o8fIYB8/49FIgzhGmCGIqRD49DOugosn5yBcak2iEYpgH8SaNhBF/BDplhl7vJJiN0oBAxZsyRYMSDRpUcjk/vfnEgzjj6RwzVR9n//zEG8h8OU42mgGNNzTOMFsA16IhiucWIQ7EhQVrEa53yimnWHyYBi8J9zn5DoiHkQf0ulMmsSrg3cA7gbwUYlsBM28ao2io4/cruZjCKyfwHqRxmEY9vn1J0QZYCSFokxAnZleYMWOGNY7GF3qs+c4D9QcaXZNWWNQLgO817xbe4TTy+Rk5gMZx3i8Icr5f2cE1+B4k4V3FexQLKg/n5F3GewroueYdyfuUdyiNjH74FO9/4hWfTQKRznA1hrgBaeab5eF8mVln8f3imxu3KEBgU4fx50PQ8w3i/U2dhBlifB7yneZdGW+opMGchhx/PA0czGLCMCjen3wPklZVpIm8T5rRbxHCBBUo5Ogtc+ToTYjNTyhMMjhsyYx///3XnI+EH9AoZENwJPJXzCFcZnCO8OMUrW0cXIfrbQqp0h53iJddPLOLA/mVXRzDj3q2ecE5ONfG4tPBPcwO8oRlS0J6cnr/iQt5lBmkKVXacO6Hw7ONIbflkzKU1TPE+bh/meV/TsuyfwZTnWdzPFNJssr7rOKSW7LLH5G34DyqnBy9/WfwPHhw9IZTMJxcxhdmQ4GcOnrLjlAMm5PHJKGADho2bBitZaR37952nL82Th233357c3p2wQUXmAO1IkWKpM+uAqGYt9lVCOe81Otx3FaiRIlg/Pjx0V7W9WxL8jdk5ugN8Ga+ww47BI0aNbL0hMLYHMn692vbtm2DULynx5lvxLHHHpv+/saRKHHDARzbQiGbwVklcSxWrJilgXBmseB8pDkV7L/jjjsGderUsZk/cETHMcuXp3mZ79WrlznNC8W2reMwc7/99kt3wolzPtKDU9Err7zSZq/hWj49oWA3R294gscjO3GhvOAw09OhQ4d0J31bmkL8CW9WgQHTRFpr6JWiRUashxZ0zP5yOj+fEELkFkzyaHHOzHGVyB8wny4OeZibXQix8TAUBHPlzeX0UeQcrJXohU5CzydOwhjCxb3Bqiczi56cgMUKY9qT48Q5N1ZIWLclWbVqlVl4MRzO93DTK89QFj9kih5qeovjINvQOvTOM/wGc3cslLzfEcDCB9g3/hvo+cbiKm6iHwedwBAcxrFjFcDc6ZwjFOI2Tzi9yVwTsCDAFwnnojcf6B2nNzoUvtb7jyl+HKzIcGjH+XHkicUQ9QXfe52EvGCYE73cWBhi0YXlFOnB8g2fPPgXgH///dfizn5YYAE934RhFYguxGIqbuVEDzvDETgnpuzsx/ajjz7atmOVx/AFhlNtaSTKtyEkyoUQWxq8wd9yyy0bmOEJIcS2iER5wQfB5sWbKDhg5s9QI7RTciaMLYHGlAshhNhs4EhOglwIIcS2An4k4s5KRcGAMfUvvfTSfyLIQaJcCCGEEEIIITYCPKp7M3FRcMCkvnHjxtHalkeiXAghhBBCCCGEyCMkyoUQYhNgehCm9xJCCCGE2BzgMPWxxx6L1sS2gES5EEJsAmPGjHGzZ8+O1oQQQgghNg0cVjO/udh2kCgXQgghhBBCCCHyCIlyIYQQQgghhBAij5AoF0IIIYQQQggh8giJciGEEEIIIYQQIo+QKBdCCCGEEEIIIfIIiXIhhBBCCCGEECKPkCgXQgghhBBCCCHyCIlyIYQQQgghhBAij5AoF0IIIYQQQggh8giJciGEEEIIIYQQIo+QKBdCCCGEEEIIIfIIiXIhhBBCCCGEECKPkCgXQgghhBBCCCHyCIlyIYQQQgghhBAij5AoF0IIIYQQQggh8giJciGEEEIIIYQQIo+QKBdCCCGEEEIIIfIIiXIhhBBCCCGEECKPkCgXQgghhBBCCCHyCIlyIYQQQgghhBAij5AoF0IIIYQQQggh8giJciGEEEIIIYQQIo+QKBdCCCGEEEIIIfIIiXIhhBBCCCGEECKPkCgXQgghhBBCCCHyCIlyIYQQQgghhBAij5AoF0IIIYQQQggh8giJciGEEEIIIYQQIo+QKBdCCCGEEEIIIfIIiXIhhBBCCCGEECKPkCgXQgghhBBCCCHyCIlyIYQQQgghhBAij5AoF0IIIYQQQggh8giJciGEEEIIIYQQIo8ocKK8WLFirmLFivZfZKRs2bKuXLly0ZoQYnOw3377uVKlSkVrQgghxHr4PvCdECI37Lvvvq506dLRmtgWKBSERL+FEEIIIYQQQgjxHyLzdSGEEEIIIYQQIo+QKBdCCCGEEEIIIfIIiXIhhBBCCCGEECKPkCgXQgghhBBCCCHyiM3i6O3cc891AwYMcEWLFo1ChGfNmjX2X3kjxObBP1Og50oIIXLGP//8Y/+33357+58TqCKuW7fO7bDDDq5QoUJR6NaD6lgit6gOITYGyg3l5c8//8zVOzQ3bBZR3qRJE/fmm2+6u+++OwoRno4dO9p/5Y0Qm4eXXnrJzZs3z51++unuyCOPjEKFEEJkRc+ePd3y5cvdzTff7AoXLhyFZs2oUaPchAkT3IUXXuj233//KHTrQXUskVtGjx7txo0b5ypVquRatGgRhQqRNU8++aRbuXKlNVJu9aKcSvKkSZOiEOHZaaedXIkSJSx/hBCbzi233OIef/xxN3z4cNegQYMoVAghRGYMGzbMNW3a1NWvX98NHTo0R73e33//vTvzzDPdsmXL3BdffOHKli0bbdl6oHFhr732cj/99FMUIkTW9OvXzxqZaNC56667olAhsubhhx92t99++xYV5RpTLoQQQghRAEFQt2rVyp1xxhnu4IMPdr17985WkP/777+uW7durnr16u7XX391r7/++lYpyIUQoiAhUS6EEEIIUcAYMWKEq1atmvUM3n///e6zzz5zJUuWjLamZu7cue6kk05y//vf/8wSaebMme7EE0+MtgohhNhSSJQLIYQQQhQQVq9e7W688UbXsGFDV6ZMGTd58mR3zz33uCJFikR7bAgjGV9++WVXo0YN99VXX7nXXnvNDRo0yO25557RHkIIIbYkEuVCCCGEEAUABPnxxx/vunfv7tq1a+c++eQTd+ihh0ZbM+e2225zl156qatVq5abPn26a9my5VbpbV0IIQoqEuVCCCGEEAWAzp07u88//9ycuT300EM5mvJp/PjxrkuXLu6GG24wk/d99tkn2iKEEOK/QqJcCCGEEKIA8Oqrr7qzzz7bvKbnFI4pXry4e+SRR9x226laKIQQeYHevkIIIYQQBQC8rVesWDFayxkcQ+94sWLFohAhhBD/NRLlQgghhBAFAKYzY8kNG3OMEEKIzYtEuRBCCCFEAYC5xadOnRqt5QyO+fbbb93KlSujECGEEP81BUqU43WUaT8WLlwYhQghhBBCbBvUrl3bTZo0ya1bty4KyR6Ooaec44QQQuQNBUqUr1mzxnXs2NEtWrQoChFCCCGE2DZAYK9atSpXveVHH32023777d3YsWOjECGEEP81BUKUB0FgH6CXXnrJ1ocNG+Z+/PFH+y22HebNm+dmzJiR47Fxc+fOdV9//XW0JoQQQuRvTj75ZBPY1INyyi677OKOO+449+6770YhIqdgkbB06VL3xx9/WF00FVhxMu1cXtdLv/jiCzd58uRoTeR3/vrrLytXPXv2dN27d3cDBw50y5cvj7Zm5LfffnNTpkxJuVAPzqzejBNI9slNZ+e0adM2uEZymT17drS3iFMofImkfovkgiZNmpggygvTJ8ZBNW/e3H355ZdRSBqFChVyLVu2dL169XI77bRTFPrfw7VLlChh+SMyp0+fPvZS8ZWJ3XffPdqScy666CLXt29fs5goUqRIFJo5derUsZfRr7/+GoWI/MAtt9ziHn/8cTd8+HDXoEGDKFQUFPj4Z1dxLFmypKtVq5b9fvPNN62ye8kll+T6vcF3AnLyGWS87ZVXXmnTTbVo0SIK3ZAffvjBzZw5M1pLTbly5dyhhx5qv1955RWr+DBHdG6no8pN/L///nvXvn17d8UVV5hwy4xZs2ZZg2VWVKpUyR144IH2m/f2jjvu6C6//HJbzw25if+nn37qnnzySXfHHXek551IDfd38eLFVjn2eZwdzFN+6623Wvndb7/9otCtn8KFC7u99trL/fTTT1HIpsM76IQTTrC53itXrhyFrofyOmDAAPfss89aucQyAQ466CDXtGlT17ZtW1eqVCkLg2+++cbOc+edd9o88nnFkUceae8a3gXbMv369XMXXnihWdbeddddUWj+AQHN9IUPP/yw+/3336PQNHgezjnnHPf0009n+B6+8MILrnXr1tHahpQtW9ZdfPHFrlOnThnqz4MGDbLzdft/e2cCb9X0/uFVSopQKSEiKTJVSMo8S4oyz8o8Kxl/KJJCpkwliWQqGeJviMykqMwyk5IhQ8lY9n8/713rtu/pnHPPrXs7d/g+n8++9+x19t5n7b3XXnt91/uud910k72jcoGZHGbPnu3X0sP7e9KkSX6tYsD1vuCCC6wjDq1SJsSVyzITN1Kirbfe2q8tP+KCGW288cZRrVq1oviFEr322mu82aMRI0ZEceGyz6eddprfOj/EjZUoLqB+TaSD+7jZZptFdevWtXs2ZMgQ/03JiCtZ2z8W5T4lOzvuuGMUV0R+TVQUevXqZfc5FuU+RVQmxo8fb/c327Lbbrv5raNor732srTPPvvMp+ROOF4u/PTTT7Zt3LD2Kemh/grHzbTEAtZvHUVxY93S4he9T8mdcLxceOutt2zbYcOG+ZT09O7du/C4mZa4Meu3juz926RJE79WMsLxcmHs2LG27bPPPutTRCbuu+8+u1Z33HGHTymeWbNmRXXq1LH2HO/kikKNGjWidddd168tG7HAib777rsoFq52/WbMmGHPfSzS/RaRPaehfRk3zKO99947isWOtT94Dkhff/31o2+++cbvEdlxSC+u7ihr2rZtG22wwQZ+repy77332v1I1mMVBZ7NHj16WP5XXXXVqE+fPtGYMWOiJ5980nRQ69at7bttttkm+vfff/1eUTR8+HBLP+aYY6JYsBcuN998c3T++edHzZo1s+9POukkv0cBod6NRblPKZ611147ql+/fnTllVdmXO666y6/dcVh4MCBdi2W5l2dKxValL/66qt2gS677DJbDxXpu+++awV3l112iVZeeeVowYIF9n0+kCgvntCZwkPPyxWBvjSNAonyqoFEeeUmiHIasM8880zaZcqUKX7ryNbpiP3tt998Su7wOyy5UFJRfuONNy6R77C8//77fusoevjhhy3/ixYt8im5U5L8l1SUP/DAA2nzzvL555/7raPo7rvvtm2XhpLkX6I8d3h/Ihbp6C5JZxVllmvMPa0olKYov+WWW6Lq1atH++67b1StWrWoc+fOdvz//e9/foso6tu3r12jDh06LHFtue6XX365fX/EEUf4VIny8kZFFuUh71tssUU0c+ZMn7oYhDjllm1Gjx7tUxeL8lGjRvmUosyfPz9q2rRpVLNmzej777/3qUsvyps3b+7XKg/LQ5RX6DHl3333nf1P58qGy9Yll1xi7haxKPepojyCCxjuj7if9+jRw8UNVvf666/7b9MTNwrN7RO391zGab333ntu5MiR7r777ss6NiZ+yRZx3WSs2KxZs/xaAXHj2T333HMubki7hx56aAn3oUD8fJmb2P3332+uQ0888UTGbXGHYfgHeSQ2AucfV67+WyGqHltuuaXbc8890y5bb72138rZ+nHHHedWXXVVn1IUni2exaVhWfbFPS8132HZdNNN/VbO3F3JfybX9WXN/9Ky8847p807S7NmzfxWzlweM7nzk++lzX/YV5Qc2j933HGHW2mllVzXrl1znurs9NNPd3vssYc76aSTbNxnVQP33okTJ5r7LuWPceIMp2PIBDBe95prrrEhiY899pjbcMMNLT3AdccdeptttnEPPPBAYRs1Ccd9/vnn3ZAhQ2x4ZbahjQzF43dwHaYNke54AcYM0x5iW/6XZBYiygdu+Nzz5LPK+TNMjGMyTOWFF16wccxJaKewb7ohL4yl57tYPPqUxb9F/vge92iuBUMPwzAA4FrTHuK3x48fr/aQh2EmQNlhGFQqNWrUcNdff719ZptcIa4EQ7O4zsUNvxJlSPwALjP5spRPmjSJ2sPcNyBpKS8vyFKeHaxPuD/iDgaxwLYeaqze6cDr4cADD7T7HBZ69s4888zo8MMPt/WkpZzj4zGR3B4Xvf79+6e1lNO717FjR7NkHXzwwZaXpKts/IK0XsDk8eKGT3TeeecVsXTR60hve3I7FnrdcTFKMn36dOu9Tt22cePG5kUgiiJLeeUmWMoffPBBn5IdnmVc9pLPX9xwNCtIcMmjjojFSfTGG2/4LQoIz1qSWAhGccO78Jmkvjj77LOjjz76yNZztZTzfsoFhlhh1UyCGy3vtbXWWsuOxXsEy1vcWPJbFMB3LEmoIy+++GKrP/iuXr16Zt178cUXbT1XS/mcOXN8SnYOOOAAc6dMEguN6JRTTrHf5lirrbZadPLJJy9h2eE7liQ//vij1eerr766fUd9e8MNNxS6ZMtSnjsvv/yyvXNoo+XqiTF37twoFpvmio0rd3mnNC3l8N5775mHJdbxWJxHr7zyiv8mip566ikrgxdccIFPSQ/bUWcES3qwlB911FGF7sVhoY3B8VK9A6n/cAFObou7PO7FWEMD7IcFj3ZUcluOe+mllxY5bjpLOc8qVlfqmCeeeMKnFngghWcwuVAnJT2VcO0nnec9lXQeAq+//nrh9uutt17hcVm4j9RTeGqknjvbLs0QpXRUVEs53mDc1/bt2/uUzNBWTbaRirOUwwknnGDbTJ482afIUp5E7uvFQGWz+eab20VCkA0ePNg+P/7449YoKw9IlGfnuuuus3uWfPHts88+9oJBUKfC2C2279Spk1U4iGcqGWILcK35LinK99xzT0ujQUtlzwv39ttvt3vC9ulEOQ0SGpE06E888cTonnvuse9w/6QBwG89//zzVkHSUD/uuOPsN66++mrbDgYNGmRp/J89e7Y1shHfO+20k1WqyY6j7bffPmrYsKGNCaJBxIIwadSokeUn+QIWEuWVnZKKcsQe2wfRwf/gvnfsscdGI0eOtHdDq1atlmhksw1LklNPPdXS2J6GOcOjttpqq6hFixaWXtqinPouKSoQ1fweHQlnnHGG1T+MwaNRSiP5448/9lsumX/eieHct91226hfv36W35YtWxbmv7RF+SabbBLtsMMOfi0y10fG1DLeEbFB/XzJJZdEa6yxhrlHJl0jU/P/559/2rmTtvvuu1uHy7nnnmsCcaONNrJ0ifKSwfuO64Zreq7wXl1llVWW6Cwqj5S2KKfTnGeIZ4l3O+NtAzyHXMuSvnuCOGWhrcrQyy+//DIaN25coTB96aWX/NYFBicEOAKez7QB6NCiPmDbpDs9Q0dIa9OmjbV9GVoyceLEwucdcR1IFeUffPCBXTuezWR9hejgWaX9gQCnTcWzSRuFjjZEfBD7SyvKWTifadOmRZ988onV0dxLOhMxdAwYMMDyx0IHJdtj6CgNKqooT3ZolJTiRDnvFd4vtHv/+ecfn7r0opw6m7KTbpk6darfsmIhUZ4DCB6srLxAuFhhYSwVvZJYXvOJRHlmqNR5cdCoCxU8MMaSe0glnQTrM2K9Xbt2SzwUlIPQUxxE+RdffGHr3bp1K3J8eOedd+y7dKKcdHq5U38DgY6g/vTTT31KAYgAGsC87MLv0AlAozrVOsEL86qrripSKdF45RlKhZcp286bN8+nCJAor9wEUY4469KlyxLLIYcc4rcsIFWUI7pZR9AloWOMBvAee+zhU5YUhdQjrCNGkp1hHPuwww6z73IV5QjVdPmnIZokVZTTaGL/1MYT7zLqiuOPP96nLJl/Gtass02yzqNOxDOI73IV5XRopst/akM2VZTzPfsnOz+ATk2ERvK+sB1LIAiMdPeOjgW+kygvOYiZBg0a2HXMFQJAcb0nTJjgU8onpS3KITz7qR3ieMRxTUrqwRbEKcG3UtsidPDzHd4hAQJBMrb9q6++8ikFsC8d+7RbaJ+wHoLk0pmfBLFMewWPv0BSlONFgQhjnfwloa1FnuigTAUvADp4wrVZWlFOvZdKMHCcc845PmUxWIfpVP399999ytJTUUX5c889Z/mmo7KkBFHeoUMH80QNC51EvBtoryKmk1ZyWFpRzj6ZFoxeFRGNKc8BpsK4++67bfoPxuECIes7d+5s42qY9iquPCxdlC9efPFFmyokbkAWmbZlv/32s+kZmHsxLqM+1bn4JWJjrOLG8RLTEVAOUqf5iUWt/Y8FcpHjA3EIkuM6kzAO77LLLlviNxhbtvHGG7t//vnHxtyEhfkWGf/KmCrOB+KGqpW7uMKzMVOUTcaXx6LAymebNm1sO2Bbjs1vxkLTxnUxnQRj+9g2fuH6LYWoOvAMxI26JRamwczGuHHj7P9pp51m/wNxQ8Cmz2TMaCxOfGpRwjzNZ511lo3NCzDeO24o+rXcINZFuvwz5VQ2HnnkEZvyjXouCXUHdQLfZ4KxlxAL6yJ1HmNkGS9cEojbkS7/qTE2UiF/rVu3dttvv71PKYDpmEgvLv9x43CJqXe4d7wnxNIRNyZdLNqsrZQrTP9H7IAwhrUqEZ79ZB0AIe7D0rYpd9lllyXaIky9Bsnx4rQDWrZsadOXMbd4WJj6l3YL47H5PG/ePIvBQ5wHxrknadiwoY3/Zqx2KrHQsrqEepApjZniMMnKK6/s1l9/fYvb069fP4uHM2nSJBv/zjSkZ5555hLXpqQQsyKVMM1lpu9oe9HWr6rUqlXL/qeO6y8Jb7zxhsU5Si60rSnTm222mS2lAe+wwYMHp12uzOO0gOWdCi/KAwgpxA0ghAjoxYuIBtCzzz5r6aJ8gegGXi69evUqXM4//3xXr149E7gI90BoSKcLbgE0WpMUt/26667rPxWFuUZXTzPfMYFHmMOXl2LqMmzYMNuGwHDAedAZEOZ47NixowWFadSokTvvvPOKBDAigAuN1csvv9zts88+FsRqnXXWsfJMIDkhqiLMSU2HV+pSXACq0LjluSd4TXIhaNCiRYsyBnsMgrNVq1b2P0lJGys8u+nyz9zH2SD/1CMI0dT8E/QJcUXjNB3kn0Y/DfpUSpr/1157LW3+b7vtNr9Fesg/82On5p1l2rRpWeevJf/UfemC9lHPiqWDe8+7Z+rUqT6leOgcQTByz0QBIbBbtuBswPudoGXJ9zykE7JcZ/jvv//sPyC2aWvQeZ+6MP80INjZDtZee237nwqdceH4AfJ+8MEHux133NHaJTfeeOMS95g65MEHH7S2UN++fc1Qst1221mbibqRemhZSXctyC+k+y4I0uR1qmqEer24jmmgUzXddnS0UC7DwvuQd8qxxx5rWonyUBrQhk+265NLaoe5WEyFFuVYNYiKmSm6Or2SUFwFKpY/9PRi0eKFgXBF1CaXEK2TyOyB2rVr2/9MVq4giAPFbc9LLR2ZeoBpVGIRJ3JopiU0fPlteqiJiEovJD3T1113ndt8880teiuRTAM0NtmXDiSiurMfVnMik2ItwzolhMgNOmjxcrnlllusAZtciEaLtRCBko7QgOXZS2V5zeJB45P8peadhQ488p8pUjv5x7sIj6JUlmf+6VBMl39mlqCzJRPkn2uf9JAKJCMzi5IxZ84c64hq27atT8kNOsxLuk9lJlhyiQqeDd7fWJvp2FoaQluDDshMCxHe+Q3I1JZJBxZRDAZYv2lrUZfghZLagdCuXTvrxMHDD+8iDF2XXnqpdQTgcZTqMZNOLMtLtXTB+4GOoQkTJqSNdh8gwj1t0e7du/uUzNABg5fFVVddZevBw1TkhwotyimUWMNx/U1H6CXKZBEV+YPGGRU2945pN9ItuDAh3BHw0KFDB6tAeJmkgjsPgjZJcAtLtz3HnDJlil/LDV6CWIqaN29uL6zkQoP3m2++KXQ1xxrGtCdYu8gHlSPur+QR0YAIBzoS6JGmV7xp06Zut912sxcmvdN0SPCie+utt2xbIUTx8HzS+0+jhOm6kgsu1Fgb0nnCAM84pNYlkC6tLCD/dObhXpqafzrwGHqTqeMw5J+6J5XlmX+s5Vjjknlnyku+SzeFaYD8Uzenm5KHhqhYOsIUSalDvLLB9Fe4TPNOEgVQp1BGeZboaE8Hzy7vbuqYpe3Q4BmhrUGbgGMkF0QxXoS0NfgN2rdYOFO9Z+jcwtLds2dPn1IAHkRYS7FKY/Xu06ePie9kZxmGLNyaaWNvsMEGZuDCQIAr+9VXX21tNzpsIHQMpLPKhiGlovQ45ZRTrF146qmnZnRjRxfxHZ6XudK4cWPrDKbcifxRoUU5lQQWScbK4U4TrBtUGIgiRBAFjcaNKD9QodBDy3i1bI2E0HuLgAfGmXMvudf02OJyA1iSmSc31SKOqxdjwLHQ4LZK7yEWGF5AzA2czhqTDVxusEDRwAzjmjgG47/23Xdfmxc2gGs+cQ1Gjx5dpAeZlzmVJecOdDKccMIJ1oCl9zvACzb0WAaXOSEqG3SYMXTj3HPP9SnLDo1QLE00WkKHHvB80bFHwzITxCChYUL9wnPNs8sz/sorr1jjNRXqMfKPF0xpwXhqfpO5ooN7KlAf0AHIb2aiS5cu1unHMRgDynHooOB9SEMtFa4F+WdO5dLi7LPPts5G/od3MvkYMWKEuctmc9+nHqROPOaYY9wHH3xgadSFWCbZPxWuEfl/6aWXfEpBnRqWdOuQLq2ygqcW3lm0k4InV3HwLuUe0AlU0lgElRnKC4IbQUxZpY7B9RtPBAQsYpcyTvnn2VraeDDUh7Q1jjzyyCJDbeiYoq1BHsgLVm7cgdmGNtBnn31m29E+Ydgc66njs/FGSZZ75lWnPUKdh1UceOZCR1pSpPE8h3ZJaMPQBmfIHZ045AuPFuoc8orHgChdeB4x9PB+opOZzhPawMQwoX3J+2/AgAE2pIGhkiWB9jJlOZ136XvvvWcxPzItJfHWEFmIX5bLTD6jr8eNOos8yanEFU2R/3Hjaol5aZc3cYWl6OspxJWJ3R8ii2cjfgHY9BtEB40reUtjWpAwNQ73OW6A2meinx966KH2mUjDAaZAI1Ip6fELrDBC+3777Wfzj/NdkubNm9vUIpm4/PLLLYIwC/kIUSaZRi0Z6T9+kRVOdcJ0Z8ltiSIciwW/ZWRTHhFVlO/CNCRERWU9bhj5rUQgboTYtaEciYoNZZ972b17d5+y7FOiAfvGwtye0y233NKmN2Mb6pJkRGPSWJIwdSLzFJPOu4VIsRyHOX9JS0YSpj4gjYjlgWWdEg2YlztuPFt9RX0Upjdq27ZtFDf4/Vbp808E8xo1alg69QjXgXrywgsvtLRY1PstC6I8k0aeA8s6JRowhRH1M9ePPDNFGsckqv1fielKSWNJwpRUIZ2I4bxDuQfhuU9GX6cOJy0W+j5l8TFZ0q1DurTKSNxQtncK03gy1V4u/PfffzbTAOWPaTzLO5T11OenrOHZ5j2eLEdh4V3OFIBcx0Asmuy7TDM38F2yDoRY1Fu9Q7uFNgHtSLajDmNmmcC///5rMw0lfz98joV5kQjyPIvsn0ostG17piEM+Wa6Wn6bheeXPIS2dmp0dCKqhzqT7Sk7fCayN//TRV8fnDK7DowYMcK+Y+q1VELke2awWVYqavT1ANHxeUY5h3QL7zymmkuSyzzloe5/9NFHfcri6OvFLW+++abfQ/OULwvV+BP/yDJB9EbcXUrqDlxa4OqM9RSX4Lhx4Y477jgXv/xd165dC4ND5Is6derYeA2Na18M7ti4J9LjS4TGbDCWiWvHvcQVHPCE4H5jvYpfANYTjIUIyxAuVLh/xy8z2xbo3cVFHAs5vcQELWEfehXp0abHO0BkYLbByp0JAmhwPFw0cQHDnY1nILWs4dKOWxnlEosXveZY6oiUSu9yEsbQsy0BkvAOoJcTL4L27dtXCWtOSSCyNJZJeoqJBCsqLjxL3Ess2sEdlOed555AREQALg6ee9w5seoknxWsR4yDJFYD9QQWVZ51LMmBsH3qa5Bef2I7UJ8QdAyrIW6cHI+4EHjhAM9r//79LchkiFKNZWny5MnmOsgYwOLA1RzLROr4PywfWEEIjEY9Q6Al6sGk63qm/LMPs48w7nONNdYwryPeRVipqVNCtGXcS7GU4TkULKKhfmbcaGo9lQ7qYuo+3rlJOMaYMWPMo4nj4AaNp1PyHmXKP+WC68++uOeSfyxwXKtYOBQGtqLOxKpINF/qdUgen+OmrkO6tMoGXh7777+/WTa5z1jVcoFAfliAcVNO5x1S3uB9zewrDB9bnmANxguBceO0BXi+qAeoY/DqS8L7PxY6ReqOJFjY2TfVqs1z8NBDDxXWAbivU08k67AAzy3PN20a3Np5HrHaJ8s6nklYwXneUyF/5JO2FPsDlnOeMZ5lzhd3ep4/8pEKFlbqRzwGeN45DnUuQxCT540V/6mnnjLrempATSz7lFXaPqkBevF0wnuGthZtqWUBD0a8EGJRbvVfRYXrRZ1IBH6ed+4b9SzliHdeEt5lRF5nVozg5ZBKePfyfuA9AbyHkp5ImejUqZO9a4B6n/cU96oyMWjQIJsRiTZ6UmOUKvELaZnJp6U8Cb3CnFLcUPIp+YdeflnKhSg9ZCmvPMSNwOiss86KTjzxRJ9SscBqjTVqwIABPqVigTW8Q4cOUdxI9SkVC7we4gZmieeNrgpceeWVVk8OHTrUpxQPFmCsnLTpkpbe8kw+LOWiYlPRLeUiPywPS3mFHlOeCj2mjKNJN52KEEKI8gUzL2BpYhrEigizKGDNZU7nisgll1xicVdSrfQVBYIe4XmEF4FYDJYt7i3THBGzJBewsDIuGWsoEf6TFlYhhBBlT6US5USBxG2Cl4oQQojyDaKBYU+Z3OnKOwgf3P2KG4ZTXiFoHB0j+R7mtbQwewfu1hKQi2HYBkFwmZaOaQFzuTZRFNmwP1yQaUPJsCGEEMufSiXKhRBCCCGqIowrJbbCb7/9ZmORGeecC0yHxXhk/jMOWAghxPJHolwIIYQQooJDsEECczENaGoQrUwQQIupk3BdZ4o5IYQQ+UGiXAghhBCiAoO4vvjii232EWYLyAVmCDn88MMt0vXQoUM1DEAIIfKIRLkQQgghRAUlKa4ZR54rZ599tk2rxBRRYcpRIYQQ+UGiXAghhBCigoL7eUnFNXNWDx8+3IIVdujQwacKIYTIFxLlQgghhBAVkPnz55vr+RlnnFEicT148GCL0P6///3PpwghhMgnEuVCCCGEEBWQTz75xC1atMjttttuPiU3PvzwQ7fzzju7GjVq+BQhhBD5RKJcCCGEEKICwjRoUNK55tmvos5PL4QQlRGJciGEEEKICsjqq69u/3/99Vf7nyuMPS/pPkIIIcqOalGM/7zUHHDAAe7RRx91hx12mE8Rgfvvv9/+N23a1P6Lxfz2229uhRVWcKussopPEaJ4Zs6caVaeFi1auK222sqnCiFE1YPI648//rhr376922CDDXxq8Tz55JOuXr16FT7IW2hjqf0pcuWNN95wX331lXVMderUyacKkZ1Q1yxcuNC0S1lQKqL8rLPOchMmTHDVq8vwnspHH30kN7EM/P333/Zf10aUhFBu1l13XbfqqqvaZyGEqIrQviDYW+3atd2KK67oU4vn999/tzZbnTp1fErFZNasWXbeDRs29ClCZOfPP/+0ctO4cWMZhUTOUNdSZ77zzjvlW5SLzLRp08Y1b97cjRkzxqeIAAFm1lxzTaschciVsWPHuoMOOsjNmDHDrOVCCCGEEEJUZGTaFkIIIYQQQggh8oREuRBCCCGEEEIIkSckyoUQQgghhBBCiDwhUS6EEEIIIYQQQuQJiXIhhBBCCCGEECJPSJQLIYQQQgghhBB5QqJcCCGEEEIIIYTIExLlQgghhBBCCCFEnpAoF0IIIYQQQggh8oREuRBCCCGEEEIIkSckyoUQQgghhBBCiDwhUS5EGbFgwQI3c+ZMN2vWLPfvv//61OL5+eef3TfffOO+//57F0WRT83Of//957777jvb79dff/WpQgghhBBCiPKORHkF5eijj3brrrtuzss999zj3nnnnbTfZVq23HJL/2siVxDRd955p+vYsaNbbbXV3HrrreeaNGni6tWr5/bdd1/3wgsv+C2LMn/+fHfBBRe4jTfe2DVo0MA1bdrUNW7c2Pbt0aOHie10fPLJJ+7II4+0bddee23bj9/afPPNXd++fd1ff/3ltxRCCCGEEEKUR6rFIiI3U5xYKtq0aeOaN2/uxowZ41NKh169erk33njDrxUQrLKbbLKJCcIk5557rqX37NnTpyxm0qRJbpVVVnGbbbaZTylg9dVXd0899ZRfK31q1Kjh1lxzTctzZYHrPHjwYFenTh3XpUsX17BhQ7NiT58+3b3++uuuWrVqbty4ca5r165+D2dW9Hbt2tk2iPjddtvN7t+8efPcq6++asK7UaNG7u233zaRHvjwww9d+/btTdDzf4sttnArr7yy+/bbb038//TTT3asCRMm2O9WFsaOHesOOuggN2PGDNeiRQufKoQQQgghRAUFUS7KjtatW0cHHnigXytb+vbtSwdLNHHiRJ+SG7Fgi3bYYQe/tvxYYYUVorXXXtuvVXxiMRzVrFkzioV1NHv2bJ+6mKefftruTywko4ULF/rUKBo1apSld+/ePfr77799agGxoI969+5t35922mk+tYAjjjjC0m+55RbbLkks6KNtt93Wvn/88cd9auVgzJgxdl6xKPcpQgghhBBCVFzkvi5EKTF16lSzejO0YK211vKpi9lrr73c8ccfb1brpHcAngpwzjnnuBVXXNE+B9i2f//+NpQAi3kS9qtbt647+eSTl7CEk37ttde6li1bumnTpvlUIYQQQgghRHlDolyIUqJWrVr2nwBtmbjjjjvcxx9/bG7qgSDEM+230kormWv7s88+61MKYD/GjP/2228+pSjbb7+9/dall17qU4QQQgghhBDlDYlyIUoJxnUzDp9AbwhhAusRgT0qJmzDPvvsY/9PP/10N3z4cPfll1+6f/75x9Ky0alTJ7PM77fffm78+PHuhx9+cIsWLfLfCiGEEEIIISoCEuVClBKrrrqqGz16tFtjjTXcFVdc4Vq3bm0B9Aj6tuGGG7pjjjnGAv4R+C3JHnvsYSKewGwnnHCCa9asmVndCfbGMXBrnzx5st96Mf369XN77723e+211yyoHEHzatasacHldtllF3N7nz17tt9aCCGEEEIIUR5R9PUypqyir6cDkcY0WBMnTjRRlivVq1c3V+eXX37ZpywfKmP0dfjzzz/dM888Y9Hx58yZYxZsrN9EC4dDDjnEPfDAA/Y5Ce7rjz/+uEVVD/t98MEHhW7tWNHTRc9///333ZNPPum+/vpr24/tcXf/448/zHL/yiuvLBFZvyKj6OtCCCGEEKIyIVFexkiUZ6ayivJMEKgNizZicsqUKW7rrbf232SGxxPBfeCBB9r841999VXh2PVs0DFw5ZVX2nL44YebBb+yIFEuhBBCCCEqE3JfF6KUYH5wIp0zjjwdCMjevXvb5+Qc81jG3333Xb9WFKKqd+7c2Ras4FjDgTHn/BYW+HTUrl3bOmmIwp46n70QQgghhBCi/CBRLkQpMXLkSNe2bdusVulff/3V/jPOPHDSSSfZlGdYwTPxyy+/2P+wH1HXt9pqKxPrmYK70TlAILjkbwkhhBBCCCHKFxLlQpQSRx11lLnkX3zxxe75558vEnWdz1isr7nmGrNi77///v4b53r06GH/jzzySPfFF1/Y58DChQvd0KFDbUjCDjvs4Jo0aWLpBJXDhRsrO4Hg5s2bZ+kB1k899VQT77ivCyGEEEIIIconEuVClBJNmzZ1gwYNcnPnznW77767q1+/vk2T1rFjRxPTHTp0sAjrgwcPdg0aNPB7FYhxpjUjijpR2jkOY/zZl3HkJ598sh3rhhtu8HsUMHDgQLfBBhu4IUOG2HYEc2M/IrazPRb7du3a2VRrQgghhBBCiPKJRHklomXLlq5r1642JVdJYB/EnFh2evXq5SZNmmT/EcyMAf/888/tnmDRfvPNN90pp5zity6AacweffRR99BDD7ljjz3WArl9+umnNkadQIEEa3vvvffMNT4JxyfKOmJ93333Nes4weRwdSeg3LBhwyx4H1Z1IYQQQgghRPlE0dfLmOUZfb2iUdWir4vSQdHXhRBCCCFEZUKWciGEEEIIIYQQIk9IlAshhBBCCCGEEHlColwIIYQQQgghhMgTEuVCCCGEEEIIIUSekCgXQgghhBBCCCHyhES5EEIIIYQQQgiRJyTKhRBCCCGEEEKIPCFRLoQQQgghhBBC5AmJciGEEEIIIYQQIk9IlAshhBBCCCGEEHlColwIIYQQQgghhMgT1aIY/1mUAa1bt3affvqpGzVqlE8Rge7du9v/hx9+2P4LkQtjx451999/v5sxY4Zr0aKFTxVCCCGEEKJiIlFexrRp08ZNnz7drwkhSguJciGEEEIIURmQKC9jvvzyS/f333/7NZFkzpw5rmbNmq5BgwY+RYjcadasmVtxxRX9mhBCCCGEEBUTiXIhhBBCCCGEECJPKNCbEEIIIYQQQgiRJyTKhRBCCCGEEEKIPCFRLoQQQgghhBBC5AmJciGEEEIIIYQQIk9IlAshhBBCCCGEEHlColwIIYQQQgghhMgTEuVCCCGEEEIIIUSekCgXQgghhBBCCCHyhES5EEIIIYQQQgiRJyTKhRBCCCGEEEKIPCFRLoQQQgghhBBC5AmJ8jJizpw5btCgQe7zzz/3KUIIIYQQojT566+/rL01depUnyKEEBUPifIygpfEu+++6+bPn+9ThBBCCCFEabJo0SJrb82dO9enCCFExUOiXAghhBBCCCGEyBPVohj/WSwj//77r//k3Ndff+0uu+wy16tXL7fFFlv4VCGEEEIIUVosWLDAnXbaae6oo45yu+22m091rkaNGq5atWp+TQghyjcS5aXIGWec4X7++We/JoQQQggh8sFNN93kGjRo4NeEEKJ8I1FeikycONHGkgPi/KmnnnI777yzW2eddSxNCCGEEEKUHv/8848bM2aM22abbVyLFi18qnO77LKLq127tl8TQojyjUR5GfHVV1+5iy++2PXp08e1bt3apwohhBBCiNIC9/UTTzzRHXvssW6PPfbwqUIIUbFQoDchRLnjiy++cB999JFfWxIsIz/88IP777//fEpmvv32Wzd9+nS/tnTwOy+++KL7448/fIpI8tZbb7nvv//er5UuM2bMcJ999plfK1/gGUU5zEff9jfffOPee+89v5Y/GLNbWuN2S/NYJWHatGlu1qxZfk0IIYRY/kiUC7EMHH300a5mzZqFy4orrug23nhjd8MNN+SloV5ZGDZsmLvqqqv82pK89tprbs0113Q//fSTT8nMI4884nr37u3Xiodj0khPwpQ7uEKWVsO9Tp06rkmTJu6XX37xKQUgbldeeWW/5lzPnj2tXF155ZU+pSjkk++33HJLn+LcTjvtVKRMhmWrrbbyWyzmww8/tO+23357n7J0HH/88e7555/3a6XLdddd526++Wa/Vr54/PHHrRwuzbNOR8OXX37p10rOAw884C688EK/VjWZOXOm+/jjj/3a0nP22WfbvRRCCCHyhUR5GcE48sGDB5tAE5UXxBqChMY1Cw3ESy+91BrLTz/9tN9KlDZt27Z1r776qlt99dV9SulBbIhjjjnGr5UNCxcutMjA5557rk8pAHHHdwHK1/rrr+9uu+22IrM7BG655Ra3wQYbLLHPJZdcYp4GyYXOiVSGDh3qDjroIDd16lT3zjvv+FSRK7vuuquVw6Wx7g4cONDun1h6Ro4caWVdVG0YN057q2PHjj5FCCEqHiv0jfGfRSmywgoruFVWWcUa3qLyMm7cONewYUPXvXt3t+qqq7p69eq5zTff3Nylsbjuvffeth1T5GHxe+ihh9zLL79s+zRu3Ni+++STT9yTTz5pFsurr77ajR8/3lWvXt01b97cvgfcpu+66y43fPhwc+fdZJNN3K233mq/VatWLRNzuFffeOONFmCQYyHW0omF33//3d1zzz3ujjvucJMmTTJLX6NGjSy/iD+srlj8A5zj3Llz3XrrrWf/sWLTGEbokUfKOWAp5Tw5t/vvv9+swSHyLYIS7wHyHQLvPPPMM2bp3XTTTW0dF/GwDUJn/vz5Jrq5bpzbGmus4dZaay3bljGETzzxhNthhx1snfN/9NFHLf/PPvusnX+zZs3su8mTJ1tnSatWrdy1115rv0ueOZ9URowYYd+///77du3eeOMNOx/yccUVV7gjjzzS3XfffW7UqFFmpdtss83st4A8cA2I+EuHDNeQe5AOjsW97N+/vwUn2nDDDS199uzZlocgNDgnLNy4KXMsziFAMEks6eedd56JaqYEAvbfbrvt3J577unq169fuKy22mr2fYAyRecDwpxr/e6777p9993Xf7sk/B4W63vvvde2pbMgHPP22293W2+9tZV7ygf5JeBSKBtAGuXz4YcftjLYsmVLqyeB4QiUKa4J9557HZ4P7jPXODxLc+bMsTxTZjmvH3/80coNZe6ll16yexWCa1K+uTb8VoDjsQ/3H8+H0aNHWz6vueYas5ZyTLwYnnvuOSt75GfddddNG8WZ54HnuV27drb+22+/FV4jOnfCc5hk3rx5ts0LL7xgru9cV8oZ14/rQbni2SZf1A2UjaT3RABvEZ63Nm3auEGDBlkdwrPFfQlwnlyru+++2+qNjTbaKO2xgDxwHbkG5JGyRj0EWPW5FgTT4nqsvfba9lxAv3797H9oSuDSf+edd1o5fP311wvrF6A8c+xk8FO2pRxx3VOPhScJzxPPHNeTZ5LrwbMW6gXit1CWyT/3mXqHoRSUSeq5Tz/91Moi6cC+1BGURcoLx3vsscfsWeZZFBUPygXPcKiLhRCiIiJLuRClDOKSccw0XIGGN8H+EBOIaMBdGNdhQKwwnd4RRxxhDUcsnfvss4+JFMAKSvAaGsw0hGm046KMlZUGLuDe3K1bN/tNxAZiDeGXCmKoQ4cOJsiDEEf0YUWlUYyoxS02gMjARR+BSUMXCzWNYxqwNPI5L84VOAa/iXcI4io5xpjGEsdNuoiec845FpwnWIDffPNNa2jTuQH/93//Z+eFQEOcIHzC2HCOnbQyn3rqqbbQMKOBhrhEFAQQ/2eeeaY1/hFSiHka5qlwbblfiETGtbPQARA47LDD7D5y7S677DK7ZwGExMEHH2yCA1GH4M3mgt+0aVMTU1wD7ksmuHYnn3yyGzJkiE8pgPPbfffdi4iwkkAHER0X3NMTTjjBhGSmfCDuKLt0WCCWETPsR3oA7xAEG98jkOkYCPcWMRYED+WD+3zIIYfYOuWd8k0a95rry71G0KVCmaP8kk/EFMfnd+ggIn+UU+YpRqwBnSQI0iScJ+cBiFrK4aGHHupWWmkle9Z4Ng844AB3+eWX2/PG80ne042Zp3xQDgCxt9dee5lI5/mgrNFZx3VOQp7Zj2eX5yuUM/bHW4FOKsor15FnjfPK5ObO9nQUUW+wPx0XCHqgw4HnE/FOfjgPBDzXNxU6Urhu3As6H8466yxz6QauEff6119/tbz8/fffbtttt7X0VDg36ibqEa4d496pX95++237njqNc0rCMxLqwiTcCyyflCmuCR2ePH+UJeCa0aHB8xmuIc8tv0nHIp1xnDedMuQhlFU6Pqkrea4oL3wurzELhBBCVCHiF7kQYik5/PDDo1hAROeff74tvXr1imLBF8XCIYob3bZN3FiM7rrrLvsc2HXXXaMbb7zRPo8dOzaqW7du9Msvv9g6cCy2gQkTJkSxWIliMWnrMGbMGAaxRrEgjv74448oFqNR3Pj230ZRLF4tje+SxI3iqGXLltFff/3lU6LopptuiuLGun2OhVG09dZb22e45ZZb7Pxg4MCBlqe4sWzrcNBBB0WxKLHPp512WhQLkSgWTraeStwYjrp06WKfY5EdtWjRwq5TLJwsLRbZdv2A84+FUBSLBFvnfyxALR0++OADO3/g+taoUSOKG/a2Dg888EAUC2b7zPnFArjwnP/7778oFjK2pOPBBx+MYvHh1wqIG/v2e7Eg8CmRXe/q1atHsViJYpEYxcIoioWA/zaKpkyZYtcjea0DsSCIYqFi5xWLmOjMM8+0dPaPhYJ9hljYR7HYjWIhZemxCLN07sEGG2xg127cuHFRq1atLB1iIROtsMIKUa1atYos4ToH2rdvH8XiyT5zTWKxHMXizNZTueSSS6xch/vB9rFAimLBaeuxCIouvvhi+wyxAIpWXXXV6IUXXrB1yhRlKcA149q8//770fjx46NGjRpFscDy30ZR//79C8vViSeeGMUiMYpFuj0HyTzGAszuC8cLPPvss3ZtgePEoss+Bw455BA7H+Aesn8sYG0devbsadeCew6cM8/MnXfeaetJYvFveYJYkNqxPvroI1uHWFDakg5+p3fv3n6tgKOOOio6/vjj/VrBde7atas9G6kMGjQoWmuttaJY2PuUKBo1alS03nrr2X59+/aNOnXqVHjPoHPnzvYcJyHfsYCO7r//fp8SRdOmTYti4W3fffzxx9Ho0aP9NwVwP0eMGGGfOWcWoDw0adKksO4DrvWAAQPsM+cSi3D7HNhwww2jxx9/3D4nj8U9vfnmm4s8Pzwnyetz+eWXRwceeKBfK+Ciiy6K9t9/f7sGwP8999zT6jbOp0GDBtEjjzxi3wFlNRb80a233upThBBCiOWPLOVCLCNYdP78809bcN3EooTbZ3ATxX0VF04stVjOsOzhuho3lu17wC07OT56iy22MIsuYGXC4oUlOxCLY/+pwHqI5RCXWCy3LFhgSUsNgoT1CEsgLu8BjoVlDivTcccdZ1YrAo7F9YO5gGLFB9KwsmE5D7+DBZtjBrBQJ+eJTYIVGes0+cJFP244m0US6zm/hVsz2wQ4TnCf5T9Wr3BNknCOWOVwew9ghcUiGuAehHPGko4lDStbSUnGiOAexQ1+s3ZyzXChvf766wuvDZZfvsN9NhOcF14FuPCmswwHKD+cE/cYGKKAdZTgc+nAah/GkoeFchfAwsp947rg9oubN+UCCyf3IhXOb8cddyy8H1xDXIoZjx5IXhss3nhtcL+4RpQd7nm4Nng1cCzywLG5H1hCA0wnGVyY4ZVXXnH77befPWt169b1qQWxO7DM4rYcC1Arv1iIsejmChbt4NUCWOAZlhFcYcknHgVJr4B0MFSJe4QlH4s5zwnXGet0rnA9ks8215l17k86cHkPniXAtliK8faYMmWKeX7EQr/wuuPqnXxeAW8Zzm3nnXf2Kc7qG36Tcwqu36effrpZlfFi4H4m668A9xKrdPIe4XGwNAHpuC9Y5P/3v//ZdSV/uOKn+90knDeeBXgQcM78x5uH8+b8KZPJa0xZ5VkWQggh8olEuRDLCC7EjE9kIXATrr0ILIQu4G5JwxDhgFs57qWM900SxE4guY6YxC00CQI6EMQDAvfAAw+0BbHEWPBU12a2RdgkYZ3fY6FjADFB4xexhstuEF7syzmE32DBdRcBFaAhnQnctRFfCEqEOKK8a9eu9hm3dMQgDf5AtmuShHG4qedEw50OkkCuxyqO5H7Jz1wb1ul0Sb0HuLJnAwGI2z9lI5nnVOgcoaOBcbaIc9YRbelAaCC4k0sYyw/cX9yUcd3md1lwc2asOIIrFcRZ6jWmDCbLZaZrTB7ZH/foZNmhI4JOhXTH5ri4SQdwlUbUM4SDzq3QOcNv4A7NM4ZrM9cSEcgSSBVxyeNC6jWkPKVLywXc9nGZ5xnC5ZpODvKbK5meT9ys05HuugHbcyzGhSevOdclNbgg1x+Sx+JZpJOR/6NGjXKnnHKKdYoxzIFOJDoe0pHuWUy9l8XdjwCdbXQE0VmDuKaj8aSTTvLfZobzJq/J8yZ2A+744Tqmu8ZCCCFEPlm6lqkQIiM0IhFBH3zwga1joaFxSSAurHlY3bAo5QpiBpEfrGU0lBEnAYQIllSssghzFsT42LFjlxDJdCAQEAoLGnAsBBq/ERrn5BNxwdhLGsHBwsw4bBrK/Oc3ENVY8dONUc0ElnDGszOGEysYgaewwiEW+C6TyMwGlrlgfQ9gZeWclgYa7gjf4ixySeiswJOBfIR7gBhnnH22jooAwo0OEcRDJhjXjEUPqyNlio6epYE8Iu4JbkU5TC5YQikPqWBFx5MBLxCgrJEXAmkVB/eUMoOVMnhH8DwQyIyyxbEp2+F54bozxjspZhFlWPqD2A3CkoB8jN3HsotFmA4iZkMIzxf3hOPixQCIeSypZQEWejpiePbJ7/nnn+969epVmJdUKGepnh88nwR0DEI13KvUTrwAHYB4ygQYGx68DrjGPK9YmMPzSkcblvEkdM7g5ZCMwUC5xfsELwfKGr9PXANiXeDVk8n7g/vMmPrwPYKc3+VaAL8VvHCAzrjvvvvOPqfCWHA8ISjvXbp0sec8xJQIpLuG4byxhnPedPwxLh3PGAL2Uf9SBwXoPC2rMiGEEELkikS5EGUAgiVYHGmUEliqc+fO1ljHyoTLaTaraBJccWnc08jEXRU3bVxUAwgbrO9YgmiAYjFkW0RcqvWSRjUNbEQMwbX4jzWXyNMBrExYrBHvNMQDWFNpkCOmEYQEYSJ4G6IqVxAtEyZMMDf3kDeuD5bOpOt6SaChj9s4+2N5RbwxPU42gZsNhAXBo7jWiAEa9MWBFRovCTo0EALcA64z1zGXjgYsjIgiRFY2EKqI5h49emSMog1EZOdeJRcECdDhQjDA9u3b23oSLKF8H8R3gHT2x/KKazZlhM4G3IpzAVd+Oom4P4hnyh3PAMHMuEZ0/nDfEKWISjqh+vTp4/debM3mP9ZnXOeJjo6YxDUZF2uOi1WUskzwPOA+ICzJN/eDe0owwLIAF3jKNHnh+aBjgfnxcdVPB+74WKE5Z54HOg4uuOACcz0P+eU/AeiwVKeD86de4RicG511XGtgH9zIw/PK9cUrJdXKzTWl/mA/tuVY3Fc65SiXIVgddQv1FyKfzo509ReC+PDDD7e6h/qFehDvCzwygABy3LdQ//DMJoflJKFTjWB4HJN7yzF5LpO/S2A7PDyog7iedPzgQYK1PJw3/6l/Ke+cKx5NePgQvI7foFMnOfRCCCGEyAfVotBlLYQoMViEEMWp02thNcOCE8Yq4n6LlYpGIQ1BLGA8eljV2A7LNQ3VANYspscK+wPjJGngMuaV30MU8TthPCzjQhmrjlsxDVAs6JnAeoiVGzdn8hOs4QGOSx4QSEnIM+eBpZt9Ef+IBggRojmnbPC7WJGx7gPnz3Wk8RzEF50OnEfyHLiGWFGxdCFguBZJYck+CGgs/og/LH2AJR8rGQIngHUOa2+mxjjfY/HDrRWRwrGwGHI9ghs4ecHCxpjhcP0QVNwDLISIH/KaDiLNI2xThTVjvxEiXAv4/PPPTWCE8sU1CVN8hTHYnBvlJ9wr7i1TnKXCteW43DvEVrr7FCyjdPykWvi591xf7jMCHSFE3oB7QTmkTAQYT819ptMEEFQIMs6P4yMik2D1xhKKWKdcBfFMVG3EbnIoBtZnfhtPC/LFveIaUBY5x9ABAZQVOoK4JpQL3LK5X2xDGlZVBF+A5450rnGAbRC4yam8gHMhrkI4F/LCvQ33DeGX7TnkurGQHzpzKLuUK8bQU545vyAmUwn5pGwwUwFljg6T5Nh87ieilXvGjAFc1+DCnQodMdwfRC8dbsnywflQLsgfzwNlLlkuU+HeE+0d7w9+E2+YAPUKLv7cU/LL/WVoSzLfATxWyBOeA5Q3jkM9F6ZRBOoOnkOORwcF5Ybzpqwi0qlnyEMoq8AxKBMcD+8lzo/OgVAnCSGEEMsbiXIhyjmICoIs4QIahALjsrECMuY7VVALIYQQQgghKg5yXxeinIM1Bwsk1jhcPrH6YFUbOHCgBLkQQgghhBAVHFnKhagg4EKLSyiPLOMsGY8rhBBCCCGEqNhIlAshhBBCCCGEEHlC7utCCCGEEEIIIUSekCgXQgghhBBCCCHyhES5EEIIIYQQQgiRJyTKhRBCCCGEEEKIPCFRLoQQQgghhBBC5AmJciGEEEIIIYQQIk9IlAshhBBCCCGEEHlColwIIYQQQgghhMgTEuVCCCGEEEIIIUSekCgXQgghhBBCCCHyhES5EEIIIYQQQgiRJyTKhRBCCCGEEEKIPFEtivGfS40bbrjBTZs2za9l5o477nArrriiX6ucVKtWzf6XwWUWQgghhBBCCFHBKRNR3rVrV/f444/7tcz88ccfrnbt2n6tciJRLoQQQgghhBAiE2Xqvv7zzz+7v//+O+Oy0kor+S2FEEIIIYQQQoiqR5mKclzTsy3Biry0YGn/+uuv3axZs9x///3nU7Pz008/uZkzZ7q//vrLpxSAJfvHH39033zzjfvnn398anZ+//132/7XX3/1KSUj7E/nhRBCCCGEEEKIqke5CPR29dVXu3XWWcddfvnlPqUAhPIxxxxj37366qs+1blJkya5nXbaya2++upu/fXXd02aNHFrrrmmO+WUU9yCBQv8VgWcdNJJtv/UqVPddttt5xo2bOjWW289t9Zaa9nY93///de98cYbdrxGjRq5pk2busaNG7sLL7zQLVq0yB+lgN69e9uxvvzyS3fWWWe5Bg0a2Pb879Kli3v33Xf9ltl577333IEHHujq169fuD+//8wzz/gthBBCCCGEEEJUBcp0TDmW4JVXXtmnZgbLdMeOHd3bb7/tJk6c6HbeeWdLHzFihOvZs6c7++yz3fXXX29ps2fPds2bNzfX91NPPdU+s/8TTzzhxo8f70444QQ3bNgw2xYOOuggN3bsWBPwbdq0cbvssotZth944AE71rHHHutGjx7ttt12W7fHHnu4+fPn23fffvutu/LKK91FF13kj+QsL+Rp8803t3NDWNetW9e9/PLL7rnnnnP16tVzb731lmvWrJnfY8kx5R988IHr0KGDrZ944oluiy22sN8aPny4Wf3HjRtn108IIYQQQgghROWnTEX5nnvu6WrUqOFTi4KVeqONNvJrzn3xxRcmmldZZRX3zjvvuLlz57q2bdu6jTfe2L3++uuuVq1att3IkSPdFVdc4QYPHuz2339/SwNOAzGPKEYwBzEcRPn555/vBg4caGmAyzuCHjf2M844w914442F+3z//fduww03NIv5p59+WpgeRPluu+3mnnzyycI8wdChQ93JJ59s1vpbb73Vpy4pyg8//HB3//33m3W+ffv2lgacb6tWrdwaa6xhwl0IIYQQQgghROWnTN3XmRYN63e6JdXNHOsy1uJgvUa8rrDCCu7BBx8sIn757vPPPy8iyIHx5fPmzbP/Cxcu9KmLOf300/2nAnBDx2INiPIgngFXeNzJ+Z1048UR+Mk8ARZ69nv00UcLBXgqdADQWYG1PinIARd2XPU//PBD99FHH/lUIYQQQgghhBCVmTIV5Yy9njNnTtqldevWfqvFYNXG0owVmjHgWJ+xZqeCVR1rebdu3UxYY9VmfPb06dP9FkuCa3kqjCEH9k0lfJcu6Ns222zjPy2mevXqrl27du67776zjoF0YIGnMwLhvcMOOyyx4LoOn332mf0XQgghhBBCCFG5KReB3pIkRTCW8lQYv42b91VXXWVWbAQ5QdZwZ8ddPhNJS3ggpGX7Lh2ZvkOYQyZLeUhnnP3aa6+9xLLVVlu5gw8+uLBDQAghhBBCCCFE5aZciXICrt15553mxk1U8uOPP34Jq/E111xjwh0XeILCjRo1yoLA4Z6eafx6aYNbfipMycZ4dgR1puB2uMwToA5XfdzyMy0EnRNCCCGEEEIIUfkpN6J8xowZNn0Zkc1vu+02i4D+559/muU4Oac4LuA1a9YsEiQOGIv+/PPP+7Wy5dprr11i3Pp9991nweOw2meypJPvXXfd1fKZ6mqPqGdforGnGxMvhBBCCCGEEKLyUaaivHv37q5z584Zl2BxDuIbYYoYr127tgVCGzBggG3D/OABIp9jKWf/hx56yKZBYzu2R/RCWYta5hnH1Zzfvemmm2xqNALQETm+V69efqv04HbPdpxH3759LfAb0diZjo1z2W+//ZabxV8IIYQQQgghRJ6JyoBYYEex8Cx2ef755237c88919aHDRtm64FFixZFXbp0se9i8Wpp8+fPj70wpa4AACKKSURBVI466qhopZVWYoC2Lauvvnp0+eWXR/369bNtP/74Y9sWjjzySEtbsGCBT1nMcccdZ9/NnTvXpyzmlFNOse++//57nxJFPXr0sN+bPHlydPTRR0fVq1cvzMMuu+wSTZo0yW+5mPB9krfffjvaaaedCr9jadiwYdS/f387ZyGEEEIIIYQQVYMymad8eYB1nSjsK664oltvvfWWmKKsLAjzlBNhnTnMf/zxR/fDDz9YZHcCtZUU9mch74yhl4VcCCGEEEIIIaoWFVaU54NUUS6EEEIIIYQQQiwL5W5KNCGEEEIIIYQQoqogUS6EEEIIIYQQQuQJua+XgEmTJrnPP//cdevWzSLECyGEEEIIIYQQy4JEuRBCCCGEEEIIkSdKRZQvWrTI7b///n5NJCFKPPOaN2/e3NWvX9+nCiBg3syZM92mm27qVl55ZZ8qRHZ+/vln99lnn7nNN99cHitCCFGFefvtt13Dhg1tFh4hcoW2J7MnbbXVVj5FiNzo0KGDu/DCC/1a6VIqonzhwoWuZs2a9rl9+/b2XxQwY8YM98svv9hnXZuiMBwANtlkE7faaqvZZyGKI5QbOrlatGhhn4UQQlQ9wvtA7StRElRuxNJAuenevbsbO3asTyldSlWUDxo0yJ133nk+VcBTTz3lOnXq5M4991x3zTXX+FQBYYq5N99807Vr186nCpGd3r17u+uuu849/fTTbq+99vKpQgghqhrVq1c3a+eUKVN8ihDFs+2227rJkye7UpBAogrRtm1b16xZszIT5Yq+LoQQQgghhBBC5AmJciGEEEIIIYQQIk9IlAshhBBCCCGEEHlColwIIYQQQgghhMgTEuVCCCGEEEIIIUSekCgXQgghhBBCCCHyhES5EEIIIYQQQgiRJyTKhRBCCCGEEEKIPCFRLoQQQgghhBBC5AmJciGEEEIIIYQQIk9UKlH+559/uksvvdR9//33PkUIIYQQQgghhCi/VCpR/vfff7srrrjC/fDDDz5FCCGEEEIIISon//77r5swYYJ75513fEruzJ071/b94osvfIrIF5VClEdR5KZOneruuusuW3/qqafcN998Y5+rCgsWLHAvv/yyu+2229yQIUPcyJEjMz6cf/31l5syZcoSy1tvveW+/PJLu56i5Pz8889pr2u65auvvvJ7FcC1T92GMk0lWZL78dtvvxXu/88///hUIYQQQlRUeJ/zXv/99999Snpo+959993upptucqNHj05rpMKrNLQTsi3vv/++30OUd2rUqOHOPvtst9dee7mFCxf61NxYYYUV3H777edOOeUUnyLyRbW4wb/MCowCULNmTTdo0CB33nnn+dTlw6effuoOPvhgN336dJ9SQPXq1d0hhxzihg8f7urUqeNTlz90EHTq1Mmde+657pprrvGppQeV6yWXXOJuv/12E+aptGvXzirnbbfd1qc499lnn7mNNtrIry0J351++unujDPOcNWqVfOppU/Pnj3diBEj3Jtvvmn5rOiMGTPGymIuUPndeuutfs252rVrW2dJOpo1a+YOP/xw22fttdf2qemhLPTv398+P/DAA/YMVDZ69+7trrvuOvf000/bC0gsZv78+e6RRx5xHTt2dBtuuKFPzQ71weuvv2515pFHHulT00M9++6777qjjz7ap6SHzqSxY8e6mTNnWv2766672sJ7Ihu8jh566CHzeqJO2Hjjjf036aHOe/jhh+0zZWHNNde0z8Xx9ddfu3vuuccarHXr1nUHHniga9u2rf92SThvnu958+a5hg0buqOOOsptsMEG/tvi4R35f//3f3adyXO9evXcAQcc4Nq0aeO3KMoff/xhv0ejmMZ448aN3aGHHlqi36RxzjkynGuVVVaxc9xqq638t0XhutMI55nimqy88spuhx12cPvss4812HJh0aJFdo6vvfZa4Tnuv//+Ga8r53jffffZOfKe2W677Vy3bt2scZmOn376ycQG965WrVqWt1122SXjO4oO5gcffNB99913Vu4222wzq59zbQ9wTV544QV7h1MemzZt6o455hi3xhpr+C2KgqVq3Lhx9j7777//7Peot0vS/sBixTnSacs57r333vbcZDvHUaNGuR9//NGtuuqqdn5bbrml/7ZqQL1Fuab8VmYox7z/qUN4VlKh/XDqqaeaQSbZrKfsINZof4Zn+aOPPnKtWrWyz9nYYostlsryWhGgTTx58uQSGT3KO9xjNNj48eNd586dfWpuHHbYYVZfUr+uu+66PlWkwvuMNjntmzIhLpDLTPwyolRHsSj3KcuH+MUXxY22aMUVV4ziwhi9+uqrlo8777wzihtN9jkWl37r/BA3UiwfsSj3KaVH3ACPdtppJzt+kyZNon79+kWPP/549Oyzz0ajR4+OunfvHsUVchQ3CqL33nvP7xVFn376qe2z9dZb2z0Ly1VXXRUdf/zxUf369e37sr6fPXr0sN+JGzE+pWITv+iKXM/UZcCAAdFqq61m50x5TbLSSitF6623XpHtY3EdnXjiiVGDBg1sn/iFHH388cd+jyWJG+/RWmutFcUvUjte3GD131QuevXqZdcjFhA+RcSCKHr55Zej9u3b27WJG/b+m+zEwijadNNNbR/q0UzEYjS6/fbbC8tvNii71Dtst/rqq0exyLLPcSMoikWH3yo9t956q23LcvPNN/vUzPB8hO1feeUVn5oZ3hl9+vSJ4oa85TEWjoX5ixsxdj2SxA3dKBaW9n3coLXt2Y/9zznnHDteccSNnKh169aFx+CahDyfddZZfqvFxI3uaJ111rHvuSex2LLPsbCMhg4d6rfKDHm64IIL7LdSz3Hfffdd4hy5t506dSrMUywGCz9zz3755Re/ZWZmzpwZtWnTxvZJPcczzjhjievEOyq8Z+rWrWvvKD7HjcHo3Xff9Vst5pZbbrE6jW04NteFz7zDfvjhB7/VYq644grLRzh+OKf1118/mjFjht8qMxyTY7MPvxXOhzyQl1TIM3lnG86F3+Qz58i55sJtt92W9hzjRmD0/fff+60K4HpSdpLlOJzvAQccYOW2qsD5c68qK9OnT49GjBgR/fjjj3Z/Y5EcxeIpev755/0WBeUhFlX2/fbbb2/tQNp8TzzxROFzeeONN/qtI6uHWc+0hGNRJ1ZW2rVrZ+dYmZg9e7bVA7T9SwrtKa7HlVde6VNEOnielub65kqFFuWvvfaa/e5ll11m6zQeWOcFSSWFKFl55ZWjBQsW2Pf5oCxF+dlnn23H3nvvvTOeIx0UbLPnnnv6lMWivGfPnj6lKDQiuW5rrrmmCb2yorKJ8uII9+vAAw80EZWExliHDh38WlG4B5dccont27JlyyX2DTz88MO2Dff8yCOPtM90FFQ2JMqLctJJJ1nDlGtSu3Zt+5+rKKdhz77NmzfPKMqDYGIJnzMxduxY+57OwtAR+Pfff1uHH+knn3yypaWDskr+KeNsW5wof+yxx2y7sH0uovyee+6xbakzqQeBxu6pp55q6QjIJL1797Z08s128PnnnxeKWJ61bPAe4logijkf3pXw008/WR44xjPPPGNp8Pvvv1vnG2KOhnUQs+S1VatWJsypn7Nx77332nGp8z/55BNL4/fooCb9tNNOs7TAmWeeaem8o0KnCcKd9yrpdHxkgzzuuuuu1hi86aabCs+RY4XrxHswMGvWLOvc4TxJZ/+FCxdGo0aNsvdOs2bNirzP6GynjCJO33rrLUvjOtHJybG5jkkQIqTz/v/yyy8tjd+47777LI+77767pWVjn332sWPwGyEv/DYNMvJCngJ8T57JO+fAufB7Tz75pHWScq40lrPxxhtvmMCm82bKlCmWxnHDc7PHHntYWuCOO+6wdETTF198YWl0JJxwwgmWXhbtjfJKZRfldIbSPlhllVXsXClP1Cd0vAUmT55s953nMDx/AYw3DRs2tLIY6pNsUG/TKURn7c8//+xTKx+VUZQDHa+8J8L7Kleot+gMpi2QSzmpqkiUZ2HMmDH2u4gRSIpymDhxolVc6XrSlxdlJcp/++03a0Q3atTILB2Z4OE64ogjoi5duviU4kU5HHTQQbbNBx984FNKn6okyocMGWLniiUz1VIF2UQ5cB+7detmx3jppZd8alFouGGhocHKNmyLNa+yIVFelAceeCA677zzTIgHQZKLKEcMsu2FF15olpFMopy6q2/fvlafUmewTya22mqrqHHjxlY/pYKFms6idCDcEV00HEO+sony7777LlpjjTXsmaHRyva5iHK2T1dn8nztuOOOJqxCRyTvNazU7JPaSOEZI6807LJBA5e8peuM+Oabb+y7ZEdAENRYTVMZP368fTd8+HCfkh4sZVyb1HvAOey8887WscL1Bs6VBjsCPvUcgXuCeM7Ghx9+aPlCEKaCAOe7ZEfAddddZ2mI1lQQ9XzHuQaOOeYYa2QG8ZkklMdkRwUinfo01boMhxxyiG2fzZL81Vdf2Tbp3o/kgbwce+yxPmVx5xB5T4Vz5LsbbrjBp6SHdyFC67PPPvMpiwneIKGDAXjOuC+pnfF02PKOQVTRyK4KVHZRDtRF1J2UEeqpP//8039TQOhYS1rPk7A9ZSXdM56Etskmm2xi3nl4v1RmKqsoDx3jeDykg47k8H6hXKGfQt1FW4B9k52OAcoOnZTjxo2zjh7qNLxyunbtaumVvbwEJMqzMGnSJPtdGnuQKsrLA2UlynGJ47hYX0tKLqL80EMPtW3ef/99n1L6VBVRTgMTK8gGG2yQtqEIxYlywHLG9cKqlwqNOb7DagpUoFgQsbil6wSoyEiUZwYXdq5NcaKcXnTEM417BFo2UZ6E4S0cPx28lPmuOMtqOs4//3zbl3oNiySfM4lyyjbCiw4orNaIVLYvTpTTkKBRe/TRR/uUotCI4ThYLSFYnwYPHmzrqVB/YXlN1wERmDNnjjWSEHqpUBdw/KRgx7Wa7dO5jIfOinSCPUDDG9GYqfODa8ox0jW60oGIxy07G5wHeU6KxkBwuU2WCTqIsfqlE41YlNmeZxy41wzr2W677Ww9laeeesq2xwMiMGHChIwu49x7tqcsZGLkyJG2DcdOB6IXN/hA8IBKZw3nHOnoYQhENng3ZOrgCe/6u+66y9YpG7xP0nWCwNVXX23bT5061adUbqqCKMddnfOkPUmnWurwt80339zS6WzieeR5oD7jPUAHZq4EbxoMXpWdyirKKQO0+xCP6cAbZ8MNN7TORP5zDaijgPcP6+m0AXUx322zzTbmRUt5pA1B25V0OgKnTZvmt668lLUor9DR1+OHysWVkQU3IEBRiL5OoIJ/Knnk6RDYLlPgnmUhrtQtYA8BbZo3b+5TxdJABHWCra222mp2TRs1auS/KTl77LGH/Y8rPvufZNiwYfY/bqjZ/7jCdLGAsojwcYPZ0oSAuN63ckLQMqLzxmLcf7NshEBLBAjjuAThisWLBWs76aSTlphxIPDSSy+5WEi4c845p7CMZ+OWW26xgGTMMkHAlVwhYFEsklzcgPcpRYkbG/af4D8Qzifb9gQ3S/c8Bgg8F7/ALUhYEvYLARmTQThbtGhh28cNHJ9SQCy23eDBg+1zcvtUOMd///0353PMRNwAs0Bzr7zySrHB/6jTyDP3OgnHuPLKK+0z7+oA15VgOSukCSC31lpruXXWWacwf7Got4B1JTmf3XffPW05eu+99ywIIgGu4kaoT12SXO47ZZm8AduTZ/KeCufIOzrb9Sa4GwHbMv1eSA/H4J3CtV3WeywqDgQavPjiiy24Ie1d6vAks2bNssCe1KME6SIQ51lnnWWBCVm/6KKLrMxk48UXX3Q333yz69q1qyMopKiYECDyiCOOsPdSpiB91F0EDkU/3Xnnne7ZZ5+1dN4/HTp0sIBvvHPSQX1HGZkzZ44FH6T+omz++uuvNiW1WDYqtChHeDzzzDMWCfexxx5zvXr1snRC+xMhlwqpsk6N9scff9j/1MYbkXNpqKZbEGhJPvjgA6uEw0KUdhrGbdq0sQY7Edh5wMXSQeRpImDSSKYxWFwk6eJYaaWVLDJxamXJC5sOqdatWxeJdMyLuWbNmm7o0KE+RQhnL+FHH33UXX/99a5ly5Y+ddkJU/VwXDqEqJuIvk3dwywLm2666RKzZPAip/4mUvWAAQN8amY+/PBD16dPH3fQQQcVGwE+lfDcZIqezTsDwnmE/7lunwtsO2rUKBNOdCrQgUGE7kxQn994441uk002sYbTiSeemDFiO5T0HJPce++9dh+4TwhtInn36NHD9evXz2+RG+SBY3GON9xwgzXyuMcBfjtT/oA8hvwVdz7169e3/5nuAeLl7bfftqjUiGM6ZZi5gbZDJsKxGjRoYP9TSb2G5DHX80lHcedIFHvEfa7XZGnKpSjf8PwEwUNZpg5MQntwxowZVof27dvXoqvT9qVDnk6oq666qrBTLx08Jwgr2gvXXnutTxUVlWOPPdb+B0NlKrTvidJOu5Q6njo6cNxxx1ndwUwS6Vh77bWtYzwYmOrUqWNlk5lBnnzyyWI7f0R2Kvw85fRO33PPPdbzw1QscP7557t9993X0nfaaScTRZWNIJaDOA9Ur17dHprkwtzV9MSnPiyTJk2yac/CQs8qjSi2u/zyy216LbF0UOlRBulJRJBQDpcVGpQsTJ+WhIqV8o/1M9nYpNKkR5PnQvONCvj000/tOadcBK+K0iLUs0yHRi895ZL6BA+RV1991b5HVCatPDQwEZ5MjUWnUzbofMICgBhhCshswqq8wTmefPLJ9r6iM4EOOxrKzz33XFpPhY8//tisz1hgmc6IxjJinvMuK7DqY4Vn2X777c27h+nA6AjJBeog7ifTtyEiEAVYyplWrLS8MXKFMnb//ffb9GBYlLluWNAR6JpGUVQ2qAvxDsW4cuGFF5oBAAs5dQjPH54hPItMoZsOplljobNT3pEVHzpumc4Oj7V0XsN08mF0SwedsbQxMwl6jotxKAnlj9/kHf1Xhql9RW5UeFEeoEEX5l2k4UYjb+DAgeZmFlwzKhNYTiDVPYUGKw3g5II1BmjYJcEVauLEiYULlTeN6dmzZ5sgR+CLkoP44OWGuyRWpuLcP3MldDqlzjEfLOG4HNERkFzoMQdZywXlkrLIfMZ33HFHqYvaILwQZKleIQg9PJhwfWO+aaDBgHDC5RILbXFQJ1Hf0dkaLKQlIbgsh99PJbgjM6d38n+u22cCd2PcBHkGqYuxQOBuesEFF6QVq3yP1wveX8wdi1spnSncu+LuWUnPMQku33hR0ImIJ8Xnn39u71XqsuI6tvGA4Bxvu+02myOfueM5R9xmU8+R386UPyCPIX/FnU/w/kqeD0MD8JLDA4H96GCmU5rOofDezEY4Fm6Z6Ui9huQx1/NJR3Hn+Msvv9g55XpNci2XovKAtRKoL1Khrtx7773NOMMzmQ6ee8jmtSMqDrwnsJZTR2C9ToUykcnThvZB6MxJN+Qs3bAjCOmpQytEyajQqovCRq9gcOdKhTGN8O2339r/ysR2221n/xn3l63BxAOClRRX0tSXNFZ0rlFYdt55Z2sMSowvPVzv0047zTqCaBiWprcBAgboyQxgUaPRTgXLGJ/PPvusyELZ4IWNkMn0nIiqAdZCxpkinnA/w80xLHQg4YXBZ9x7l4YwbhoLTTpCOuUQDx+sqnXr1rWGQzIvoQOJ+p116i8W3CpxhWcMenJ7xCsgJlnPJFawmtLD/9Zbb/mUooSxxGH8cxibi3U1HWxPQySbOzn1Aa78uOmTT4ThAQcckNFyjIdNz549zWWZ4wdvr1zrZM6RztdczzEbuG/TEUCHAJb9bIT4FXQoMN6/W7duGc+R60pHBUIzFTyLEA4hf7hir7feeiU6n4ceesi8CvAGwaWXOjh1TH82crnvjJ8PbuJsT57JeyqcI+ea7XpznXH9zHSOIT0cgyFKlIfSuMeicsCQE0g1vARCeibXYgQY1lG8SUTlAOMk77t0Fu9MwjoQ3N/vvvtu+y+WI3GjYZmJG/4WfW95R18P00zFL2FbT42+HqaXYVqSfBE3wiwPZTFvaJjehekw4srWpxaFqLhsEzeAfUpu0deXB5Ux+vrAgQPtnHbZZZfCaYdygQiWHbJEX6csV6tWzaYvSk7nw5Rn/B5z9mfiiiuusG2YCqMyoOjrmckWfb1fv34WZTXdEr+kbT8+b7TRRn6PJckWfZ0o/+yfKdJ0LF4sQivT8zCHdfL3kwvPAr8RNyRtnTqMKf5StwtLLP5se/Zj/eOPP/a/uCQ8Y42W45RozBNO3oj6nQthms9MEd9zgSnRqCfSTYlGvUSU5lA3MWsD1y9TxHzeEeQn23Q3HINtmHozF7JNiRbe6blOiRbKY3JKtFiMW11ZkqjTSYiUzzHTvR9LOiVaeP8vy5RozKjBMTQlWnq411tX8ujrxdG/f38rI0xXlQr1LVOcUV9Rp6VCuWJfplStSlB3c96VGepC3u3MAhIg+jpR07NBPcKsF8wywWfg/cH12nfffW09lTCNMu/GykwbTYmWmZ9++skaYjSyHn300cLpVKZOnWrTR9EwofCFRlY+KEtRzvmGKQ123XXX6JFHHrEpgmbNmmXTxTHnIC/6VVZZxeaSDUiUlw00JDmf2rVr27Q6NNYyLanTN1GON9544yLbMH/k9ddfb42scNwXX3zR71EggurVqxe1atUqY6cM0KCuXr26iaLKQFUV5TfffHO02WabLTEdTpJcp0RLpTSmRAPmo+Z7yi3lExDAl1xyiaWfddZZlpaNt4qZEi2VTFOikRaWANeF9X322cfqSqCDIEwFlJwzHEJZO+WUU+x9AwgzGiakJzu6eO9wf7p16+ZToui5556z7ZhHHoGebkmKR8Q4248YMSLttizkN8C0WPwm02YFQmf0XnvtVSjy2CfMZZycM5x6g2nPaLhxHYNY554NGzbMBOhOO+1kaTB9+nT7vWTHywsvvGDH5R2XLr8syenCeD+tttpqJiqZdow8ICBHjx5tnSK805Ji89VXXzXhxZzpXGPg+6uuusp+l+nxktBoYkqgdPkISxAn3FPOB5GbhGNybDpZQzl+++23LQ/kJdkJSl6aNWtmeeccOBfOiXc/58i5Js8fAcVvJuebZxo+jkveKf/A79KmIh+pgol7Q/p+++1XKNZ//PHHwjnNy6K9UV6RKI+ib7/91jpi1lhjDRPm4TlmSlvqOsrEZZddZmmphPqCaSmrElVBlKOLOMdrr73Wp+QmyiG8s6nfQaK8AInyYkAIITr5fSrn5H9EeZhzNl+UpSgHGji8sPmNdAs9Xa+//rrfugCJ8rLhf//7X5Frn23p2LGj36uAYB1MtyCWaOhPmTLFb11AEBjFWWGgc+fOti0Ny4pOVRXll156qZ137969fcqS5FuUI1B222032waRwvzLoWwjElMte+koS1FOw6JPnz7WScV7AvGG8GQbnpEgwAJ4pWBt4Hs6ONmefVmYn5rjBRCPbLfFFlv4lMX1f7aFax8IQjPbglAMhLofb4IAeaKBne4caVClniMitWXLloXHx5LOvnxGIPN9gHcJ6ZtuuqlPWTx/erbl4IMP9lsXwD7ki+8QrZQVPq+77rrRO++847daDGWhVq1atg37hTKFmP7hhx/8VgWQN77LtiBiIMwVz/GScEyOHb4LeeVzunKJdx55ZxvOhXPiM/txrknwWuM77nUS5p8P50Vna/hMR0DS0gXcYzq4uL/cK36H8sn2BxxwQBFvqsoO16Cqi3KYOHFiVLduXSsD1OWhXcyCp046KzkEK/utt97qU6oGVUGUY5BEB1EnhndVrqI8eEAFLy/2Z12ivGxFeTX+xBdymWAsYvzSd7EotzD7yxvC9z/22GMWTTx+Ydp4CAJbMB1Pvqf0Inptp06dXCzKbX7JsoLpzeIGuUXK5X4wTi1+eCzAUvzS9lsVwLhFIiMTMKxDYiqE5U3Pnj1tHGgsyivF+DeC5MWNM7+WHSKjE2gvwBRCqWMsGfdDBGSCQxETIBXmECbSNWMn032fhIBvjCdmPCJjiisysSi1cc+MXa1KkZQJpsXc1oxnzTRtTSwy7LoQPZt5a3OFuuPrr78uMnVVOojQyxhj4iVkIn55W5yD559/3oILxYLByihlL25A+60yQ4CtJ554wuquXKYRJD/kizqfCOKB5G+lvuY4V8Zrc70Y104wM/KXCa49Y5Xnz59vY4m5TowDTkKE9bhha3VrCMBJPBOuQzY4zo477mifGdvPGORsJJ9hYlfwzmXcNMF5knCOjK3mHIknwtzDTAuWDqLmMlafckBgMbYnxgixRmJx6LcqOEdiE3AtwowOBAadMGGCfc4EZTZ1Boo//vjDArJyzryj2rdvb2PRaUukgwBm3DPOKxYd9l4lf6llirYAY/izwbWIxbNFo7777rttKtDUyNSUGcba/t///Z9dH86Bcp8pQFIsemxMPe8z6nLuEYGzQhCuAO0UYh9wfQn2l4R4CJwjAZY4R94Ru+66a8bnhvqfe8x+lONDDjnE4gpUJSg7lOswlr4qQ31LkEXqH6JuE8eDss7805kgNgHtR55PynhVgfcLbaJSkEDlGqaKZppSng9mohg/frzVdcnYRJmgTFA+iFfEO4G6qUmTJm633XbzWyyGdz51M3Vepjq8MsD7l9g2TDdYJiDKl5V8WsqTpI4pLw+UtaW8IlMZx5SLsqeqWsp//vln85gYMGCATxHlCcZu4raPO/jy4ptvvrEYAMHFsKzBAnvjjTdGO+ywg0+p2NB2YajQOuus41PKHtzMGW42dOhQnyKWBVnKxdJQFSzlgOcR55mMK5Urd911l+1bWeIRlQZlbSmvVGG26Z3BWkBIfyGEqExgHcdSyVzfovzBlIVDhgyx+YCXF8w1j7dTsLSXNXgkYHUZMGCAT6nYEDX9pJNOsvn0lxeXXnqpRUXW9FNCiLKGecWx7jJ7T0nnEA8eRSNHjvQpoqypVKKcwoNLQUmmPxFCiIoAYo8hCwxNEeUPXPqY23t5DgliqAINptQhSmUF7uLM+c3wiMoAbQWmMqPxubxgiMMzzzyjecSFEMuFwYMH2xBahgCVBOqo4cOH29AwhkOIsqdSiXIhhBBCCCGEEM7iV1x00UUWY6CkHHroobYvMS5E2SNRLoQQQgghhBBC5AmJciGEEEIIIYQQIk9IlAshhBBCCCGEEHlColwIIYQQQgghhMgTEuVCCCGEEEIIIUSekCgXQgghhBBCCCHyhES5EEIIIYQQQgiRJ6pFMf7zUrNw4UJXs2ZNt8kmm7g+ffr4VAGvv/66Tb7ftm1bd/rpp/tUATfccIN799133cUXX+w23HBDnypEdoYMGeKmTZvmTjzxRNe+fXufKoQQoqrRo0cPV6dOHXfzzTf7FCGK54wzznALFixwI0aM8ClCFA/1Tffu3d3YsWN9SulSqqJcCCGEEEIIIYSobJR7Uc4h5syZ49dEEjos5s6d61ZddVVXu3ZtnyqAXsrff//d1a9fX506Imf+/PNPN2/ePNegQQNXo0YNnyqEEKKq8cMPP1jbqm7duj5FiOKZP3++tSUaNWrkU4TIjZVWWsnVq1fPr5UupSLKhRBCCCGEEEIIUXIU6E0IIYQQQgghhMgTEuVCCCGEEEIIIUSekCgXQgghhBBCCCHyhES5EEIIIYQQQgiRJyTKhRBCCCGEEEKIPCFRLoQQQgghhBBC5AmJciGEEEIIIYQQIk9IlAshhBBCCCGEEHlColwIIYQQQgghhMgTEuVCCCGEEEIIIURecO7/AUwM6a70CWosAAAAAElFTkSuQmCC;" vertex="1" parent="1">
          <mxGeometry x="60" y="1560" width="997" height="487" as="geometry" />
        </mxCell>
      </root>
    </mxGraphModel>
  </diagram>
</mxfile>
